SeanSlab-NormalLight.ufo
<glyph name="exclam" format="1">
  <advance width="244"/>
  <unicode hex="0021"/>
  <outline>
    <contour>
      <point x="150" y="229" type="line"/>
      <point x="157" y="722" type="line"/>
      <point x="89" y="722" type="line"/>
      <point x="95" y="229" type="line"/>
    </contour>
    <contour>
      <point x="160" y="27" type="curve"/>
      <point x="160" y="49"/>
      <point x="144" y="60"/>
      <point x="122" y="60" type="curve"/>
      <point x="100" y="60"/>
      <point x="86" y="48"/>
      <point x="86" y="27" type="curve"/>
      <point x="151" y="27"/>
      <point x="95" y="27"/>
      <point x="160" y="27" type="curve"/>
      <point x="160" y="4"/>
      <point x="145" y="-7"/>
      <point x="122" y="-7" type="curve"/>
      <point x="100" y="-7"/>
      <point x="86" y="5"/>
      <point x="86" y="27" type="curve"/>
      <point x="151" y="27"/>
      <point x="95" y="27"/>
    </contour>
  </outline>
</glyph>
<glyph name="quotedbl" format="1">
  <advance width="427"/>
  <unicode hex="0022"/>
  <outline>
    <contour>
      <point x="146" y="605" type="line"/>
      <point x="151" y="804" type="line"/>
      <point x="84" y="804" type="line"/>
      <point x="89" y="605" type="line"/>
    </contour>
    <contour>
      <point x="339" y="605" type="line"/>
      <point x="344" y="804" type="line"/>
      <point x="276" y="804" type="line"/>
      <point x="281" y="605" type="line"/>
    </contour>
  </outline>
</glyph>
<glyph name="numbersign" format="1">
  <advance width="706"/>
  <unicode hex="0023"/>
  <outline>
    <contour>
      <point x="48" y="238" type="curve"/>
      <point x="567" y="238" type="curve"/>
      <point x="583" y="286" type="curve"/>
      <point x="64" y="286" type="curve"/>
    </contour>
    <contour>
      <point x="121" y="474" type="curve"/>
      <point x="642" y="474" type="curve"/>
      <point x="658" y="521" type="curve"/>
      <point x="136" y="521" type="curve"/>
    </contour>
    <contour>
      <point x="419" y="39" type="curve"/>
      <point x="645" y="722" type="curve"/>
      <point x="585" y="722" type="curve"/>
      <point x="358" y="39" type="curve"/>
    </contour>
    <contour>
      <point x="136" y="46" type="curve"/>
      <point x="359" y="722" type="curve"/>
      <point x="299" y="722" type="curve"/>
      <point x="79" y="46" type="curve"/>
    </contour>
  </outline>
</glyph>
<glyph name="dollar" format="1">
  <advance width="585"/>
  <unicode hex="0024"/>
  <outline>
    <contour>
      <point x="111" y="97" type="curve"/>
      <point x="111" y="217"/>
      <point x="111" y="101"/>
      <point x="111" y="221" type="curve"/>
      <point x="62" y="221"/>
      <point x="111" y="221"/>
      <point x="62" y="221" type="curve"/>
      <point x="62" y="101"/>
      <point x="62" y="217"/>
      <point x="62" y="97" type="curve"/>
      <point x="111" y="97"/>
      <point x="62" y="97"/>
    </contour>
    <contour>
      <point x="455" y="632" type="curve"/>
      <point x="455" y="512"/>
      <point x="455" y="628"/>
      <point x="455" y="508" type="curve"/>
      <point x="504" y="508"/>
      <point x="455" y="508"/>
      <point x="504" y="508" type="curve"/>
      <point x="504" y="628"/>
      <point x="504" y="512"/>
      <point x="504" y="632" type="curve"/>
      <point x="455" y="632"/>
      <point x="504" y="632"/>
    </contour>
    <contour>
      <point x="306" y="-42" type="curve"/>
      <point x="306" y="-9"/>
      <point x="306" y="37"/>
      <point x="306" y="70" type="curve"/>
      <point x="246" y="70"/>
      <point x="306" y="70"/>
      <point x="246" y="70" type="curve"/>
      <point x="246" y="37"/>
      <point x="246" y="-9"/>
      <point x="246" y="-42" type="curve"/>
      <point x="306" y="-42"/>
      <point x="246" y="-42"/>
    </contour>
    <contour>
      <point x="319" y="660" type="curve"/>
      <point x="319" y="692"/>
      <point x="319" y="740"/>
      <point x="319" y="773" type="curve"/>
      <point x="258" y="773"/>
      <point x="319" y="773"/>
      <point x="258" y="773" type="curve"/>
      <point x="258" y="740"/>
      <point x="258" y="692"/>
      <point x="258" y="660" type="curve"/>
      <point x="319" y="660"/>
      <point x="258" y="660"/>
    </contour>
    <contour>
      <point x="62" y="97" type="curve"/>
      <point x="121" y="70"/>
      <point x="192" y="46"/>
      <point x="273" y="46" type="curve"/>
      <point x="415" y="46"/>
      <point x="530" y="91"/>
      <point x="530" y="205" type="curve"/>
      <point x="530" y="311"/>
      <point x="422" y="351"/>
      <point x="309" y="396" type="curve"/>
      <point x="218" y="433"/>
      <point x="140" y="458"/>
      <point x="140" y="536" type="curve"/>
      <point x="140" y="605"/>
      <point x="207" y="637"/>
      <point x="293" y="637" type="curve"/>
      <point x="363" y="637"/>
      <point x="413" y="622"/>
      <point x="474" y="592" type="curve"/>
      <point x="504" y="632"/>
      <point x="474" y="592"/>
      <point x="504" y="632" type="curve"/>
      <point x="434" y="666"/>
      <point x="377" y="684"/>
      <point x="296" y="684" type="curve"/>
      <point x="172" y="684"/>
      <point x="79" y="638"/>
      <point x="79" y="536" type="curve"/>
      <point x="79" y="434"/>
      <point x="166" y="396"/>
      <point x="273" y="353" type="curve"/>
      <point x="370" y="315"/>
      <point x="470" y="287"/>
      <point x="470" y="203" type="curve"/>
      <point x="470" y="123"/>
      <point x="383" y="93"/>
      <point x="279" y="93" type="curve"/>
      <point x="208" y="93"/>
      <point x="146" y="117"/>
      <point x="95" y="139" type="curve"/>
      <point x="62" y="97"/>
      <point x="95" y="139"/>
    </contour>
  </outline>
</glyph>
<glyph name="parenleft" format="1">
  <advance width="367"/>
  <unicode hex="0028"/>
  <outline>
    <contour>
      <point x="355" y="-227" type="curve"/>
      <point x="188" y="-65"/>
      <point x="115" y="92"/>
      <point x="115" y="326" type="curve"/>
      <point x="115" y="560"/>
      <point x="190" y="716"/>
      <point x="354" y="880" type="curve"/>
      <point x="318" y="911"/>
      <point x="354" y="880"/>
      <point x="318" y="911" type="curve"/>
      <point x="140" y="739"/>
      <point x="54" y="576"/>
      <point x="54" y="326" type="curve"/>
      <point x="54" y="76"/>
      <point x="141" y="-87"/>
      <point x="319" y="-260" type="curve"/>
      <point x="355" y="-227"/>
      <point x="319" y="-260"/>
    </contour>
  </outline>
</glyph>
<glyph name="parenright" format="1">
  <advance width="377"/>
  <unicode hex="0029"/>
  <outline>
    <contour>
      <point x="45" y="-275" type="curve"/>
      <point x="226" y="-94"/>
      <point x="324" y="69"/>
      <point x="324" y="328" type="curve"/>
      <point x="324" y="580"/>
      <point x="233" y="742"/>
      <point x="49" y="912" type="curve"/>
      <point x="13" y="879"/>
      <point x="49" y="912"/>
      <point x="13" y="879" type="curve"/>
      <point x="183" y="716"/>
      <point x="263" y="561"/>
      <point x="263" y="325" type="curve"/>
      <point x="263" y="84"/>
      <point x="174" y="-71"/>
      <point x="8" y="-244" type="curve"/>
      <point x="45" y="-275"/>
      <point x="8" y="-244"/>
    </contour>
  </outline>
</glyph>
<glyph name="asterisk" format="1">
  <advance width="638"/>
  <unicode hex="002A"/>
  <outline>
    <contour>
      <point x="339" y="589" type="line"/>
      <point x="344" y="788" type="line"/>
      <point x="290" y="788" type="line"/>
      <point x="294" y="589" type="line"/>
    </contour>
    <contour>
      <point x="372" y="538" type="line"/>
      <point x="562" y="598" type="line"/>
      <point x="544" y="649" type="line"/>
      <point x="357" y="581" type="line"/>
    </contour>
    <contour>
      <point x="333" y="492" type="line"/>
      <point x="451" y="331" type="line"/>
      <point x="492" y="364" type="line"/>
      <point x="369" y="520" type="line"/>
    </contour>
    <contour>
      <point x="277" y="516" type="line"/>
      <point x="153" y="360" type="line"/>
      <point x="195" y="327" type="line"/>
      <point x="313" y="488" type="line"/>
    </contour>
    <contour>
      <point x="281" y="575" type="line"/>
      <point x="94" y="642" type="line"/>
      <point x="77" y="592" type="line"/>
      <point x="266" y="532" type="line"/>
    </contour>
  </outline>
</glyph>
<glyph name="plus" format="1">
  <advance width="672"/>
  <unicode hex="002B"/>
  <outline>
    <contour>
      <point x="53" y="284" type="curve"/>
      <point x="619" y="284" type="line"/>
      <point x="619" y="337"/>
      <point x="619" y="284"/>
      <point x="619" y="337" type="curve"/>
      <point x="53" y="337" type="line"/>
      <point x="53" y="284"/>
      <point x="53" y="337"/>
    </contour>
    <contour>
      <point x="364" y="23" type="curve"/>
      <point x="364" y="587" type="line"/>
      <point x="303" y="587"/>
      <point x="366" y="587"/>
      <point x="306" y="587" type="curve"/>
      <point x="306" y="23" type="line"/>
      <point x="366" y="23"/>
      <point x="303" y="23"/>
    </contour>
  </outline>
</glyph>
<glyph name="comma" format="1">
  <advance width="230"/>
  <unicode hex="002C"/>
  <outline>
    <contour>
      <point x="42" y="-119" type="line"/>
      <point x="111" y="-119"/>
      <point x="144" y="-62"/>
      <point x="144" y="1" type="curve"/>
      <point x="144" y="46"/>
      <point x="130" y="81"/>
      <point x="100" y="81" type="curve"/>
      <point x="77" y="81"/>
      <point x="62" y="69"/>
      <point x="62" y="47" type="curve"/>
      <point x="62" y="27"/>
      <point x="74" y="14"/>
      <point x="95" y="11" type="curve"/>
      <point x="95" y="-17"/>
      <point x="94" y="-76"/>
      <point x="42" y="-79" type="curve"/>
    </contour>
  </outline>
</glyph>
<glyph name="hyphen" format="1">
  <advance width="471"/>
  <unicode hex="002D"/>
  <outline>
    <contour>
      <point x="84" y="249" type="curve"/>
      <point x="185" y="249"/>
      <point x="286" y="249"/>
      <point x="387" y="249" type="curve"/>
      <point x="387" y="302"/>
      <point x="387" y="249"/>
      <point x="387" y="302" type="curve"/>
      <point x="286" y="302"/>
      <point x="185" y="302"/>
      <point x="84" y="302" type="curve"/>
      <point x="84" y="249"/>
      <point x="84" y="302"/>
    </contour>
  </outline>
</glyph>
<glyph name="period" format="1">
  <advance width="234"/>
  <unicode hex="002E"/>
  <outline>
    <contour>
      <point x="154" y="27" type="curve"/>
      <point x="154" y="49"/>
      <point x="138" y="60"/>
      <point x="116" y="60" type="curve"/>
      <point x="94" y="60"/>
      <point x="80" y="48"/>
      <point x="80" y="27" type="curve"/>
      <point x="145" y="27"/>
      <point x="89" y="27"/>
      <point x="154" y="27" type="curve"/>
      <point x="154" y="4"/>
      <point x="138" y="-7"/>
      <point x="116" y="-7" type="curve"/>
      <point x="94" y="-7"/>
      <point x="80" y="5"/>
      <point x="80" y="27" type="curve"/>
      <point x="145" y="27"/>
      <point x="89" y="27"/>
    </contour>
  </outline>
</glyph>
<glyph name="slash" format="1">
  <advance width="576"/>
  <unicode hex="002F"/>
  <outline>
    <contour>
      <point x="96" y="-51" type="curve"/>
      <point x="244" y="241"/>
      <point x="393" y="533"/>
      <point x="541" y="825" type="curve"/>
      <point x="480" y="825"/>
      <point x="541" y="825"/>
      <point x="480" y="825" type="curve"/>
      <point x="332" y="533"/>
      <point x="184" y="241"/>
      <point x="36" y="-51" type="curve"/>
      <point x="96" y="-51"/>
      <point x="36" y="-51"/>
    </contour>
  </outline>
</glyph>
<glyph name="zero" format="1">
  <advance width="751"/>
  <unicode hex="0030"/>
  <outline>
    <contour>
      <point x="127" y="360" type="curve"/>
      <point x="127" y="547"/>
      <point x="200" y="676"/>
      <point x="374" y="676" type="curve"/>
      <point x="548" y="676"/>
      <point x="624" y="547"/>
      <point x="624" y="363" type="curve"/>
      <point x="624" y="177"/>
      <point x="550" y="46"/>
      <point x="380" y="46" type="curve"/>
      <point x="207" y="46"/>
      <point x="127" y="174"/>
      <point x="127" y="360" type="curve"/>
      <point x="67" y="360"/>
      <point x="125" y="360"/>
      <point x="66" y="360" type="curve"/>
      <point x="66" y="141"/>
      <point x="167" y="-5"/>
      <point x="377" y="-5" type="curve"/>
      <point x="587" y="-5"/>
      <point x="684" y="143"/>
      <point x="684" y="363" type="curve"/>
      <point x="684" y="581"/>
      <point x="587" y="727"/>
      <point x="380" y="727" type="curve"/>
      <point x="168" y="727"/>
      <point x="66" y="580"/>
      <point x="66" y="360" type="curve"/>
      <point x="125" y="360"/>
      <point x="67" y="360"/>
    </contour>
  </outline>
</glyph>
<glyph name="one" format="1">
  <advance width="460"/>
  <unicode hex="0031"/>
  <outline>
    <contour>
      <point x="278" y="0" type="curve"/>
      <point x="328" y="0"/>
      <point x="378" y="0"/>
      <point x="428" y="0" type="curve"/>
      <point x="428" y="48"/>
      <point x="428" y="0"/>
      <point x="428" y="48" type="curve"/>
      <point x="278" y="48"/>
      <point x="428" y="48"/>
      <point x="278" y="48" type="curve"/>
      <point x="278" y="0"/>
      <point x="278" y="48"/>
    </contour>
    <contour>
      <point x="278" y="48" type="curve"/>
      <point x="126" y="48"/>
      <point x="278" y="48"/>
      <point x="126" y="48" type="curve"/>
      <point x="126" y="0"/>
      <point x="126" y="48"/>
      <point x="126" y="0" type="curve"/>
      <point x="176" y="0"/>
      <point x="227" y="0"/>
      <point x="278" y="0" type="curve"/>
      <point x="278" y="48"/>
      <point x="278" y="0"/>
    </contour>
    <contour>
      <point x="71" y="517" type="curve"/>
      <point x="293" y="691"/>
      <point x="71" y="517"/>
      <point x="293" y="691" type="curve"/>
      <point x="246" y="722"/>
      <point x="293" y="691"/>
      <point x="246" y="722" type="curve"/>
      <point x="39" y="557"/>
      <point x="246" y="722"/>
      <point x="39" y="557" type="curve"/>
      <point x="71" y="517"/>
      <point x="39" y="557"/>
    </contour>
    <contour>
      <point x="306" y="0" type="curve"/>
      <point x="306" y="241"/>
      <point x="306" y="481"/>
      <point x="306" y="722" type="curve"/>
      <point x="246" y="722"/>
      <point x="306" y="722"/>
      <point x="246" y="722" type="curve"/>
      <point x="246" y="481"/>
      <point x="246" y="241"/>
      <point x="246" y="0" type="curve"/>
      <point x="306" y="0"/>
      <point x="246" y="0"/>
    </contour>
  </outline>
</glyph>
<glyph name="two" format="1">
  <advance width="613"/>
  <unicode hex="0032"/>
  <outline>
    <contour>
      <point x="542" y="48" type="curve"/>
      <point x="542" y="165"/>
      <point x="542" y="46"/>
      <point x="542" y="163" type="curve"/>
      <point x="494" y="163"/>
      <point x="542" y="163"/>
      <point x="494" y="163" type="curve"/>
      <point x="494" y="46"/>
      <point x="494" y="165"/>
      <point x="494" y="48" type="curve"/>
      <point x="542" y="48"/>
      <point x="494" y="48"/>
    </contour>
    <contour>
      <point x="51" y="0" type="curve"/>
      <point x="232" y="0"/>
      <point x="385" y="0"/>
      <point x="542" y="0" type="curve"/>
      <point x="542" y="48"/>
      <point x="542" y="0"/>
      <point x="542" y="48" type="curve"/>
      <point x="376" y="48"/>
      <point x="218" y="48"/>
      <point x="51" y="48" type="curve"/>
      <point x="51" y="0"/>
      <point x="51" y="48"/>
    </contour>
    <contour>
      <point x="110" y="548" type="curve"/>
      <point x="160" y="626"/>
      <point x="209" y="676"/>
      <point x="298" y="676" type="curve"/>
      <point x="397" y="676"/>
      <point x="455" y="621"/>
      <point x="455" y="519" type="curve"/>
      <point x="455" y="400"/>
      <point x="370" y="319"/>
      <point x="286" y="251" type="curve"/>
      <point x="208" y="183"/>
      <point x="130" y="116"/>
      <point x="51" y="48" type="curve"/>
      <point x="59" y="0"/>
      <point x="51" y="48"/>
      <point x="59" y="0" type="curve"/>
      <point x="162" y="70"/>
      <point x="242" y="143"/>
      <point x="324" y="214" type="curve"/>
      <point x="421" y="291"/>
      <point x="513" y="378"/>
      <point x="513" y="521" type="curve"/>
      <point x="513" y="655"/>
      <point x="433" y="727"/>
      <point x="301" y="727" type="curve"/>
      <point x="191" y="727"/>
      <point x="118" y="669"/>
      <point x="67" y="575" type="curve"/>
      <point x="110" y="548"/>
      <point x="67" y="575"/>
    </contour>
  </outline>
</glyph>
<glyph name="three" format="1">
  <advance width="568"/>
  <unicode hex="0033"/>
  <outline>
    <contour>
      <point x="56" y="56" type="curve"/>
      <point x="117" y="18"/>
      <point x="175" y="-5"/>
      <point x="254" y="-5" type="curve"/>
      <point x="405" y="-5"/>
      <point x="506" y="54"/>
      <point x="506" y="202" type="curve"/>
      <point x="506" y="338"/>
      <point x="362" y="397"/>
      <point x="164" y="397" type="curve"/>
      <point x="164" y="360"/>
      <point x="164" y="393"/>
      <point x="164" y="356" type="curve"/>
      <point x="311" y="356"/>
      <point x="447" y="310"/>
      <point x="447" y="200" type="curve"/>
      <point x="447" y="87"/>
      <point x="358" y="47"/>
      <point x="256" y="47" type="curve"/>
      <point x="194" y="47"/>
      <point x="147" y="64"/>
      <point x="86" y="96" type="curve"/>
      <point x="56" y="56"/>
      <point x="86" y="96"/>
    </contour>
    <contour>
      <point x="97" y="607" type="curve"/>
      <point x="131" y="642"/>
      <point x="187" y="675"/>
      <point x="251" y="675" type="curve"/>
      <point x="348" y="675"/>
      <point x="413" y="637"/>
      <point x="413" y="545" type="curve"/>
      <point x="413" y="448"/>
      <point x="296" y="404"/>
      <point x="164" y="404" type="curve"/>
      <point x="164" y="367"/>
      <point x="164" y="400"/>
      <point x="164" y="363" type="curve"/>
      <point x="335" y="363"/>
      <point x="471" y="417"/>
      <point x="471" y="547" type="curve"/>
      <point x="471" y="669"/>
      <point x="384" y="727"/>
      <point x="256" y="727" type="curve"/>
      <point x="173" y="727"/>
      <point x="101" y="685"/>
      <point x="61" y="640" type="curve"/>
      <point x="97" y="607"/>
      <point x="61" y="640"/>
    </contour>
  </outline>
</glyph>
<glyph name="four" format="1">
  <advance width="650"/>
  <unicode hex="0034"/>
  <outline>
    <contour>
      <point x="396" y="48" type="line"/>
      <point x="254" y="48" type="line"/>
      <point x="254" y="0" type="line"/>
      <point x="396" y="0" type="line"/>
    </contour>
    <contour>
      <point x="396" y="0" type="line"/>
      <point x="535" y="0" type="line"/>
      <point x="535" y="48" type="line"/>
      <point x="396" y="48" type="line"/>
    </contour>
    <contour>
      <point x="62" y="263" type="line"/>
      <point x="415" y="700" type="line"/>
      <point x="367" y="714" type="line"/>
      <point x="33" y="305" type="line"/>
    </contour>
    <contour>
      <point x="601" y="305" type="line"/>
      <point x="33" y="305" type="line"/>
      <point x="34" y="253" type="line"/>
      <point x="601" y="253" type="line"/>
    </contour>
    <contour>
      <point x="427" y="14" type="line"/>
      <point x="427" y="714" type="line"/>
      <point x="367" y="714" type="line"/>
      <point x="367" y="14" type="line"/>
    </contour>
  </outline>
</glyph>
<glyph name="five" format="1">
  <advance width="554"/>
  <unicode hex="0035"/>
  <outline>
    <contour>
      <point x="99" y="722" type="curve"/>
      <point x="99" y="621"/>
      <point x="99" y="512"/>
      <point x="99" y="395" type="curve"/>
      <point x="157" y="379"/>
      <point x="99" y="395"/>
      <point x="157" y="379" type="curve"/>
      <point x="157" y="476"/>
      <point x="157" y="577"/>
      <point x="157" y="674" type="curve"/>
      <point x="99" y="722"/>
      <point x="157" y="674"/>
    </contour>
    <contour>
      <point x="157" y="379" type="curve"/>
      <point x="180" y="393"/>
      <point x="228" y="406"/>
      <point x="264" y="406" type="curve"/>
      <point x="371" y="406"/>
      <point x="436" y="337"/>
      <point x="436" y="230" type="curve"/>
      <point x="436" y="121"/>
      <point x="359" y="47"/>
      <point x="248" y="47" type="curve"/>
      <point x="187" y="47"/>
      <point x="141" y="60"/>
      <point x="83" y="88" type="curve"/>
      <point x="55" y="44"/>
      <point x="83" y="88"/>
      <point x="55" y="44" type="curve"/>
      <point x="116" y="12"/>
      <point x="174" y="-5"/>
      <point x="245" y="-5" type="curve"/>
      <point x="391" y="-5"/>
      <point x="497" y="87"/>
      <point x="497" y="229" type="curve"/>
      <point x="497" y="367"/>
      <point x="407" y="457"/>
      <point x="268" y="457" type="curve"/>
      <point x="210" y="457"/>
      <point x="141" y="439"/>
      <point x="99" y="399" type="curve"/>
      <point x="157" y="379"/>
      <point x="99" y="399"/>
    </contour>
    <contour>
      <point x="472" y="722" type="curve"/>
      <point x="343" y="722"/>
      <point x="223" y="722"/>
      <point x="99" y="722" type="curve"/>
      <point x="157" y="674"/>
      <point x="99" y="722"/>
      <point x="157" y="674" type="curve"/>
      <point x="262" y="674"/>
      <point x="363" y="674"/>
      <point x="472" y="674" type="curve"/>
      <point x="472" y="722"/>
      <point x="472" y="674"/>
    </contour>
  </outline>
</glyph>
<glyph name="six" format="1">
  <advance width="614"/>
  <unicode hex="0036"/>
  <outline>
    <contour>
      <point x="110" y="226" type="curve"/>
      <point x="148" y="315"/>
      <point x="218" y="371"/>
      <point x="316" y="371" type="curve"/>
      <point x="422" y="371"/>
      <point x="486" y="314"/>
      <point x="486" y="209" type="curve"/>
      <point x="486" y="110"/>
      <point x="422" y="49"/>
      <point x="320" y="49" type="curve"/>
      <point x="194" y="49"/>
      <point x="119" y="122"/>
      <point x="119" y="247" type="curve"/>
      <point x="119" y="497"/>
      <point x="299" y="616"/>
      <point x="546" y="687" type="curve"/>
      <point x="531" y="733"/>
      <point x="546" y="687"/>
      <point x="531" y="733" type="curve"/>
      <point x="261" y="661"/>
      <point x="60" y="525"/>
      <point x="60" y="245" type="curve"/>
      <point x="60" y="86"/>
      <point x="158" y="-7"/>
      <point x="318" y="-7" type="curve"/>
      <point x="459" y="-7"/>
      <point x="548" y="72"/>
      <point x="548" y="210" type="curve"/>
      <point x="548" y="347"/>
      <point x="460" y="421"/>
      <point x="322" y="421" type="curve"/>
      <point x="197" y="421"/>
      <point x="113" y="347"/>
      <point x="72" y="247" type="curve"/>
      <point x="109" y="226"/>
      <point x="73" y="247"/>
    </contour>
  </outline>
</glyph>
<glyph name="seven" format="1">
  <advance width="577"/>
  <unicode hex="0037"/>
  <outline>
    <contour>
      <point x="103" y="566" type="line"/>
      <point x="103" y="681" type="line"/>
      <point x="54" y="681" type="line"/>
      <point x="54" y="566" type="line"/>
    </contour>
    <contour>
      <point x="54" y="674" type="line"/>
      <point x="557" y="674" type="line"/>
      <point x="557" y="722" type="line"/>
      <point x="54" y="722" type="line"/>
    </contour>
    <contour>
      <point x="521" y="722" type="line"/>
      <point x="89" y="0" type="line"/>
      <point x="157" y="0" type="line"/>
      <point x="557" y="674" type="line"/>
    </contour>
  </outline>
</glyph>
<glyph name="eight" format="1">
  <advance width="592"/>
  <unicode hex="0038"/>
  <outline>
    <contour>
      <point x="85" y="555" type="curve"/>
      <point x="85" y="441"/>
      <point x="172" y="410"/>
      <point x="279" y="360" type="curve"/>
      <point x="381" y="312"/>
      <point x="466" y="281"/>
      <point x="466" y="177" type="curve"/>
      <point x="466" y="83"/>
      <point x="397" y="45"/>
      <point x="295" y="45" type="curve"/>
      <point x="193" y="45"/>
      <point x="126" y="83"/>
      <point x="126" y="177" type="curve"/>
      <point x="126" y="283"/>
      <point x="213" y="311"/>
      <point x="317" y="360" type="curve"/>
      <point x="420" y="411"/>
      <point x="507" y="441"/>
      <point x="507" y="554" type="curve"/>
      <point x="507" y="675"/>
      <point x="425" y="727"/>
      <point x="295" y="727" type="curve"/>
      <point x="169" y="727"/>
      <point x="85" y="673"/>
      <point x="85" y="555" type="curve"/>
      <point x="146" y="555"/>
      <point x="85" y="555"/>
      <point x="146" y="555" type="curve"/>
      <point x="146" y="638"/>
      <point x="204" y="677"/>
      <point x="293" y="677" type="curve"/>
      <point x="387" y="677"/>
      <point x="447" y="641"/>
      <point x="447" y="554" type="curve"/>
      <point x="447" y="462"/>
      <point x="369" y="437"/>
      <point x="278" y="396" type="curve"/>
      <point x="161" y="339"/>
      <point x="65" y="304"/>
      <point x="65" y="177" type="curve"/>
      <point x="65" y="50"/>
      <point x="156" y="-5"/>
      <point x="292" y="-5" type="curve"/>
      <point x="431" y="-5"/>
      <point x="527" y="47"/>
      <point x="527" y="177" type="curve"/>
      <point x="527" y="302"/>
      <point x="432" y="340"/>
      <point x="317" y="395" type="curve"/>
      <point x="226" y="439"/>
      <point x="146" y="462"/>
      <point x="146" y="555" type="curve"/>
      <point x="85" y="555"/>
      <point x="146" y="555"/>
    </contour>
  </outline>
</glyph>
<glyph name="nine" format="1">
  <advance width="614"/>
  <unicode hex="0039"/>
  <outline>
    <contour>
      <point x="506" y="490" type="curve"/>
      <point x="464" y="403"/>
      <point x="403" y="351"/>
      <point x="301" y="351" type="curve"/>
      <point x="193" y="351"/>
      <point x="127" y="409"/>
      <point x="127" y="515" type="curve"/>
      <point x="127" y="616"/>
      <point x="192" y="673"/>
      <point x="294" y="673" type="curve"/>
      <point x="420" y="673"/>
      <point x="495" y="599"/>
      <point x="495" y="475" type="curve"/>
      <point x="495" y="225"/>
      <point x="324" y="99"/>
      <point x="71" y="36" type="curve"/>
      <point x="89" y="-14"/>
      <point x="71" y="36"/>
      <point x="89" y="-14" type="curve"/>
      <point x="363" y="50"/>
      <point x="553" y="197"/>
      <point x="553" y="477" type="curve"/>
      <point x="553" y="636"/>
      <point x="457" y="729"/>
      <point x="296" y="729" type="curve"/>
      <point x="155" y="729"/>
      <point x="67" y="650"/>
      <point x="67" y="512" type="curve"/>
      <point x="67" y="375"/>
      <point x="156" y="301"/>
      <point x="296" y="301" type="curve"/>
      <point x="419" y="301"/>
      <point x="495" y="367"/>
      <point x="537" y="475" type="curve"/>
      <point x="506" y="490"/>
      <point x="537" y="475"/>
    </contour>
  </outline>
</glyph>
<glyph name="colon" format="1">
  <advance width="242"/>
  <unicode hex="003A"/>
  <outline>
    <contour>
      <point x="158" y="247" type="curve"/>
      <point x="158" y="269"/>
      <point x="143" y="280"/>
      <point x="120" y="280" type="curve"/>
      <point x="98" y="280"/>
      <point x="84" y="268"/>
      <point x="84" y="247" type="curve"/>
      <point x="149" y="247"/>
      <point x="93" y="247"/>
      <point x="158" y="247" type="curve"/>
      <point x="158" y="225"/>
      <point x="143" y="214"/>
      <point x="120" y="214" type="curve"/>
      <point x="98" y="214"/>
      <point x="84" y="225"/>
      <point x="84" y="247" type="curve"/>
      <point x="149" y="247"/>
      <point x="93" y="247"/>
    </contour>
    <contour>
      <point x="158" y="186" type="curve"/>
      <point x="158" y="208"/>
      <point x="142" y="219"/>
      <point x="120" y="219" type="curve"/>
      <point x="98" y="219"/>
      <point x="84" y="207"/>
      <point x="84" y="186" type="curve"/>
      <point x="149" y="186"/>
      <point x="93" y="186"/>
      <point x="158" y="186" type="curve"/>
      <point x="158" y="164"/>
      <point x="143" y="153"/>
      <point x="120" y="153" type="curve"/>
      <point x="98" y="153"/>
      <point x="84" y="164"/>
      <point x="84" y="186" type="curve"/>
      <point x="149" y="186"/>
      <point x="93" y="186"/>
    </contour>
  </outline>
</glyph>
<glyph name="semicolon" format="1">
  <advance width="278"/>
  <unicode hex="003B"/>
  <outline>
    <contour>
      <point x="77" y="-119" type="line"/>
      <point x="148" y="-119"/>
      <point x="182" y="-63"/>
      <point x="182" y="0" type="curve"/>
      <point x="182" y="45"/>
      <point x="168" y="80"/>
      <point x="136" y="80" type="curve"/>
      <point x="113" y="80"/>
      <point x="97" y="68"/>
      <point x="97" y="46" type="curve"/>
      <point x="97" y="26"/>
      <point x="110" y="14"/>
      <point x="132" y="10" type="curve"/>
      <point x="132" y="-18"/>
      <point x="130" y="-77"/>
      <point x="77" y="-80" type="curve"/>
    </contour>
    <contour>
      <point x="175" y="413" type="curve"/>
      <point x="175" y="435"/>
      <point x="159" y="447"/>
      <point x="137" y="447" type="curve"/>
      <point x="115" y="447"/>
      <point x="101" y="434"/>
      <point x="101" y="413" type="curve"/>
      <point x="166" y="413"/>
      <point x="110" y="413"/>
      <point x="175" y="413" type="curve"/>
      <point x="175" y="391"/>
      <point x="159" y="380"/>
      <point x="137" y="380" type="curve"/>
      <point x="115" y="380"/>
      <point x="101" y="391"/>
      <point x="101" y="413" type="curve"/>
      <point x="166" y="413"/>
      <point x="110" y="413"/>
    </contour>
  </outline>
</glyph>
<glyph name="less" format="1">
  <advance width="748"/>
  <unicode hex="003C"/>
  <outline>
    <contour>
      <point x="676" y="596" type="curve"/>
      <point x="464" y="506"/>
      <point x="253" y="416"/>
      <point x="41" y="326" type="curve"/>
      <point x="41" y="274"/>
      <point x="41" y="326"/>
      <point x="41" y="274" type="curve"/>
      <point x="253" y="364"/>
      <point x="464" y="454"/>
      <point x="676" y="544" type="curve"/>
      <point x="676" y="596"/>
      <point x="676" y="544"/>
    </contour>
    <contour>
      <point x="687" y="62" type="curve"/>
      <point x="471" y="150"/>
      <point x="256" y="238"/>
      <point x="41" y="326" type="curve"/>
      <point x="41" y="274"/>
      <point x="41" y="326"/>
      <point x="41" y="274" type="curve"/>
      <point x="256" y="186"/>
      <point x="471" y="98"/>
      <point x="687" y="10" type="curve"/>
      <point x="687" y="62"/>
      <point x="687" y="10"/>
    </contour>
  </outline>
</glyph>
<glyph name="equal" format="1">
  <advance width="829"/>
  <unicode hex="003D"/>
  <outline>
    <contour>
      <point x="86" y="192" type="curve"/>
      <point x="305" y="192"/>
      <point x="524" y="192"/>
      <point x="743" y="192" type="curve"/>
      <point x="743" y="243"/>
      <point x="743" y="192"/>
      <point x="743" y="243" type="curve"/>
      <point x="524" y="243"/>
      <point x="305" y="243"/>
      <point x="86" y="243" type="curve"/>
      <point x="86" y="192"/>
      <point x="86" y="243"/>
    </contour>
    <contour>
      <point x="86" y="414" type="curve"/>
      <point x="305" y="414"/>
      <point x="524" y="414"/>
      <point x="743" y="414" type="curve"/>
      <point x="743" y="465"/>
      <point x="743" y="414"/>
      <point x="743" y="465" type="curve"/>
      <point x="524" y="465"/>
      <point x="305" y="465"/>
      <point x="86" y="465" type="curve"/>
      <point x="86" y="414"/>
      <point x="86" y="465"/>
    </contour>
  </outline>
</glyph>
<glyph name="greater" format="1">
  <advance width="748"/>
  <unicode hex="003E"/>
  <outline>
    <contour>
      <point x="71" y="10" type="curve"/>
      <point x="283" y="100"/>
      <point x="495" y="190"/>
      <point x="707" y="280" type="curve"/>
      <point x="707" y="332"/>
      <point x="707" y="280"/>
      <point x="707" y="332" type="curve"/>
      <point x="495" y="242"/>
      <point x="283" y="152"/>
      <point x="71" y="62" type="curve"/>
      <point x="71" y="10"/>
      <point x="71" y="62"/>
    </contour>
    <contour>
      <point x="61" y="544" type="curve"/>
      <point x="276" y="456"/>
      <point x="492" y="368"/>
      <point x="707" y="280" type="curve"/>
      <point x="707" y="332"/>
      <point x="707" y="280"/>
      <point x="707" y="332" type="curve"/>
      <point x="492" y="420"/>
      <point x="276" y="508"/>
      <point x="61" y="596" type="curve"/>
      <point x="61" y="544"/>
      <point x="61" y="596"/>
    </contour>
  </outline>
</glyph>
<glyph name="question" format="1">
  <advance width="521"/>
  <unicode hex="003F"/>
  <outline>
    <contour>
      <point x="199" y="348" type="curve"/>
      <point x="199" y="311"/>
      <point x="199" y="258"/>
      <point x="199" y="221" type="curve"/>
      <point x="258" y="221"/>
      <point x="199" y="221"/>
      <point x="258" y="221" type="curve"/>
      <point x="258" y="258"/>
      <point x="258" y="311"/>
      <point x="258" y="348" type="curve"/>
      <point x="199" y="348"/>
      <point x="258" y="348"/>
    </contour>
    <contour>
      <point x="90" y="610" type="line"/>
      <point x="124" y="645"/>
      <point x="173" y="673"/>
      <point x="235" y="673" type="curve"/>
      <point x="335" y="673"/>
      <point x="402" y="617"/>
      <point x="402" y="519" type="curve"/>
      <point x="402" y="410"/>
      <point x="322" y="348"/>
      <point x="206" y="348" type="curve"/>
      <point x="206" y="325"/>
      <point x="205" y="322"/>
      <point x="205" y="299" type="curve"/>
      <point x="356" y="299"/>
      <point x="460" y="380"/>
      <point x="460" y="519" type="curve"/>
      <point x="460" y="648"/>
      <point x="369" y="723"/>
      <point x="238" y="723" type="curve"/>
      <point x="160" y="723"/>
      <point x="101" y="692"/>
      <point x="57" y="646" type="curve"/>
    </contour>
    <contour>
      <point x="264" y="19" type="curve"/>
      <point x="264" y="40"/>
      <point x="250" y="51"/>
      <point x="229" y="51" type="curve"/>
      <point x="208" y="51"/>
      <point x="194" y="39"/>
      <point x="194" y="19" type="curve"/>
      <point x="264" y="19"/>
      <point x="194" y="19"/>
      <point x="264" y="19" type="curve"/>
      <point x="264" y="-2"/>
      <point x="250" y="-12"/>
      <point x="229" y="-12" type="curve"/>
      <point x="207" y="-12"/>
      <point x="194" y="-1"/>
      <point x="194" y="19" type="curve"/>
      <point x="264" y="19"/>
      <point x="194" y="19"/>
    </contour>
  </outline>
</glyph>
<glyph name="B" format="1">
  <advance width="700"/>
  <unicode hex="0042"/>
  <outline>
    <contour>
      <point x="194" y="722" type="curve"/>
      <point x="144" y="722"/>
      <point x="100" y="722"/>
      <point x="50" y="722" type="curve"/>
      <point x="50" y="674"/>
      <point x="50" y="722"/>
      <point x="50" y="674" type="curve"/>
      <point x="201" y="674"/>
      <point x="43" y="674"/>
      <point x="194" y="674" type="curve"/>
      <point x="194" y="722"/>
      <point x="194" y="674"/>
    </contour>
    <contour>
      <point x="193" y="48" type="curve"/>
      <point x="42" y="48"/>
      <point x="200" y="48"/>
      <point x="49" y="48" type="curve"/>
      <point x="49" y="0"/>
      <point x="49" y="48"/>
      <point x="49" y="0" type="curve"/>
      <point x="99" y="0"/>
      <point x="143" y="0"/>
      <point x="193" y="0" type="curve"/>
      <point x="193" y="48"/>
      <point x="193" y="0"/>
    </contour>
    <contour>
      <point x="183" y="674" type="curve"/>
      <point x="255" y="674"/>
      <point x="320" y="674"/>
      <point x="393" y="674" type="curve"/>
      <point x="476" y="674"/>
      <point x="531" y="631"/>
      <point x="531" y="548" type="curve"/>
      <point x="531" y="466"/>
      <point x="458" y="432"/>
      <point x="370" y="432" type="curve"/>
      <point x="305" y="432"/>
      <point x="248" y="432"/>
      <point x="183" y="432" type="curve"/>
      <point x="183" y="398"/>
      <point x="183" y="418"/>
      <point x="183" y="384" type="curve"/>
      <point x="238" y="384"/>
      <point x="289" y="384"/>
      <point x="344" y="384" type="curve"/>
      <point x="467" y="384"/>
      <point x="591" y="426"/>
      <point x="591" y="548" type="curve"/>
      <point x="591" y="662"/>
      <point x="513" y="722"/>
      <point x="394" y="722" type="curve"/>
      <point x="321" y="722"/>
      <point x="256" y="722"/>
      <point x="183" y="722" type="curve"/>
      <point x="183" y="688"/>
      <point x="183" y="708"/>
    </contour>
    <contour>
      <point x="224" y="0" type="curve"/>
      <point x="224" y="241"/>
      <point x="224" y="481"/>
      <point x="224" y="722" type="curve"/>
      <point x="161" y="722"/>
      <point x="224" y="722"/>
      <point x="161" y="722" type="curve"/>
      <point x="161" y="481"/>
      <point x="161" y="241"/>
      <point x="161" y="0" type="curve"/>
      <point x="224" y="0"/>
      <point x="161" y="0"/>
    </contour>
    <contour>
      <point x="183" y="384" type="curve"/>
      <point x="248" y="384"/>
      <point x="305" y="384"/>
      <point x="370" y="384" type="curve"/>
      <point x="493" y="384"/>
      <point x="580" y="330"/>
      <point x="580" y="210" type="curve"/>
      <point x="580" y="102"/>
      <point x="507" y="48"/>
      <point x="392" y="48" type="curve"/>
      <point x="319" y="48"/>
      <point x="255" y="48"/>
      <point x="183" y="48" type="curve"/>
      <point x="183" y="14"/>
      <point x="183" y="34"/>
      <point x="183" y="0" type="curve"/>
      <point x="256" y="0"/>
      <point x="320" y="0"/>
      <point x="394" y="0" type="curve"/>
      <point x="542" y="0"/>
      <point x="641" y="69"/>
      <point x="641" y="210" type="curve"/>
      <point x="641" y="369"/>
      <point x="503" y="432"/>
      <point x="345" y="432" type="curve"/>
      <point x="289" y="432"/>
      <point x="238" y="432"/>
      <point x="183" y="432" type="curve"/>
      <point x="183" y="398"/>
      <point x="183" y="418"/>
    </contour>
  </outline>
</glyph>
<glyph name="D" format="1">
  <advance width="812"/>
  <unicode hex="0044"/>
  <outline>
    <contour>
      <point x="195" y="48" type="curve"/>
      <point x="44" y="48"/>
      <point x="202" y="48"/>
      <point x="50" y="48" type="curve"/>
      <point x="50" y="0"/>
      <point x="50" y="48"/>
      <point x="50" y="0" type="curve"/>
      <point x="101" y="0"/>
      <point x="145" y="0"/>
      <point x="195" y="0" type="curve"/>
      <point x="195" y="48"/>
      <point x="195" y="0"/>
    </contour>
    <contour>
      <point x="195" y="722" type="curve"/>
      <point x="145" y="722"/>
      <point x="101" y="722"/>
      <point x="50" y="722" type="curve"/>
      <point x="50" y="674"/>
      <point x="50" y="722"/>
      <point x="50" y="674" type="curve"/>
      <point x="202" y="674"/>
      <point x="44" y="674"/>
      <point x="195" y="674" type="curve"/>
      <point x="195" y="722"/>
      <point x="195" y="674"/>
    </contour>
    <contour>
      <point x="163" y="722" type="curve"/>
      <point x="163" y="481"/>
      <point x="163" y="241"/>
      <point x="163" y="0" type="curve"/>
      <point x="224" y="0"/>
      <point x="163" y="0"/>
      <point x="224" y="0" type="curve"/>
      <point x="224" y="241"/>
      <point x="224" y="481"/>
      <point x="224" y="722" type="curve"/>
      <point x="163" y="722"/>
      <point x="224" y="722"/>
    </contour>
    <contour>
      <point x="195" y="0" type="curve"/>
      <point x="264" y="0"/>
      <point x="326" y="0"/>
      <point x="395" y="0" type="curve"/>
      <point x="626" y="0"/>
      <point x="750" y="123"/>
      <point x="750" y="353" type="curve"/>
      <point x="750" y="592"/>
      <point x="623" y="722"/>
      <point x="384" y="722" type="curve"/>
      <point x="319" y="722"/>
      <point x="260" y="722"/>
      <point x="195" y="722" type="curve"/>
      <point x="195" y="679"/>
      <point x="195" y="717"/>
      <point x="195" y="674" type="curve"/>
      <point x="259" y="674"/>
      <point x="318" y="674"/>
      <point x="381" y="674" type="curve"/>
      <point x="586" y="674"/>
      <point x="691" y="558"/>
      <point x="691" y="352" type="curve"/>
      <point x="691" y="157"/>
      <point x="593" y="48"/>
      <point x="400" y="48" type="curve"/>
      <point x="330" y="48"/>
      <point x="265" y="48"/>
      <point x="195" y="48" type="curve"/>
      <point x="195" y="5"/>
      <point x="195" y="43"/>
    </contour>
    <contour>
      <point x="366" y="812" type="move" name="top"/>
    </contour>
  </outline>
</glyph>
<glyph name="F" format="1">
  <advance width="656"/>
  <unicode hex="0046"/>
  <outline>
    <contour>
      <point x="194" y="0" type="curve"/>
      <point x="244" y="0"/>
      <point x="194" y="0"/>
      <point x="346" y="0" type="curve"/>
      <point x="346" y="48"/>
      <point x="346" y="0"/>
      <point x="346" y="48" type="curve"/>
      <point x="194" y="48"/>
      <point x="346" y="48"/>
      <point x="194" y="48" type="curve"/>
      <point x="194" y="0"/>
      <point x="194" y="48"/>
    </contour>
    <contour>
      <point x="194" y="722" type="curve"/>
      <point x="144" y="722"/>
      <point x="100" y="722"/>
      <point x="49" y="722" type="curve"/>
      <point x="49" y="674"/>
      <point x="49" y="722"/>
      <point x="49" y="674" type="curve"/>
      <point x="201" y="674"/>
      <point x="42" y="674"/>
      <point x="194" y="674" type="curve"/>
      <point x="194" y="722"/>
      <point x="194" y="674"/>
    </contour>
    <contour>
      <point x="194" y="48" type="curve"/>
      <point x="42" y="48"/>
      <point x="201" y="48"/>
      <point x="49" y="48" type="curve"/>
      <point x="49" y="0"/>
      <point x="49" y="48"/>
      <point x="49" y="0" type="curve"/>
      <point x="100" y="0"/>
      <point x="144" y="0"/>
      <point x="194" y="0" type="curve"/>
      <point x="194" y="48"/>
      <point x="194" y="0"/>
    </contour>
    <contour>
      <point x="561" y="698" type="curve"/>
      <point x="561" y="578"/>
      <point x="561" y="701"/>
      <point x="561" y="581" type="curve"/>
      <point x="611" y="581"/>
      <point x="561" y="581"/>
      <point x="611" y="581" type="curve"/>
      <point x="611" y="701"/>
      <point x="611" y="578"/>
      <point x="611" y="698" type="curve"/>
      <point x="561" y="698"/>
      <point x="611" y="698"/>
    </contour>
    <contour>
      <point x="198" y="350" type="curve"/>
      <point x="310" y="350"/>
      <point x="422" y="350"/>
      <point x="534" y="350" type="curve"/>
      <point x="534" y="398"/>
      <point x="534" y="350"/>
      <point x="534" y="398" type="curve"/>
      <point x="422" y="398"/>
      <point x="310" y="398"/>
      <point x="198" y="398" type="curve"/>
      <point x="198" y="350"/>
      <point x="198" y="398"/>
    </contour>
    <contour>
      <point x="224" y="0" type="curve"/>
      <point x="224" y="722" type="line"/>
      <point x="164" y="722"/>
      <point x="224" y="722"/>
      <point x="164" y="722" type="curve"/>
      <point x="164" y="481"/>
      <point x="164" y="241"/>
      <point x="164" y="0" type="curve"/>
      <point x="224" y="0"/>
      <point x="164" y="0"/>
    </contour>
    <contour>
      <point x="182" y="674" type="curve"/>
      <point x="325" y="674"/>
      <point x="468" y="674"/>
      <point x="611" y="674" type="curve"/>
      <point x="611" y="722"/>
      <point x="611" y="674"/>
      <point x="611" y="722" type="curve"/>
      <point x="468" y="722"/>
      <point x="325" y="722"/>
      <point x="182" y="722" type="curve"/>
      <point x="182" y="674"/>
      <point x="182" y="722"/>
    </contour>
  </outline>
</glyph>
<glyph name="G" format="1">
  <advance width="809"/>
  <unicode hex="0047"/>
  <outline>
    <contour>
      <point x="673" y="643" type="curve"/>
      <point x="673" y="520"/>
      <point x="673" y="640"/>
      <point x="673" y="518" type="curve"/>
      <point x="721" y="518"/>
      <point x="673" y="518"/>
      <point x="721" y="518" type="curve"/>
      <point x="721" y="640"/>
      <point x="721" y="520"/>
      <point x="721" y="643" type="curve"/>
      <point x="673" y="643"/>
      <point x="721" y="643"/>
    </contour>
    <contour>
      <point x="721" y="334" type="curve"/>
      <point x="645" y="334"/>
      <point x="568" y="334"/>
      <point x="492" y="334" type="curve"/>
      <point x="492" y="286"/>
      <point x="492" y="334"/>
      <point x="492" y="286" type="curve"/>
      <point x="568" y="286"/>
      <point x="645" y="286"/>
      <point x="721" y="286" type="curve"/>
      <point x="721" y="334"/>
      <point x="721" y="286"/>
    </contour>
    <contour>
      <point x="739" y="78" type="curve"/>
      <point x="739" y="163"/>
      <point x="739" y="248"/>
      <point x="739" y="334" type="curve"/>
      <point x="684" y="334"/>
      <point x="739" y="334"/>
      <point x="684" y="334" type="curve"/>
      <point x="684" y="248"/>
      <point x="684" y="163"/>
      <point x="684" y="78" type="curve"/>
      <point x="739" y="78"/>
      <point x="684" y="78"/>
    </contour>
    <contour>
      <point x="721" y="643" type="curve"/>
      <point x="625" y="701"/>
      <point x="537" y="727"/>
      <point x="424" y="727" type="curve"/>
      <point x="194" y="727"/>
      <point x="63" y="595"/>
      <point x="63" y="363" type="curve"/>
      <point x="63" y="127"/>
      <point x="200" y="-5"/>
      <point x="435" y="-5" type="curve"/>
      <point x="556" y="-5"/>
      <point x="633" y="22"/>
      <point x="739" y="78" type="curve"/>
      <point x="708" y="114"/>
      <point x="739" y="78"/>
      <point x="708" y="114" type="curve"/>
      <point x="619" y="68"/>
      <point x="542" y="46"/>
      <point x="436" y="46" type="curve"/>
      <point x="234" y="46"/>
      <point x="123" y="164"/>
      <point x="123" y="368" type="curve"/>
      <point x="123" y="562"/>
      <point x="232" y="677"/>
      <point x="424" y="677" type="curve"/>
      <point x="525" y="677"/>
      <point x="604" y="653"/>
      <point x="691" y="603" type="curve"/>
      <point x="721" y="643"/>
      <point x="691" y="603"/>
    </contour>
    <contour>
      <point x="423" y="812" type="move" name="top"/>
    </contour>
    <contour>
      <point x="452" y="-23" type="move" name="bottom"/>
    </contour>
  </outline>
</glyph>
<glyph name="H" format="1">
  <advance width="899"/>
  <unicode hex="0048"/>
  <outline>
    <contour>
      <point x="713" y="674" type="curve"/>
      <point x="869" y="674"/>
      <point x="702" y="674"/>
      <point x="858" y="674" type="curve"/>
      <point x="858" y="722"/>
      <point x="858" y="674"/>
      <point x="858" y="722" type="curve"/>
      <point x="806" y="722"/>
      <point x="765" y="722"/>
      <point x="713" y="722" type="curve"/>
      <point x="713" y="674"/>
      <point x="713" y="722"/>
    </contour>
    <contour>
      <point x="713" y="0" type="curve"/>
      <point x="765" y="0"/>
      <point x="806" y="0"/>
      <point x="858" y="0" type="curve"/>
      <point x="858" y="48"/>
      <point x="858" y="0"/>
      <point x="858" y="48" type="curve"/>
      <point x="702" y="48"/>
      <point x="869" y="48"/>
      <point x="713" y="48" type="curve"/>
      <point x="713" y="0"/>
      <point x="713" y="48"/>
    </contour>
    <contour>
      <point x="713" y="48" type="curve"/>
      <point x="557" y="48"/>
      <point x="724" y="48"/>
      <point x="568" y="48" type="curve"/>
      <point x="568" y="0"/>
      <point x="568" y="48"/>
      <point x="568" y="0" type="curve"/>
      <point x="620" y="0"/>
      <point x="661" y="0"/>
      <point x="713" y="0" type="curve"/>
      <point x="713" y="48"/>
      <point x="713" y="0"/>
    </contour>
    <contour>
      <point x="713" y="722" type="curve"/>
      <point x="661" y="722"/>
      <point x="620" y="722"/>
      <point x="568" y="722" type="curve"/>
      <point x="568" y="674"/>
      <point x="568" y="722"/>
      <point x="568" y="674" type="curve"/>
      <point x="724" y="674"/>
      <point x="557" y="674"/>
      <point x="713" y="674" type="curve"/>
      <point x="713" y="722"/>
      <point x="713" y="674"/>
    </contour>
    <contour>
      <point x="186" y="674" type="curve"/>
      <point x="342" y="674"/>
      <point x="175" y="674"/>
      <point x="331" y="674" type="curve"/>
      <point x="331" y="722"/>
      <point x="331" y="674"/>
      <point x="331" y="722" type="curve"/>
      <point x="279" y="722"/>
      <point x="238" y="722"/>
      <point x="186" y="722" type="curve"/>
      <point x="186" y="674"/>
      <point x="186" y="722"/>
    </contour>
    <contour>
      <point x="186" y="722" type="curve"/>
      <point x="135" y="722"/>
      <point x="94" y="722"/>
      <point x="42" y="722" type="curve"/>
      <point x="42" y="674"/>
      <point x="42" y="722"/>
      <point x="42" y="674" type="curve"/>
      <point x="198" y="674"/>
      <point x="30" y="674"/>
      <point x="186" y="674" type="curve"/>
      <point x="186" y="722"/>
      <point x="186" y="674"/>
    </contour>
    <contour>
      <point x="186" y="0" type="curve"/>
      <point x="238" y="0"/>
      <point x="175" y="0"/>
      <point x="331" y="0" type="curve"/>
      <point x="331" y="48"/>
      <point x="331" y="0"/>
      <point x="331" y="48" type="curve"/>
      <point x="175" y="48"/>
      <point x="342" y="48"/>
      <point x="186" y="48" type="curve"/>
      <point x="186" y="0"/>
      <point x="186" y="48"/>
    </contour>
    <contour>
      <point x="186" y="48" type="curve"/>
      <point x="30" y="48"/>
      <point x="198" y="48"/>
      <point x="42" y="48" type="curve"/>
      <point x="42" y="0"/>
      <point x="42" y="48"/>
      <point x="42" y="0" type="curve"/>
      <point x="94" y="0"/>
      <point x="135" y="0"/>
      <point x="186" y="0" type="curve"/>
      <point x="186" y="48"/>
      <point x="186" y="0"/>
    </contour>
    <contour>
      <point x="217" y="0" type="curve"/>
      <point x="217" y="722" type="line"/>
      <point x="156" y="722"/>
      <point x="217" y="722"/>
      <point x="156" y="722" type="curve"/>
      <point x="156" y="481"/>
      <point x="156" y="241"/>
      <point x="156" y="0" type="curve"/>
      <point x="217" y="0"/>
      <point x="156" y="0"/>
    </contour>
    <contour>
      <point x="710" y="387" type="curve"/>
      <point x="535" y="387"/>
      <point x="361" y="387"/>
      <point x="186" y="387" type="curve"/>
      <point x="186" y="339"/>
      <point x="186" y="387"/>
      <point x="186" y="339" type="curve"/>
      <point x="361" y="339"/>
      <point x="535" y="339"/>
      <point x="710" y="339" type="curve"/>
      <point x="710" y="387"/>
      <point x="710" y="339"/>
    </contour>
    <contour>
      <point x="742" y="14" type="curve"/>
      <point x="742" y="245"/>
      <point x="742" y="477"/>
      <point x="742" y="708" type="curve"/>
      <point x="682" y="708"/>
      <point x="742" y="708"/>
      <point x="682" y="708" type="curve"/>
      <point x="682" y="14" type="line"/>
      <point x="742" y="14"/>
      <point x="682" y="14"/>
    </contour>
  </outline>
</glyph>
<glyph name="I" format="1">
  <advance width="373"/>
  <unicode hex="0049"/>
  <outline>
    <contour>
      <point x="187" y="722" type="curve"/>
      <point x="135" y="722"/>
      <point x="94" y="722"/>
      <point x="42" y="722" type="curve"/>
      <point x="42" y="674"/>
      <point x="42" y="722"/>
      <point x="42" y="674" type="curve"/>
      <point x="198" y="674"/>
      <point x="31" y="674"/>
      <point x="187" y="674" type="curve"/>
      <point x="187" y="722"/>
      <point x="187" y="674"/>
    </contour>
    <contour>
      <point x="187" y="674" type="curve"/>
      <point x="343" y="674"/>
      <point x="176" y="674"/>
      <point x="332" y="674" type="curve"/>
      <point x="332" y="722"/>
      <point x="332" y="674"/>
      <point x="332" y="722" type="curve"/>
      <point x="279" y="722"/>
      <point x="239" y="722"/>
      <point x="187" y="722" type="curve"/>
      <point x="187" y="674"/>
      <point x="187" y="722"/>
    </contour>
    <contour>
      <point x="187" y="0" type="curve"/>
      <point x="239" y="0"/>
      <point x="279" y="0"/>
      <point x="332" y="0" type="curve"/>
      <point x="332" y="48"/>
      <point x="332" y="0"/>
      <point x="332" y="48" type="curve"/>
      <point x="176" y="48"/>
      <point x="343" y="48"/>
      <point x="187" y="48" type="curve"/>
      <point x="187" y="0"/>
      <point x="187" y="48"/>
    </contour>
    <contour>
      <point x="187" y="48" type="curve"/>
      <point x="31" y="48"/>
      <point x="198" y="48"/>
      <point x="42" y="48" type="curve"/>
      <point x="42" y="0"/>
      <point x="42" y="48"/>
      <point x="42" y="0" type="curve"/>
      <point x="94" y="0"/>
      <point x="135" y="0"/>
      <point x="187" y="0" type="curve"/>
      <point x="187" y="48"/>
      <point x="187" y="0"/>
    </contour>
    <contour>
      <point x="216" y="0" type="curve"/>
      <point x="216" y="241"/>
      <point x="216" y="481"/>
      <point x="216" y="722" type="curve"/>
      <point x="156" y="722"/>
      <point x="216" y="722"/>
      <point x="156" y="722" type="curve"/>
      <point x="156" y="481"/>
      <point x="156" y="241"/>
      <point x="156" y="0" type="curve"/>
      <point x="216" y="0"/>
      <point x="156" y="0"/>
    </contour>
    <contour>
      <point x="187" y="812" type="move" name="top"/>
    </contour>
    <contour>
      <point x="214" y="1" type="move" name="bottom"/>
    </contour>
  </outline>
</glyph>
<glyph name="J" format="1">
  <advance width="498"/>
  <unicode hex="004A"/>
  <outline>
    <contour>
      <point x="335" y="722" type="curve"/>
      <point x="284" y="722"/>
      <point x="245" y="722"/>
      <point x="194" y="722" type="curve"/>
      <point x="194" y="674"/>
      <point x="194" y="722"/>
      <point x="194" y="674" type="curve"/>
      <point x="346" y="674"/>
      <point x="183" y="674"/>
      <point x="335" y="674" type="curve"/>
      <point x="335" y="722"/>
      <point x="335" y="674"/>
    </contour>
    <contour>
      <point x="335" y="674" type="curve"/>
      <point x="483" y="674"/>
      <point x="324" y="674"/>
      <point x="472" y="674" type="curve"/>
      <point x="472" y="722"/>
      <point x="472" y="674"/>
      <point x="472" y="722" type="curve"/>
      <point x="423" y="722"/>
      <point x="384" y="722"/>
      <point x="335" y="722" type="curve"/>
      <point x="335" y="674"/>
      <point x="335" y="722"/>
    </contour>
    <contour>
      <point x="22" y="42" type="curve"/>
      <point x="55" y="20"/>
      <point x="99" y="-3"/>
      <point x="155" y="-3" type="curve"/>
      <point x="293" y="-3"/>
      <point x="364" y="79"/>
      <point x="364" y="225" type="curve"/>
      <point x="364" y="398"/>
      <point x="364" y="549"/>
      <point x="364" y="722" type="curve"/>
      <point x="308" y="722"/>
      <point x="359" y="722"/>
      <point x="303" y="722" type="curve"/>
      <point x="303" y="549"/>
      <point x="303" y="398"/>
      <point x="303" y="225" type="curve"/>
      <point x="303" y="117"/>
      <point x="258" y="45"/>
      <point x="155" y="45" type="curve"/>
      <point x="112" y="45"/>
      <point x="83" y="61"/>
      <point x="50" y="80" type="curve"/>
      <point x="24" y="46"/>
      <point x="47" y="76"/>
    </contour>
  </outline>
</glyph>
<glyph name="K" format="1">
  <advance width="754"/>
  <unicode hex="004B"/>
  <outline>
    <contour>
      <point x="585" y="722" type="curve"/>
      <point x="532" y="722"/>
      <point x="478" y="722"/>
      <point x="425" y="722" type="curve"/>
      <point x="425" y="674"/>
      <point x="425" y="722"/>
      <point x="425" y="674" type="curve"/>
      <point x="583" y="674"/>
      <point x="428" y="674"/>
      <point x="585" y="674" type="curve"/>
      <point x="585" y="722"/>
      <point x="585" y="674"/>
    </contour>
    <contour>
      <point x="605" y="0" type="curve"/>
      <point x="658" y="0"/>
      <point x="685" y="0"/>
      <point x="738" y="0" type="curve"/>
      <point x="738" y="48"/>
      <point x="738" y="0"/>
      <point x="738" y="48" type="curve"/>
      <point x="578" y="48"/>
      <point x="765" y="48"/>
      <point x="605" y="48" type="curve"/>
      <point x="605" y="0"/>
      <point x="605" y="48"/>
    </contour>
    <contour>
      <point x="581" y="674" type="curve"/>
      <point x="732" y="674"/>
      <point x="558" y="674"/>
      <point x="709" y="674" type="curve"/>
      <point x="709" y="722"/>
      <point x="709" y="674"/>
      <point x="709" y="722" type="curve"/>
      <point x="658" y="722"/>
      <point x="631" y="722"/>
      <point x="581" y="722" type="curve"/>
      <point x="581" y="674"/>
      <point x="581" y="722"/>
    </contour>
    <contour>
      <point x="186" y="722" type="curve"/>
      <point x="134" y="722"/>
      <point x="94" y="722"/>
      <point x="42" y="722" type="curve"/>
      <point x="42" y="674"/>
      <point x="42" y="722"/>
      <point x="42" y="674" type="curve"/>
      <point x="197" y="674"/>
      <point x="30" y="674"/>
      <point x="186" y="674" type="curve"/>
      <point x="186" y="722"/>
      <point x="186" y="674"/>
    </contour>
    <contour>
      <point x="186" y="674" type="curve"/>
      <point x="339" y="674"/>
      <point x="168" y="674"/>
      <point x="321" y="674" type="curve"/>
      <point x="321" y="722"/>
      <point x="321" y="674"/>
      <point x="321" y="722" type="curve"/>
      <point x="270" y="722"/>
      <point x="237" y="722"/>
      <point x="186" y="722" type="curve"/>
      <point x="186" y="674"/>
      <point x="186" y="722"/>
    </contour>
    <contour>
      <point x="186" y="0" type="curve"/>
      <point x="239" y="0"/>
      <point x="166" y="0"/>
      <point x="325" y="0" type="curve"/>
      <point x="325" y="48"/>
      <point x="325" y="0"/>
      <point x="325" y="48" type="curve"/>
      <point x="166" y="48"/>
      <point x="344" y="48"/>
      <point x="186" y="48" type="curve"/>
      <point x="186" y="0"/>
      <point x="186" y="48"/>
    </contour>
    <contour>
      <point x="186" y="48" type="curve"/>
      <point x="30" y="48"/>
      <point x="197" y="48"/>
      <point x="42" y="48" type="curve"/>
      <point x="42" y="0"/>
      <point x="42" y="48"/>
      <point x="42" y="0" type="curve"/>
      <point x="94" y="0"/>
      <point x="134" y="0"/>
      <point x="186" y="0" type="curve"/>
      <point x="186" y="48"/>
      <point x="186" y="0"/>
    </contour>
    <contour>
      <point x="569" y="722" type="curve"/>
      <point x="196" y="380" type="line"/>
      <point x="273" y="380"/>
      <point x="196" y="380"/>
      <point x="273" y="380" type="curve"/>
      <point x="632" y="706" type="line"/>
      <point x="556" y="706"/>
      <point x="646" y="722"/>
    </contour>
    <contour>
      <point x="216" y="0" type="curve"/>
      <point x="216" y="722" type="line"/>
      <point x="156" y="722"/>
      <point x="216" y="722"/>
      <point x="156" y="722" type="curve"/>
      <point x="156" y="481"/>
      <point x="156" y="241"/>
      <point x="156" y="0" type="curve"/>
      <point x="216" y="0"/>
      <point x="156" y="0"/>
    </contour>
    <contour>
      <point x="661" y="15" type="curve"/>
      <point x="273" y="380" type="line"/>
      <point x="196" y="380"/>
      <point x="273" y="380"/>
      <point x="196" y="380" type="curve"/>
      <point x="593" y="0" type="line"/>
      <point x="675" y="0"/>
      <point x="580" y="15"/>
    </contour>
    <contour>
      <point x="425" y="-25" type="move" name="bottom"/>
    </contour>
  </outline>
</glyph>
<glyph name="M" format="1">
  <advance width="1052"/>
  <unicode hex="004D"/>
  <outline>
    <contour>
      <point x="884" y="0" type="curve"/>
      <point x="936" y="0"/>
      <point x="977" y="0"/>
      <point x="1028" y="0" type="curve"/>
      <point x="1028" y="48"/>
      <point x="1028" y="0"/>
      <point x="1028" y="48" type="curve"/>
      <point x="873" y="48"/>
      <point x="1039" y="48"/>
      <point x="884" y="48" type="curve"/>
      <point x="884" y="0"/>
      <point x="884" y="48"/>
    </contour>
    <contour>
      <point x="884" y="48" type="curve"/>
      <point x="731" y="48"/>
      <point x="896" y="48"/>
      <point x="742" y="48" type="curve"/>
      <point x="742" y="0"/>
      <point x="742" y="48"/>
      <point x="742" y="0" type="curve"/>
      <point x="793" y="0"/>
      <point x="833" y="0"/>
      <point x="884" y="0" type="curve"/>
      <point x="884" y="48"/>
      <point x="884" y="0"/>
    </contour>
    <contour>
      <point x="168" y="48" type="curve"/>
      <point x="14" y="48"/>
      <point x="180" y="48"/>
      <point x="25" y="48" type="curve"/>
      <point x="25" y="0"/>
      <point x="25" y="48"/>
      <point x="25" y="0" type="curve"/>
      <point x="76" y="0"/>
      <point x="117" y="0"/>
      <point x="168" y="0" type="curve"/>
      <point x="168" y="48"/>
      <point x="168" y="0"/>
    </contour>
    <contour>
      <point x="229" y="722" type="curve"/>
      <point x="177" y="722"/>
      <point x="136" y="722"/>
      <point x="85" y="722" type="curve"/>
      <point x="85" y="674"/>
      <point x="85" y="722"/>
      <point x="85" y="674" type="curve"/>
      <point x="240" y="674"/>
      <point x="74" y="674"/>
      <point x="229" y="674" type="curve"/>
      <point x="229" y="722"/>
      <point x="229" y="674"/>
    </contour>
    <contour>
      <point x="822" y="674" type="curve"/>
      <point x="977" y="674"/>
      <point x="811" y="674"/>
      <point x="966" y="674" type="curve"/>
      <point x="966" y="722"/>
      <point x="966" y="674"/>
      <point x="966" y="722" type="curve"/>
      <point x="914" y="722"/>
      <point x="874" y="722"/>
      <point x="822" y="722" type="curve"/>
      <point x="822" y="674"/>
      <point x="822" y="722"/>
    </contour>
    <contour>
      <point x="168" y="0" type="curve"/>
      <point x="219" y="0"/>
      <point x="157" y="0"/>
      <point x="311" y="0" type="curve"/>
      <point x="311" y="48"/>
      <point x="311" y="0"/>
      <point x="311" y="48" type="curve"/>
      <point x="157" y="48"/>
      <point x="322" y="48"/>
      <point x="168" y="48" type="curve"/>
      <point x="168" y="0"/>
      <point x="168" y="48"/>
    </contour>
    <contour>
      <point x="916" y="0" type="curve"/>
      <point x="895" y="241"/>
      <point x="871" y="481"/>
      <point x="850" y="722" type="curve"/>
      <point x="795" y="722"/>
      <point x="850" y="722"/>
      <point x="795" y="722" type="curve"/>
      <point x="816" y="481"/>
      <point x="835" y="241"/>
      <point x="856" y="0" type="curve"/>
      <point x="916" y="0"/>
      <point x="856" y="0"/>
    </contour>
    <contour>
      <point x="195" y="0" type="curve"/>
      <point x="215" y="241"/>
      <point x="234" y="481"/>
      <point x="254" y="722" type="curve"/>
      <point x="199" y="722"/>
      <point x="254" y="722"/>
      <point x="199" y="722" type="curve"/>
      <point x="178" y="481"/>
      <point x="157" y="241"/>
      <point x="137" y="0" type="curve"/>
      <point x="195" y="0"/>
      <point x="137" y="0"/>
    </contour>
    <contour>
      <point x="551" y="0" type="curve"/>
      <point x="454" y="241"/>
      <point x="356" y="481"/>
      <point x="257" y="722" type="curve"/>
      <point x="201" y="722"/>
      <point x="256" y="722"/>
      <point x="201" y="722" type="curve"/>
      <point x="298" y="481"/>
      <point x="396" y="241"/>
      <point x="493" y="0" type="curve"/>
      <point x="550" y="0"/>
      <point x="494" y="0"/>
    </contour>
    <contour>
      <point x="560" y="0" type="curve"/>
      <point x="656" y="241"/>
      <point x="751" y="481"/>
      <point x="847" y="722" type="curve"/>
      <point x="791" y="722"/>
      <point x="846" y="722"/>
      <point x="791" y="722" type="curve"/>
      <point x="693" y="481"/>
      <point x="597" y="241"/>
      <point x="501" y="0" type="curve"/>
      <point x="559" y="0"/>
      <point x="501" y="0"/>
    </contour>
  </outline>
</glyph>
<glyph name="P" format="1">
  <advance width="655"/>
  <unicode hex="0050"/>
  <outline>
    <contour>
      <point x="195" y="722" type="curve"/>
      <point x="145" y="722"/>
      <point x="101" y="722"/>
      <point x="50" y="722" type="curve"/>
      <point x="50" y="674"/>
      <point x="50" y="722"/>
      <point x="50" y="674" type="curve"/>
      <point x="202" y="674"/>
      <point x="43" y="674"/>
      <point x="195" y="674" type="curve"/>
      <point x="195" y="722"/>
      <point x="195" y="674"/>
    </contour>
    <contour>
      <point x="195" y="48" type="curve"/>
      <point x="43" y="48"/>
      <point x="202" y="48"/>
      <point x="50" y="48" type="curve"/>
      <point x="50" y="0"/>
      <point x="50" y="48"/>
      <point x="50" y="0" type="curve"/>
      <point x="101" y="0"/>
      <point x="145" y="0"/>
      <point x="195" y="0" type="curve"/>
      <point x="195" y="48"/>
      <point x="195" y="0"/>
    </contour>
    <contour>
      <point x="195" y="0" type="curve"/>
      <point x="245" y="0"/>
      <point x="188" y="0"/>
      <point x="339" y="0" type="curve"/>
      <point x="339" y="48"/>
      <point x="339" y="0"/>
      <point x="339" y="48" type="curve"/>
      <point x="188" y="48"/>
      <point x="346" y="48"/>
      <point x="195" y="48" type="curve"/>
      <point x="195" y="0"/>
      <point x="195" y="48"/>
    </contour>
    <contour>
      <point x="187" y="316" type="curve"/>
      <point x="242" y="290"/>
      <point x="300" y="271"/>
      <point x="364" y="271" type="curve"/>
      <point x="507" y="273"/>
      <point x="603" y="347"/>
      <point x="603" y="490" type="curve"/>
      <point x="603" y="639"/>
      <point x="491" y="722"/>
      <point x="334" y="722" type="curve"/>
      <point x="289" y="722"/>
      <point x="243" y="722"/>
      <point x="198" y="722" type="curve"/>
      <point x="198" y="674"/>
      <point x="198" y="722"/>
      <point x="198" y="674" type="curve"/>
      <point x="241" y="674"/>
      <point x="283" y="674"/>
      <point x="326" y="674" type="curve"/>
      <point x="453" y="674"/>
      <point x="542" y="610"/>
      <point x="542" y="490" type="curve"/>
      <point x="542" y="381"/>
      <point x="469" y="318"/>
      <point x="360" y="318" type="curve"/>
      <point x="301" y="318"/>
      <point x="259" y="333"/>
      <point x="206" y="359" type="curve"/>
      <point x="187" y="317"/>
      <point x="206" y="358"/>
    </contour>
    <contour>
      <point x="224" y="0" type="curve"/>
      <point x="224" y="241"/>
      <point x="224" y="481"/>
      <point x="224" y="722" type="curve"/>
      <point x="163" y="722"/>
      <point x="224" y="722"/>
      <point x="163" y="722" type="curve"/>
      <point x="163" y="481"/>
      <point x="163" y="241"/>
      <point x="163" y="0" type="curve"/>
      <point x="224" y="0"/>
      <point x="163" y="0"/>
    </contour>
  </outline>
</glyph>
<glyph name="Q" format="1">
  <advance width="821"/>
  <unicode hex="0051"/>
  <outline>
    <contour>
      <point x="379" y="11" type="curve"/>
      <point x="489" y="-170"/>
      <point x="616" y="-231"/>
      <point x="817" y="-231" type="curve"/>
      <point x="817" y="-181"/>
      <point x="817" y="-231"/>
      <point x="817" y="-181" type="curve"/>
      <point x="640" y="-181"/>
      <point x="530" y="-126"/>
      <point x="431" y="35" type="curve"/>
      <point x="379" y="11"/>
      <point x="431" y="35"/>
    </contour>
    <contour>
      <point x="125" y="360" type="curve"/>
      <point x="125" y="545"/>
      <point x="217" y="675"/>
      <point x="395" y="675" type="curve"/>
      <point x="573" y="675"/>
      <point x="667" y="547"/>
      <point x="667" y="362" type="curve"/>
      <point x="667" y="177"/>
      <point x="577" y="46"/>
      <point x="399" y="46" type="curve"/>
      <point x="218" y="46"/>
      <point x="125" y="174"/>
      <point x="125" y="360" type="curve"/>
      <point x="64" y="360"/>
      <point x="125" y="360"/>
      <point x="64" y="360" type="curve"/>
      <point x="64" y="141"/>
      <point x="184" y="-5"/>
      <point x="396" y="-5" type="curve"/>
      <point x="610" y="-5"/>
      <point x="727" y="144"/>
      <point x="727" y="365" type="curve"/>
      <point x="727" y="582"/>
      <point x="610" y="728"/>
      <point x="398" y="728" type="curve"/>
      <point x="184" y="728"/>
      <point x="64" y="580"/>
      <point x="64" y="360" type="curve"/>
      <point x="125" y="360"/>
      <point x="64" y="360"/>
    </contour>
  </outline>
</glyph>
<glyph name="T" format="1">
  <advance width="731"/>
  <unicode hex="0054"/>
  <outline>
    <contour>
      <point x="42" y="697" type="curve"/>
      <point x="42" y="577"/>
      <point x="42" y="701"/>
      <point x="42" y="581" type="curve"/>
      <point x="91" y="581"/>
      <point x="42" y="581"/>
      <point x="91" y="581" type="curve"/>
      <point x="91" y="701"/>
      <point x="91" y="577"/>
      <point x="91" y="697" type="curve"/>
      <point x="42" y="697"/>
      <point x="91" y="697"/>
    </contour>
    <contour>
      <point x="640" y="697" type="curve"/>
      <point x="640" y="577"/>
      <point x="640" y="701"/>
      <point x="640" y="581" type="curve"/>
      <point x="689" y="581"/>
      <point x="640" y="581"/>
      <point x="689" y="581" type="curve"/>
      <point x="689" y="701"/>
      <point x="689" y="577"/>
      <point x="689" y="697" type="curve"/>
      <point x="640" y="697"/>
      <point x="689" y="697"/>
    </contour>
    <contour>
      <point x="365" y="0" type="curve"/>
      <point x="414" y="0"/>
      <point x="461" y="0"/>
      <point x="510" y="0" type="curve"/>
      <point x="510" y="48"/>
      <point x="510" y="0"/>
      <point x="510" y="48" type="curve"/>
      <point x="362" y="48"/>
      <point x="513" y="48"/>
      <point x="365" y="48" type="curve"/>
      <point x="365" y="0"/>
      <point x="365" y="48"/>
    </contour>
    <contour>
      <point x="365" y="48" type="curve"/>
      <point x="217" y="48"/>
      <point x="368" y="48"/>
      <point x="220" y="48" type="curve"/>
      <point x="220" y="0"/>
      <point x="220" y="48"/>
      <point x="220" y="0" type="curve"/>
      <point x="269" y="0"/>
      <point x="315" y="0"/>
      <point x="365" y="0" type="curve"/>
      <point x="365" y="48"/>
      <point x="365" y="0"/>
    </contour>
    <contour>
      <point x="396" y="0" type="curve"/>
      <point x="396" y="237"/>
      <point x="396" y="473"/>
      <point x="396" y="710" type="curve"/>
      <point x="336" y="710"/>
      <point x="396" y="710"/>
      <point x="336" y="710" type="curve"/>
      <point x="336" y="473"/>
      <point x="336" y="237"/>
      <point x="336" y="0" type="curve"/>
      <point x="396" y="0"/>
      <point x="336" y="0"/>
    </contour>
    <contour>
      <point x="42" y="671" type="curve"/>
      <point x="258" y="671"/>
      <point x="474" y="671"/>
      <point x="689" y="671" type="curve"/>
      <point x="689" y="723"/>
      <point x="689" y="669"/>
      <point x="689" y="722" type="curve"/>
      <point x="474" y="722"/>
      <point x="258" y="722"/>
      <point x="42" y="722" type="curve"/>
      <point x="42" y="669"/>
      <point x="42" y="723"/>
    </contour>
    <contour>
      <point x="364" y="812" type="move" name="top"/>
    </contour>
    <contour>
      <point x="385" y="-26" type="move" name="bottom"/>
    </contour>
  </outline>
</glyph>
<glyph name="W" format="1">
  <advance width="1056"/>
  <unicode hex="0057"/>
  <outline>
    <contour>
      <point x="141" y="674" type="curve"/>
      <point x="284" y="674"/>
      <point x="138" y="674"/>
      <point x="281" y="674" type="curve"/>
      <point x="281" y="722"/>
      <point x="281" y="674"/>
      <point x="281" y="722" type="curve"/>
      <point x="233" y="722"/>
      <point x="189" y="722"/>
      <point x="141" y="722" type="curve"/>
      <point x="141" y="674"/>
      <point x="141" y="722"/>
    </contour>
    <contour>
      <point x="140" y="722" type="curve"/>
      <point x="92" y="722"/>
      <point x="46" y="722"/>
      <point x="-2" y="722" type="curve"/>
      <point x="-2" y="674"/>
      <point x="-2" y="722"/>
      <point x="-2" y="674" type="curve"/>
      <point x="143" y="674"/>
      <point x="-5" y="674"/>
      <point x="140" y="674" type="curve"/>
      <point x="140" y="722"/>
      <point x="140" y="674"/>
    </contour>
    <contour>
      <point x="902" y="722" type="curve"/>
      <point x="854" y="722"/>
      <point x="810" y="722"/>
      <point x="762" y="722" type="curve"/>
      <point x="762" y="674"/>
      <point x="762" y="722"/>
      <point x="762" y="674" type="curve"/>
      <point x="905" y="674"/>
      <point x="759" y="674"/>
      <point x="902" y="674" type="curve"/>
      <point x="902" y="722"/>
      <point x="902" y="674"/>
    </contour>
    <contour>
      <point x="902" y="674" type="curve"/>
      <point x="1047" y="674"/>
      <point x="899" y="674"/>
      <point x="1044" y="674" type="curve"/>
      <point x="1044" y="722"/>
      <point x="1044" y="674"/>
      <point x="1044" y="722" type="curve"/>
      <point x="996" y="722"/>
      <point x="950" y="722"/>
      <point x="902" y="722" type="curve"/>
      <point x="902" y="674"/>
      <point x="902" y="722"/>
    </contour>
    <contour>
      <point x="342" y="0" type="curve"/>
      <point x="412" y="241"/>
      <point x="481" y="481"/>
      <point x="551" y="722" type="curve"/>
      <point x="494" y="722"/>
      <point x="552" y="722"/>
      <point x="495" y="722" type="curve"/>
      <point x="428" y="481"/>
      <point x="360" y="241"/>
      <point x="292" y="0" type="curve"/>
      <point x="343" y="0"/>
      <point x="291" y="0"/>
    </contour>
    <contour>
      <point x="504" y="722" type="curve"/>
      <point x="567" y="481"/>
      <point x="629" y="241"/>
      <point x="692" y="0" type="curve"/>
      <point x="743" y="0"/>
      <point x="690" y="0"/>
      <point x="741" y="0" type="curve"/>
      <point x="681" y="242"/>
      <point x="621" y="481"/>
      <point x="559" y="722" type="curve"/>
      <point x="503" y="722"/>
      <point x="561" y="722"/>
    </contour>
    <contour>
      <point x="95" y="722" type="curve"/>
      <point x="158" y="481"/>
      <point x="221" y="241"/>
      <point x="285" y="0" type="curve"/>
      <point x="336" y="0"/>
      <point x="286" y="0"/>
      <point x="337" y="0" type="curve"/>
      <point x="276" y="241"/>
      <point x="215" y="481"/>
      <point x="153" y="722" type="curve"/>
      <point x="95" y="722"/>
      <point x="153" y="722"/>
    </contour>
    <contour>
      <point x="889" y="722" type="curve"/>
      <point x="825" y="481"/>
      <point x="761" y="241"/>
      <point x="698" y="0" type="curve"/>
      <point x="750" y="0"/>
      <point x="698" y="0"/>
      <point x="750" y="0" type="curve"/>
      <point x="816" y="241"/>
      <point x="881" y="481"/>
      <point x="947" y="722" type="curve"/>
      <point x="889" y="722"/>
      <point x="947" y="722"/>
    </contour>
  </outline>
</glyph>
<glyph name="X" format="1">
  <advance width="788"/>
  <unicode hex="0058"/>
  <outline>
    <contour>
      <point x="150" y="0" type="curve"/>
      <point x="200" y="0"/>
      <point x="147" y="0"/>
      <point x="298" y="0" type="curve"/>
      <point x="298" y="48"/>
      <point x="298" y="0"/>
      <point x="298" y="48" type="curve"/>
      <point x="147" y="48"/>
      <point x="301" y="48"/>
      <point x="150" y="48" type="curve"/>
      <point x="150" y="0"/>
      <point x="150" y="48"/>
    </contour>
    <contour>
      <point x="147" y="48" type="curve"/>
      <point x="0" y="48"/>
      <point x="150" y="48"/>
      <point x="4" y="48" type="curve"/>
      <point x="3" y="0"/>
      <point x="4" y="48"/>
      <point x="3" y="0" type="curve"/>
      <point x="52" y="0"/>
      <point x="99" y="0"/>
      <point x="147" y="0" type="curve"/>
      <point x="147" y="48"/>
      <point x="147" y="0"/>
    </contour>
    <contour>
      <point x="637" y="0" type="curve"/>
      <point x="686" y="0"/>
      <point x="732" y="0"/>
      <point x="781" y="0" type="curve"/>
      <point x="781" y="48"/>
      <point x="781" y="0"/>
      <point x="781" y="48" type="curve"/>
      <point x="634" y="48"/>
      <point x="784" y="48"/>
      <point x="637" y="48" type="curve"/>
      <point x="637" y="0"/>
      <point x="637" y="48"/>
    </contour>
    <contour>
      <point x="634" y="48" type="curve"/>
      <point x="483" y="48"/>
      <point x="637" y="48"/>
      <point x="486" y="48" type="curve"/>
      <point x="486" y="0"/>
      <point x="486" y="48"/>
      <point x="486" y="0" type="curve"/>
      <point x="537" y="0"/>
      <point x="584" y="0"/>
      <point x="634" y="0" type="curve"/>
      <point x="634" y="48"/>
      <point x="634" y="0"/>
    </contour>
    <contour>
      <point x="610" y="674" type="curve"/>
      <point x="757" y="674"/>
      <point x="607" y="674"/>
      <point x="754" y="674" type="curve"/>
      <point x="754" y="722"/>
      <point x="754" y="674"/>
      <point x="754" y="722" type="curve"/>
      <point x="705" y="722"/>
      <point x="659" y="722"/>
      <point x="610" y="722" type="curve"/>
      <point x="610" y="674"/>
      <point x="610" y="722"/>
    </contour>
    <contour>
      <point x="612" y="722" type="curve"/>
      <point x="562" y="722"/>
      <point x="514" y="722"/>
      <point x="463" y="722" type="curve"/>
      <point x="463" y="674"/>
      <point x="463" y="722"/>
      <point x="463" y="674" type="curve"/>
      <point x="615" y="674"/>
      <point x="460" y="674"/>
      <point x="612" y="674" type="curve"/>
      <point x="612" y="722"/>
      <point x="612" y="674"/>
    </contour>
    <contour>
      <point x="179" y="722" type="curve"/>
      <point x="131" y="722"/>
      <point x="84" y="722"/>
      <point x="36" y="722" type="curve"/>
      <point x="36" y="674"/>
      <point x="36" y="722"/>
      <point x="36" y="674" type="curve"/>
      <point x="182" y="674"/>
      <point x="33" y="674"/>
      <point x="179" y="674" type="curve"/>
      <point x="179" y="722"/>
      <point x="179" y="674"/>
    </contour>
    <contour>
      <point x="177" y="674" type="curve"/>
      <point x="330" y="674"/>
      <point x="174" y="674"/>
      <point x="327" y="674" type="curve"/>
      <point x="327" y="722"/>
      <point x="327" y="674"/>
      <point x="327" y="722" type="curve"/>
      <point x="276" y="722"/>
      <point x="228" y="722"/>
      <point x="177" y="722" type="curve"/>
      <point x="177" y="674"/>
      <point x="177" y="722"/>
    </contour>
    <contour>
      <point x="608" y="722" type="curve"/>
      <point x="436" y="483"/>
      <point x="264" y="246"/>
      <point x="92" y="8" type="curve"/>
      <point x="157" y="8"/>
      <point x="92" y="0"/>
      <point x="157" y="0" type="curve"/>
      <point x="327" y="239"/>
      <point x="497" y="477"/>
      <point x="668" y="716" type="curve"/>
      <point x="608" y="716"/>
      <point x="668" y="722"/>
    </contour>
    <contour>
      <point x="124" y="715" type="curve"/>
      <point x="294" y="477"/>
      <point x="462" y="239"/>
      <point x="631" y="0" type="curve"/>
      <point x="695" y="0"/>
      <point x="631" y="5"/>
      <point x="695" y="5" type="curve"/>
      <point x="525" y="244"/>
      <point x="354" y="483"/>
      <point x="184" y="722" type="curve"/>
      <point x="124" y="722"/>
      <point x="184" y="715"/>
    </contour>
  </outline>
</glyph>
<glyph name="bracketleft" format="1">
  <advance width="307"/>
  <unicode hex="005B"/>
  <outline>
    <contour>
      <point x="264" y="770" type="curve"/>
      <point x="211" y="770"/>
      <point x="157" y="770"/>
      <point x="104" y="770" type="curve"/>
      <point x="98" y="770"/>
      <point x="88" y="770"/>
      <point x="81" y="770" type="curve"/>
      <point x="81" y="764"/>
      <point x="81" y="756"/>
      <point x="81" y="750" type="curve"/>
      <point x="81" y="466"/>
      <point x="81" y="182"/>
      <point x="81" y="-102" type="curve"/>
      <point x="81" y="-108"/>
      <point x="81" y="-114"/>
      <point x="81" y="-121" type="curve"/>
      <point x="87" y="-121"/>
      <point x="97" y="-121"/>
      <point x="103" y="-121" type="curve"/>
      <point x="156" y="-121"/>
      <point x="210" y="-121"/>
      <point x="264" y="-121" type="curve"/>
      <point x="264" y="-68"/>
      <point x="264" y="-121"/>
      <point x="264" y="-68" type="curve"/>
      <point x="210" y="-68"/>
      <point x="156" y="-68"/>
      <point x="103" y="-68" type="curve"/>
      <point x="142" y="-68"/>
      <point x="103" y="-68"/>
      <point x="142" y="-68" type="curve"/>
      <point x="142" y="-102"/>
      <point x="142" y="-68"/>
      <point x="142" y="-102" type="curve"/>
      <point x="142" y="182"/>
      <point x="142" y="466"/>
      <point x="142" y="750" type="curve"/>
      <point x="142" y="718"/>
      <point x="142" y="750"/>
      <point x="142" y="718" type="curve"/>
      <point x="104" y="718"/>
      <point x="142" y="718"/>
      <point x="104" y="718" type="curve"/>
      <point x="157" y="718"/>
      <point x="211" y="718"/>
      <point x="264" y="718" type="curve"/>
      <point x="264" y="770"/>
      <point x="264" y="718"/>
    </contour>
  </outline>
</glyph>
<glyph name="backslash" format="1">
  <advance width="548"/>
  <unicode hex="005C"/>
  <outline>
    <contour>
      <point x="510" y="-68" type="curve"/>
      <point x="374" y="236"/>
      <point x="238" y="540"/>
      <point x="101" y="844" type="curve"/>
      <point x="38" y="844"/>
      <point x="101" y="844"/>
      <point x="38" y="844" type="curve"/>
      <point x="174" y="540"/>
      <point x="311" y="236"/>
      <point x="447" y="-68" type="curve"/>
      <point x="510" y="-68"/>
      <point x="447" y="-68"/>
    </contour>
  </outline>
</glyph>
<glyph name="bracketright" format="1">
  <advance width="307"/>
  <unicode hex="005D"/>
  <outline>
    <contour>
      <point x="43" y="718" type="curve"/>
      <point x="96" y="718"/>
      <point x="149" y="718"/>
      <point x="203" y="718" type="curve"/>
      <point x="196" y="723"/>
      <point x="188" y="726"/>
      <point x="182" y="732" type="curve"/>
      <point x="176" y="737"/>
      <point x="171" y="744"/>
      <point x="165" y="750" type="curve"/>
      <point x="165" y="466"/>
      <point x="165" y="182"/>
      <point x="165" y="-102" type="curve"/>
      <point x="171" y="-96"/>
      <point x="178" y="-89"/>
      <point x="184" y="-83" type="curve"/>
      <point x="190" y="-78"/>
      <point x="198" y="-74"/>
      <point x="204" y="-68" type="curve"/>
      <point x="150" y="-68"/>
      <point x="96" y="-68"/>
      <point x="43" y="-68" type="curve"/>
      <point x="43" y="-121"/>
      <point x="43" y="-68"/>
      <point x="43" y="-121" type="curve"/>
      <point x="96" y="-121"/>
      <point x="150" y="-121"/>
      <point x="204" y="-121" type="curve"/>
      <point x="226" y="-121"/>
      <point x="204" y="-121"/>
      <point x="226" y="-121" type="curve"/>
      <point x="226" y="-102"/>
      <point x="226" y="-121"/>
      <point x="226" y="-102" type="curve"/>
      <point x="226" y="182"/>
      <point x="226" y="466"/>
      <point x="226" y="750" type="curve"/>
      <point x="226" y="770"/>
      <point x="226" y="750"/>
      <point x="226" y="770" type="curve"/>
      <point x="203" y="770"/>
      <point x="226" y="770"/>
      <point x="203" y="770" type="curve"/>
      <point x="149" y="770"/>
      <point x="96" y="770"/>
      <point x="43" y="770" type="curve"/>
      <point x="43" y="718"/>
      <point x="43" y="770"/>
    </contour>
  </outline>
</glyph>
<glyph name="asciicircum" format="1">
  <advance width="561"/>
  <unicode hex="005E"/>
  <outline>
    <contour>
      <point x="128" y="462" type="curve"/>
      <point x="189" y="573"/>
      <point x="250" y="683"/>
      <point x="310" y="793" type="curve"/>
      <point x="250" y="793"/>
      <point x="309" y="793"/>
      <point x="249" y="793" type="curve"/>
      <point x="189" y="683"/>
      <point x="128" y="573"/>
      <point x="68" y="462" type="curve"/>
      <point x="128" y="462"/>
      <point x="68" y="462"/>
    </contour>
    <contour>
      <point x="494" y="462" type="curve"/>
      <point x="435" y="570"/>
      <point x="371" y="686"/>
      <point x="311" y="793" type="curve"/>
      <point x="251" y="793"/>
      <point x="310" y="793"/>
      <point x="250" y="793" type="curve"/>
      <point x="310" y="686"/>
      <point x="374" y="570"/>
      <point x="434" y="462" type="curve"/>
      <point x="494" y="462"/>
      <point x="435" y="462"/>
    </contour>
  </outline>
</glyph>
<glyph name="underscore" format="1">
  <advance width="713"/>
  <unicode hex="005F"/>
  <outline>
    <contour>
      <point x="0" y="-202" type="curve"/>
      <point x="238" y="-202"/>
      <point x="476" y="-202"/>
      <point x="712" y="-202" type="curve"/>
      <point x="712" y="-154"/>
      <point x="712" y="-202"/>
      <point x="712" y="-154" type="curve"/>
      <point x="476" y="-154"/>
      <point x="238" y="-154"/>
      <point x="0" y="-154" type="curve"/>
      <point x="0" y="-202"/>
      <point x="0" y="-154"/>
    </contour>
  </outline>
</glyph>
<glyph name="a" format="1">
  <advance width="597"/>
  <unicode hex="0061"/>
  <outline>
    <contour>
      <point x="76" y="463" type="curve"/>
      <point x="76" y="344"/>
      <point x="76" y="466"/>
      <point x="76" y="347" type="curve"/>
      <point x="125" y="347"/>
      <point x="76" y="347"/>
      <point x="125" y="347" type="curve"/>
      <point x="125" y="466"/>
      <point x="125" y="344"/>
      <point x="125" y="463" type="curve"/>
      <point x="76" y="463"/>
      <point x="125" y="463"/>
    </contour>
    <contour>
      <point x="481" y="0" type="curve"/>
      <point x="481" y="128"/>
      <point x="481" y="255"/>
      <point x="481" y="383" type="curve"/>
      <point x="481" y="500"/>
      <point x="405" y="538"/>
      <point x="287" y="538" type="curve"/>
      <point x="194" y="538"/>
      <point x="128" y="505"/>
      <point x="76" y="463" type="curve"/>
      <point x="101" y="424"/>
      <point x="78" y="462"/>
      <point x="102" y="423" type="curve"/>
      <point x="145" y="455"/>
      <point x="201" y="489"/>
      <point x="279" y="489" type="curve"/>
      <point x="367" y="489"/>
      <point x="420" y="461"/>
      <point x="420" y="372" type="curve"/>
      <point x="420" y="247"/>
      <point x="420" y="124"/>
      <point x="420" y="0" type="curve"/>
      <point x="481" y="0"/>
      <point x="420" y="0"/>
    </contour>
    <contour>
      <point x="453" y="0" type="curve"/>
      <point x="498" y="0"/>
      <point x="541" y="0"/>
      <point x="587" y="0" type="curve"/>
      <point x="587" y="48"/>
      <point x="587" y="0"/>
      <point x="587" y="48" type="curve"/>
      <point x="450" y="48"/>
      <point x="590" y="48"/>
      <point x="453" y="48" type="curve"/>
      <point x="453" y="0"/>
      <point x="453" y="48"/>
    </contour>
    <contour>
      <point x="448" y="327" type="curve"/>
      <point x="367" y="317"/>
      <point x="321" y="313"/>
      <point x="240" y="302" type="curve"/>
      <point x="135" y="288"/>
      <point x="60" y="252"/>
      <point x="60" y="147" type="curve"/>
      <point x="60" y="47"/>
      <point x="121" y="-5"/>
      <point x="228" y="-5" type="curve"/>
      <point x="344" y="-5"/>
      <point x="402" y="63"/>
      <point x="466" y="151" type="curve"/>
      <point x="434" y="178"/>
      <point x="466" y="152"/>
      <point x="435" y="179" type="curve"/>
      <point x="388" y="106"/>
      <point x="332" y="43"/>
      <point x="240" y="43" type="curve"/>
      <point x="161" y="43"/>
      <point x="119" y="79"/>
      <point x="119" y="149" type="curve"/>
      <point x="119" y="222"/>
      <point x="170" y="249"/>
      <point x="239" y="259" type="curve"/>
      <point x="322" y="269"/>
      <point x="368" y="275"/>
      <point x="451" y="286" type="curve"/>
      <point x="448" y="327"/>
      <point x="451" y="286"/>
    </contour>
    <contour>
      <point x="288" y="654" type="move" name="top"/>
    </contour>
    <contour>
      <point x="474" y="3" type="move" name="bottom"/>
    </contour>
  </outline>
</glyph>
<glyph name="d" format="1">
  <advance width="688"/>
  <unicode hex="0064"/>
  <outline>
    <contour>
      <point x="526" y="800" type="curve"/>
      <point x="476" y="800"/>
      <point x="432" y="800"/>
      <point x="381" y="800" type="curve"/>
      <point x="381" y="752"/>
      <point x="381" y="800"/>
      <point x="381" y="752" type="curve"/>
      <point x="533" y="752"/>
      <point x="375" y="752"/>
      <point x="526" y="752" type="curve"/>
      <point x="526" y="800"/>
      <point x="526" y="752"/>
    </contour>
    <contour>
      <point x="528" y="0" type="curve"/>
      <point x="578" y="0"/>
      <point x="622" y="0"/>
      <point x="672" y="0" type="curve"/>
      <point x="672" y="48"/>
      <point x="672" y="0"/>
      <point x="672" y="48" type="curve"/>
      <point x="521" y="48"/>
      <point x="679" y="48"/>
      <point x="528" y="48" type="curve"/>
      <point x="528" y="0"/>
      <point x="528" y="48"/>
    </contour>
    <contour>
      <point x="537" y="437" type="curve"/>
      <point x="482" y="501"/>
      <point x="406" y="537"/>
      <point x="315" y="537" type="curve"/>
      <point x="155" y="537"/>
      <point x="57" y="429"/>
      <point x="57" y="263" type="curve"/>
      <point x="57" y="100"/>
      <point x="157" y="-4"/>
      <point x="317" y="-4" type="curve"/>
      <point x="417" y="-4"/>
      <point x="485" y="43"/>
      <point x="538" y="128" type="curve"/>
      <point x="510" y="158"/>
      <point x="536" y="128"/>
      <point x="508" y="158" type="curve"/>
      <point x="460" y="85"/>
      <point x="404" y="44"/>
      <point x="323" y="44" type="curve"/>
      <point x="196" y="44"/>
      <point x="118" y="132"/>
      <point x="118" y="266" type="curve"/>
      <point x="118" y="400"/>
      <point x="196" y="489"/>
      <point x="324" y="489" type="curve"/>
      <point x="398" y="489"/>
      <point x="466" y="457"/>
      <point x="510" y="402" type="curve"/>
      <point x="538" y="435"/>
      <point x="509" y="404"/>
    </contour>
    <contour>
      <point x="559" y="0" type="curve"/>
      <point x="559" y="267"/>
      <point x="559" y="533"/>
      <point x="559" y="800" type="curve"/>
      <point x="495" y="800"/>
      <point x="559" y="800"/>
      <point x="495" y="800" type="curve"/>
      <point x="495" y="533"/>
      <point x="495" y="267"/>
      <point x="495" y="0" type="curve"/>
      <point x="559" y="0"/>
      <point x="495" y="0"/>
    </contour>
  </outline>
</glyph>
<glyph name="e" format="1">
  <advance width="580"/>
  <unicode hex="0065"/>
  <outline>
    <contour>
      <point x="93" y="259" type="curve"/>
      <point x="229" y="259"/>
      <point x="365" y="259"/>
      <point x="501" y="259" type="curve"/>
      <point x="521" y="259"/>
      <point x="501" y="259"/>
      <point x="521" y="259" type="curve"/>
      <point x="521" y="273"/>
      <point x="521" y="259"/>
      <point x="521" y="273" type="curve"/>
      <point x="521" y="281"/>
      <point x="521" y="289"/>
      <point x="521" y="297" type="curve"/>
      <point x="521" y="450"/>
      <point x="444" y="538"/>
      <point x="299" y="538" type="curve"/>
      <point x="142" y="538"/>
      <point x="62" y="443"/>
      <point x="62" y="280" type="curve"/>
      <point x="62" y="101"/>
      <point x="151" y="-5"/>
      <point x="322" y="-5" type="curve"/>
      <point x="401" y="-5"/>
      <point x="452" y="20"/>
      <point x="511" y="73" type="curve"/>
      <point x="478" y="108"/>
      <point x="511" y="73"/>
      <point x="478" y="108" type="curve"/>
      <point x="429" y="66"/>
      <point x="384" y="44"/>
      <point x="321" y="44" type="curve"/>
      <point x="186" y="44"/>
      <point x="121" y="135"/>
      <point x="121" y="280" type="curve"/>
      <point x="121" y="408"/>
      <point x="176" y="489"/>
      <point x="295" y="489" type="curve"/>
      <point x="407" y="489"/>
      <point x="463" y="421"/>
      <point x="463" y="304" type="curve"/>
      <point x="463" y="294"/>
      <point x="463" y="285"/>
      <point x="463" y="275" type="curve"/>
      <point x="470" y="281"/>
      <point x="476" y="287"/>
      <point x="482" y="292" type="curve"/>
      <point x="488" y="297"/>
      <point x="495" y="299"/>
      <point x="501" y="305" type="curve"/>
      <point x="365" y="305"/>
      <point x="229" y="305"/>
      <point x="93" y="305" type="curve"/>
      <point x="93" y="257"/>
      <point x="93" y="307"/>
    </contour>
    <contour>
      <point x="298" y="654" type="move" name="top"/>
    </contour>
    <contour>
      <point x="349" y="2" type="move" name="bottom"/>
    </contour>
  </outline>
</glyph>
<glyph name="f" format="1">
  <advance width="502"/>
  <unicode hex="0066"/>
  <outline>
    <contour>
      <point x="440" y="772" type="curve"/>
      <point x="440" y="649"/>
      <point x="440" y="775"/>
      <point x="440" y="652" type="curve"/>
      <point x="489" y="652"/>
      <point x="440" y="652"/>
      <point x="489" y="652" type="curve"/>
      <point x="489" y="775"/>
      <point x="489" y="649"/>
      <point x="489" y="772" type="curve"/>
      <point x="440" y="772"/>
      <point x="489" y="772"/>
    </contour>
    <contour>
      <point x="226" y="0" type="curve"/>
      <point x="276" y="0"/>
      <point x="320" y="0"/>
      <point x="370" y="0" type="curve"/>
      <point x="370" y="48"/>
      <point x="370" y="0"/>
      <point x="370" y="48" type="curve"/>
      <point x="218" y="48"/>
      <point x="378" y="48"/>
      <point x="226" y="48" type="curve"/>
      <point x="226" y="0"/>
      <point x="226" y="48"/>
    </contour>
    <contour>
      <point x="226" y="48" type="curve"/>
      <point x="74" y="48"/>
      <point x="233" y="48"/>
      <point x="81" y="48" type="curve"/>
      <point x="81" y="0"/>
      <point x="81" y="48"/>
      <point x="81" y="0" type="curve"/>
      <point x="132" y="0"/>
      <point x="175" y="0"/>
      <point x="226" y="0" type="curve"/>
      <point x="226" y="48"/>
      <point x="226" y="0"/>
    </contour>
    <contour>
      <point x="35" y="485" type="curve"/>
      <point x="457" y="485" type="line"/>
      <point x="457" y="533"/>
      <point x="457" y="485"/>
      <point x="457" y="533" type="curve"/>
      <point x="35" y="533" type="line"/>
      <point x="35" y="485"/>
      <point x="35" y="533"/>
    </contour>
    <contour>
      <point x="256" y="0" type="curve"/>
      <point x="256" y="630" type="line"/>
      <point x="256" y="707"/>
      <point x="295" y="758"/>
      <point x="370" y="758" type="curve"/>
      <point x="403" y="758"/>
      <point x="435" y="748"/>
      <point x="465" y="734" type="curve"/>
      <point x="489" y="772"/>
      <point x="465" y="734"/>
      <point x="489" y="772" type="curve"/>
      <point x="452" y="790"/>
      <point x="411" y="804"/>
      <point x="370" y="804" type="curve"/>
      <point x="262" y="804"/>
      <point x="195" y="737"/>
      <point x="196" y="630" type="curve"/>
      <point x="196" y="0" type="line"/>
      <point x="256" y="0"/>
      <point x="196" y="0"/>
    </contour>
  </outline>
</glyph>
<glyph name="g" format="1">
  <advance width="579"/>
  <unicode hex="0067"/>
  <outline>
    <contour>
      <point x="400" y="481" type="curve"/>
      <point x="559" y="556" type="line"/>
      <point x="554" y="562"/>
      <point x="538" y="595"/>
      <point x="533" y="602" type="curve"/>
      <point x="369" y="517" type="line"/>
      <point x="400" y="481"/>
      <point x="369" y="517"/>
    </contour>
    <contour>
      <point x="145" y="352" type="curve"/>
      <point x="145" y="437"/>
      <point x="208" y="491"/>
      <point x="298" y="491" type="curve"/>
      <point x="387" y="491"/>
      <point x="446" y="439"/>
      <point x="446" y="353" type="curve"/>
      <point x="446" y="272"/>
      <point x="385" y="222"/>
      <point x="297" y="222" type="curve"/>
      <point x="209" y="222"/>
      <point x="145" y="268"/>
      <point x="145" y="352" type="curve"/>
      <point x="84" y="349"/>
      <point x="145" y="352"/>
      <point x="84" y="349" type="curve"/>
      <point x="84" y="236"/>
      <point x="173" y="175"/>
      <point x="292" y="175" type="curve"/>
      <point x="415" y="175"/>
      <point x="507" y="238"/>
      <point x="507" y="355" type="curve"/>
      <point x="507" y="472"/>
      <point x="419" y="538"/>
      <point x="298" y="538" type="curve"/>
      <point x="173" y="538"/>
      <point x="84" y="469"/>
      <point x="84" y="349" type="curve"/>
      <point x="145" y="352"/>
      <point x="84" y="349"/>
    </contour>
    <contour>
      <point x="178" y="233" type="curve"/>
      <point x="125" y="205"/>
      <point x="88" y="170"/>
      <point x="88" y="110" type="curve"/>
      <point x="88" y="15"/>
      <point x="182" y="-10"/>
      <point x="287" y="-19" type="curve"/>
      <point x="398" y="-28"/>
      <point x="505" y="-39"/>
      <point x="505" y="-136" type="curve"/>
      <point x="505" y="-228"/>
      <point x="406" y="-257"/>
      <point x="295" y="-257" type="curve"/>
      <point x="189" y="-257"/>
      <point x="101" y="-218"/>
      <point x="101" y="-125" type="curve"/>
      <point x="101" y="-57"/>
      <point x="142" y="-17"/>
      <point x="203" y="8" type="curve"/>
      <point x="173" y="37"/>
      <point x="203" y="8"/>
      <point x="173" y="37" type="curve"/>
      <point x="96" y="7"/>
      <point x="41" y="-42"/>
      <point x="41" y="-127" type="curve"/>
      <point x="41" y="-254"/>
      <point x="154" y="-304"/>
      <point x="292" y="-304" type="curve"/>
      <point x="437" y="-304"/>
      <point x="563" y="-264"/>
      <point x="560" y="-132" type="curve"/>
      <point x="560" y="-6"/>
      <point x="435" y="16"/>
      <point x="298" y="27" type="curve"/>
      <point x="220" y="32"/>
      <point x="149" y="47"/>
      <point x="149" y="115" type="curve"/>
      <point x="149" y="157"/>
      <point x="171" y="182"/>
      <point x="207" y="203" type="curve"/>
      <point x="178" y="233"/>
      <point x="207" y="203"/>
    </contour>
    <contour>
      <point x="296" y="654" type="move" name="top"/>
    </contour>
  </outline>
</glyph>
<glyph name="h" format="1">
  <advance width="689"/>
  <unicode hex="0068"/>
  <outline>
    <contour>
      <point x="539" y="0" type="curve"/>
      <point x="590" y="0"/>
      <point x="634" y="0"/>
      <point x="684" y="0" type="curve"/>
      <point x="684" y="48"/>
      <point x="684" y="0"/>
      <point x="684" y="48" type="curve"/>
      <point x="532" y="48"/>
      <point x="692" y="48"/>
      <point x="539" y="48" type="curve"/>
      <point x="539" y="0"/>
      <point x="539" y="48"/>
    </contour>
    <contour>
      <point x="152" y="0" type="curve"/>
      <point x="198" y="0"/>
      <point x="145" y="0"/>
      <point x="282" y="0" type="curve"/>
      <point x="282" y="48"/>
      <point x="282" y="0"/>
      <point x="282" y="48" type="curve"/>
      <point x="145" y="48"/>
      <point x="289" y="48"/>
      <point x="152" y="48" type="curve"/>
      <point x="152" y="0"/>
      <point x="152" y="48"/>
    </contour>
    <contour>
      <point x="152" y="800" type="curve"/>
      <point x="102" y="800"/>
      <point x="58" y="800"/>
      <point x="7" y="800" type="curve"/>
      <point x="7" y="752"/>
      <point x="7" y="800"/>
      <point x="7" y="752" type="curve"/>
      <point x="160" y="752"/>
      <point x="0" y="752"/>
      <point x="152" y="752" type="curve"/>
      <point x="152" y="800"/>
      <point x="152" y="752"/>
    </contour>
    <contour>
      <point x="152" y="48" type="curve"/>
      <point x="0" y="48"/>
      <point x="160" y="48"/>
      <point x="7" y="48" type="curve"/>
      <point x="7" y="0"/>
      <point x="7" y="48"/>
      <point x="7" y="0" type="curve"/>
      <point x="58" y="0"/>
      <point x="102" y="0"/>
      <point x="152" y="0" type="curve"/>
      <point x="152" y="48"/>
      <point x="152" y="0"/>
    </contour>
    <contour>
      <point x="169" y="333" type="curve"/>
      <point x="201" y="421"/>
      <point x="278" y="489"/>
      <point x="368" y="489" type="curve"/>
      <point x="465" y="489"/>
      <point x="510" y="428"/>
      <point x="510" y="329" type="curve"/>
      <point x="510" y="219"/>
      <point x="510" y="111"/>
      <point x="510" y="0" type="curve"/>
      <point x="571" y="0"/>
      <point x="510" y="0"/>
      <point x="571" y="0" type="curve"/>
      <point x="571" y="112"/>
      <point x="571" y="224"/>
      <point x="571" y="337" type="curve"/>
      <point x="571" y="465"/>
      <point x="507" y="537"/>
      <point x="380" y="537" type="curve"/>
      <point x="271" y="537"/>
      <point x="177" y="465"/>
      <point x="143" y="359" type="curve"/>
      <point x="170" y="334"/>
      <point x="142" y="358"/>
    </contour>
    <contour>
      <point x="182" y="0" type="curve"/>
      <point x="182" y="267"/>
      <point x="182" y="533"/>
      <point x="182" y="800" type="curve"/>
      <point x="122" y="800"/>
      <point x="182" y="800"/>
      <point x="122" y="800" type="curve"/>
      <point x="122" y="533"/>
      <point x="122" y="267"/>
      <point x="122" y="0" type="curve"/>
      <point x="182" y="0"/>
      <point x="122" y="0"/>
    </contour>
  </outline>
</glyph>
<glyph name="i" format="1">
  <advance width="327"/>
  <unicode hex="0069"/>
  <outline>
    <contour>
      <point x="178" y="48" type="curve"/>
      <point x="26" y="48"/>
      <point x="186" y="48"/>
      <point x="34" y="48" type="curve"/>
      <point x="33" y="0"/>
      <point x="34" y="48"/>
      <point x="33" y="0" type="curve"/>
      <point x="84" y="0"/>
      <point x="128" y="0"/>
      <point x="178" y="0" type="curve"/>
      <point x="178" y="48"/>
      <point x="178" y="0"/>
    </contour>
    <contour>
      <point x="178" y="0" type="curve"/>
      <point x="225" y="0"/>
      <point x="267" y="0"/>
      <point x="314" y="0" type="curve"/>
      <point x="314" y="48"/>
      <point x="314" y="0"/>
      <point x="314" y="48" type="curve"/>
      <point x="172" y="48"/>
      <point x="320" y="48"/>
      <point x="178" y="48" type="curve"/>
      <point x="178" y="0"/>
      <point x="178" y="48"/>
    </contour>
    <contour>
      <point x="178" y="533" type="curve"/>
      <point x="128" y="533"/>
      <point x="84" y="533"/>
      <point x="34" y="533" type="curve"/>
      <point x="33" y="485"/>
      <point x="34" y="533"/>
      <point x="33" y="485" type="curve"/>
      <point x="186" y="485"/>
      <point x="26" y="485"/>
      <point x="178" y="485" type="curve"/>
      <point x="178" y="533"/>
      <point x="178" y="485"/>
    </contour>
    <contour>
      <point x="211" y="0" type="curve"/>
      <point x="211" y="178"/>
      <point x="211" y="355"/>
      <point x="211" y="533" type="curve"/>
      <point x="147" y="533"/>
      <point x="211" y="533"/>
      <point x="147" y="533" type="curve"/>
      <point x="147" y="355"/>
      <point x="147" y="178"/>
      <point x="147" y="0" type="curve"/>
      <point x="211" y="0"/>
      <point x="147" y="0"/>
    </contour>
    <contour>
      <point x="214" y="684" type="curve"/>
      <point x="214" y="706"/>
      <point x="199" y="717"/>
      <point x="176" y="717" type="curve"/>
      <point x="154" y="717"/>
      <point x="140" y="705"/>
      <point x="140" y="684" type="curve"/>
      <point x="205" y="684"/>
      <point x="149" y="684"/>
      <point x="214" y="684" type="curve"/>
      <point x="214" y="661"/>
      <point x="199" y="651"/>
      <point x="176" y="651" type="curve"/>
      <point x="154" y="651"/>
      <point x="140" y="662"/>
      <point x="140" y="684" type="curve"/>
      <point x="205" y="684"/>
      <point x="149" y="684"/>
    </contour>
    <contour>
      <point x="177" y="653" type="move" name="top"/>
    </contour>
    <contour>
      <point x="207" y="3" type="move" name="bottom"/>
    </contour>
  </outline>
</glyph>
<glyph name="j" format="1">
  <advance width="315"/>
  <unicode hex="006A"/>
  <outline>
    <contour>
      <point x="186" y="533" type="curve"/>
      <point x="135" y="533"/>
      <point x="87" y="533"/>
      <point x="36" y="533" type="curve"/>
      <point x="36" y="485"/>
      <point x="36" y="533"/>
      <point x="36" y="485" type="curve"/>
      <point x="189" y="485"/>
      <point x="33" y="485"/>
      <point x="186" y="485" type="curve"/>
      <point x="186" y="533"/>
      <point x="186" y="485"/>
    </contour>
    <contour>
      <point x="0" y="-302" type="curve"/>
      <point x="9" y="-302"/>
      <point x="20" y="-304"/>
      <point x="33" y="-304" type="curve"/>
      <point x="139" y="-304"/>
      <point x="217" y="-241"/>
      <point x="217" y="-135" type="curve"/>
      <point x="217" y="87"/>
      <point x="217" y="310"/>
      <point x="217" y="533" type="curve"/>
      <point x="157" y="533"/>
      <point x="217" y="533"/>
      <point x="157" y="533" type="curve"/>
      <point x="157" y="310"/>
      <point x="157" y="87"/>
      <point x="157" y="-135" type="curve"/>
      <point x="157" y="-207"/>
      <point x="107" y="-256"/>
      <point x="35" y="-256" type="curve"/>
      <point x="26" y="-256"/>
      <point x="15" y="-255"/>
      <point x="9" y="-254" type="curve"/>
      <point x="0" y="-300"/>
      <point x="9" y="-255"/>
    </contour>
    <contour>
      <point x="225" y="683" type="curve"/>
      <point x="225" y="705"/>
      <point x="209" y="716"/>
      <point x="187" y="716" type="curve"/>
      <point x="165" y="716"/>
      <point x="151" y="704"/>
      <point x="151" y="683" type="curve"/>
      <point x="216" y="683"/>
      <point x="160" y="683"/>
      <point x="225" y="683" type="curve"/>
      <point x="225" y="660"/>
      <point x="209" y="649"/>
      <point x="187" y="649" type="curve"/>
      <point x="165" y="649"/>
      <point x="151" y="661"/>
      <point x="151" y="683" type="curve"/>
      <point x="216" y="683"/>
      <point x="160" y="683"/>
    </contour>
  </outline>
</glyph>
<glyph name="k" format="1">
  <advance width="629"/>
  <unicode hex="006B"/>
  <outline>
    <contour>
      <point x="152" y="48" type="curve"/>
      <point x="-1" y="48"/>
      <point x="159" y="48"/>
      <point x="7" y="48" type="curve"/>
      <point x="7" y="0"/>
      <point x="7" y="48"/>
      <point x="7" y="0" type="curve"/>
      <point x="57" y="0"/>
      <point x="101" y="0"/>
      <point x="152" y="0" type="curve"/>
      <point x="152" y="48"/>
      <point x="152" y="0"/>
    </contour>
    <contour>
      <point x="472" y="0" type="curve"/>
      <point x="522" y="0"/>
      <point x="563" y="0"/>
      <point x="613" y="0" type="curve"/>
      <point x="613" y="48"/>
      <point x="613" y="0"/>
      <point x="613" y="48" type="curve"/>
      <point x="462" y="48"/>
      <point x="623" y="48"/>
      <point x="473" y="48" type="curve"/>
      <point x="473" y="0"/>
      <point x="472" y="48"/>
    </contour>
    <contour>
      <point x="455" y="485" type="curve"/>
      <point x="587" y="485"/>
      <point x="445" y="485"/>
      <point x="577" y="485" type="curve"/>
      <point x="577" y="533"/>
      <point x="577" y="485"/>
      <point x="577" y="533" type="curve"/>
      <point x="533" y="533"/>
      <point x="499" y="533"/>
      <point x="455" y="533" type="curve"/>
      <point x="455" y="485"/>
      <point x="455" y="533"/>
    </contour>
    <contour>
      <point x="152" y="0" type="curve"/>
      <point x="195" y="0"/>
      <point x="149" y="0"/>
      <point x="278" y="0" type="curve"/>
      <point x="278" y="48"/>
      <point x="278" y="0"/>
      <point x="278" y="48" type="curve"/>
      <point x="149" y="48"/>
      <point x="281" y="48"/>
      <point x="152" y="48" type="curve"/>
      <point x="152" y="0"/>
      <point x="152" y="48"/>
    </contour>
    <contour>
      <point x="462" y="533" type="curve"/>
      <point x="408" y="533"/>
      <point x="357" y="533"/>
      <point x="303" y="533" type="curve"/>
      <point x="303" y="485"/>
      <point x="303" y="533"/>
      <point x="303" y="485" type="curve"/>
      <point x="467" y="485"/>
      <point x="298" y="485"/>
      <point x="462" y="485" type="curve"/>
      <point x="462" y="533"/>
      <point x="462" y="485"/>
    </contour>
    <contour>
      <point x="154" y="800" type="curve"/>
      <point x="103" y="800"/>
      <point x="60" y="800"/>
      <point x="9" y="800" type="curve"/>
      <point x="9" y="752"/>
      <point x="9" y="800"/>
      <point x="9" y="752" type="curve"/>
      <point x="161" y="752"/>
      <point x="1" y="752"/>
      <point x="154" y="752" type="curve"/>
      <point x="154" y="800"/>
      <point x="154" y="752"/>
    </contour>
    <contour>
      <point x="183" y="0" type="curve"/>
      <point x="183" y="800" type="line"/>
      <point x="122" y="800"/>
      <point x="183" y="800"/>
      <point x="122" y="800" type="curve"/>
      <point x="122" y="533"/>
      <point x="122" y="267"/>
      <point x="122" y="0" type="curve"/>
      <point x="183" y="0"/>
      <point x="122" y="0"/>
    </contour>
    <contour>
      <point x="442" y="533" type="curve"/>
      <point x="164" y="275" type="line"/>
      <point x="240" y="275"/>
      <point x="162" y="275"/>
      <point x="239" y="275" type="curve"/>
      <point x="509" y="519" type="line"/>
      <point x="432" y="519"/>
      <point x="520" y="533"/>
    </contour>
    <contour>
      <point x="533" y="18" type="curve"/>
      <point x="238" y="275" type="line"/>
      <point x="162" y="275"/>
      <point x="240" y="275"/>
      <point x="164" y="275" type="curve"/>
      <point x="468" y="0" type="line"/>
      <point x="546" y="0"/>
      <point x="455" y="18"/>
    </contour>
    <contour>
      <point x="373" y="-26" type="move" name="bottom"/>
    </contour>
  </outline>
</glyph>
<glyph name="l" format="1">
  <advance width="328"/>
  <unicode hex="006C"/>
  <outline>
    <contour>
      <point x="165" y="48" type="curve"/>
      <point x="12" y="48"/>
      <point x="165" y="48"/>
      <point x="12" y="48" type="curve"/>
      <point x="12" y="0"/>
      <point x="12" y="48"/>
      <point x="12" y="0" type="curve"/>
      <point x="63" y="0"/>
      <point x="114" y="0"/>
      <point x="165" y="0" type="curve"/>
      <point x="165" y="48"/>
      <point x="165" y="0"/>
    </contour>
    <contour>
      <point x="167" y="800" type="curve"/>
      <point x="116" y="800"/>
      <point x="65" y="800"/>
      <point x="14" y="800" type="curve"/>
      <point x="14" y="752"/>
      <point x="14" y="800"/>
      <point x="14" y="752" type="curve"/>
      <point x="167" y="752"/>
      <point x="14" y="752"/>
      <point x="167" y="752" type="curve"/>
      <point x="167" y="800"/>
      <point x="167" y="752"/>
    </contour>
    <contour>
      <point x="165" y="0" type="curve"/>
      <point x="216" y="0"/>
      <point x="266" y="0"/>
      <point x="318" y="0" type="curve"/>
      <point x="318" y="48"/>
      <point x="318" y="0"/>
      <point x="318" y="48" type="curve"/>
      <point x="165" y="48"/>
      <point x="318" y="48"/>
      <point x="165" y="48" type="curve"/>
      <point x="165" y="0"/>
      <point x="165" y="48"/>
    </contour>
    <contour>
      <point x="194" y="0" type="curve"/>
      <point x="194" y="267"/>
      <point x="194" y="533"/>
      <point x="194" y="800" type="curve"/>
      <point x="133" y="800"/>
      <point x="194" y="800"/>
      <point x="133" y="800" type="curve"/>
      <point x="133" y="533"/>
      <point x="133" y="267"/>
      <point x="133" y="0" type="curve"/>
      <point x="194" y="0"/>
      <point x="133" y="0"/>
    </contour>
    <contour>
      <point x="164" y="896" type="move" name="top"/>
    </contour>
    <contour>
      <point x="185" y="-23" type="move" name="bottom"/>
    </contour>
  </outline>
</glyph>
<glyph name="m" format="1">
  <advance width="1035"/>
  <unicode hex="006D"/>
  <outline>
    <contour>
      <point x="532" y="0" type="curve"/>
      <point x="655" y="0"/>
      <point x="532" y="0"/>
      <point x="656" y="0" type="curve"/>
      <point x="656" y="48"/>
      <point x="656" y="0"/>
      <point x="656" y="48" type="curve"/>
      <point x="532" y="48"/>
      <point x="655" y="48"/>
      <point x="532" y="48" type="curve"/>
      <point x="532" y="0"/>
      <point x="532" y="48"/>
    </contour>
    <contour>
      <point x="880" y="0" type="curve"/>
      <point x="927" y="0"/>
      <point x="972" y="0"/>
      <point x="1020" y="0" type="curve"/>
      <point x="1020" y="48"/>
      <point x="1020" y="0"/>
      <point x="1020" y="48" type="curve"/>
      <point x="877" y="48"/>
      <point x="1023" y="48"/>
      <point x="880" y="48" type="curve"/>
      <point x="880" y="0"/>
      <point x="880" y="48"/>
    </contour>
    <contour>
      <point x="186" y="48" type="curve"/>
      <point x="38" y="48"/>
      <point x="189" y="48"/>
      <point x="41" y="48" type="curve"/>
      <point x="41" y="0"/>
      <point x="41" y="48"/>
      <point x="41" y="0" type="curve"/>
      <point x="90" y="0"/>
      <point x="136" y="0"/>
      <point x="186" y="0" type="curve"/>
      <point x="186" y="48"/>
      <point x="186" y="0"/>
    </contour>
    <contour>
      <point x="186" y="0" type="curve"/>
      <point x="228" y="0"/>
      <point x="179" y="0"/>
      <point x="306" y="0" type="curve"/>
      <point x="306" y="48"/>
      <point x="306" y="0"/>
      <point x="306" y="48" type="curve"/>
      <point x="179" y="48"/>
      <point x="313" y="48"/>
      <point x="186" y="48" type="curve"/>
      <point x="186" y="0"/>
      <point x="186" y="48"/>
    </contour>
    <contour>
      <point x="186" y="533" type="curve"/>
      <point x="136" y="533"/>
      <point x="90" y="533"/>
      <point x="41" y="533" type="curve"/>
      <point x="41" y="485"/>
      <point x="41" y="533"/>
      <point x="41" y="485" type="curve"/>
      <point x="189" y="485"/>
      <point x="38" y="485"/>
      <point x="186" y="485" type="curve"/>
      <point x="186" y="533"/>
      <point x="186" y="485"/>
    </contour>
    <contour>
      <point x="549" y="328" type="curve"/>
      <point x="585" y="419"/>
      <point x="639" y="489"/>
      <point x="726" y="489" type="curve"/>
      <point x="821" y="489"/>
      <point x="848" y="433"/>
      <point x="848" y="331" type="curve"/>
      <point x="848" y="221"/>
      <point x="848" y="111"/>
      <point x="848" y="0" type="curve"/>
      <point x="909" y="0"/>
      <point x="848" y="0"/>
      <point x="909" y="0" type="curve"/>
      <point x="909" y="112"/>
      <point x="909" y="224"/>
      <point x="909" y="337" type="curve"/>
      <point x="909" y="467"/>
      <point x="867" y="538"/>
      <point x="741" y="538" type="curve"/>
      <point x="632" y="538"/>
      <point x="561" y="464"/>
      <point x="523" y="354" type="curve"/>
      <point x="549" y="329"/>
      <point x="522" y="353"/>
    </contour>
    <contour>
      <point x="202" y="329" type="curve"/>
      <point x="237" y="419"/>
      <point x="291" y="489"/>
      <point x="379" y="489" type="curve"/>
      <point x="473" y="489"/>
      <point x="502" y="433"/>
      <point x="502" y="331" type="curve"/>
      <point x="502" y="221"/>
      <point x="502" y="111"/>
      <point x="502" y="0" type="curve"/>
      <point x="562" y="0"/>
      <point x="502" y="0"/>
      <point x="562" y="0" type="curve"/>
      <point x="562" y="112"/>
      <point x="562" y="224"/>
      <point x="562" y="337" type="curve"/>
      <point x="562" y="467"/>
      <point x="521" y="538"/>
      <point x="395" y="538" type="curve"/>
      <point x="284" y="538"/>
      <point x="218" y="466"/>
      <point x="176" y="355" type="curve"/>
      <point x="203" y="330"/>
      <point x="176" y="354"/>
    </contour>
    <contour>
      <point x="216" y="0" type="curve"/>
      <point x="216" y="178"/>
      <point x="216" y="355"/>
      <point x="216" y="533" type="curve"/>
      <point x="155" y="533"/>
      <point x="216" y="533"/>
      <point x="155" y="533" type="curve"/>
      <point x="155" y="355"/>
      <point x="155" y="178"/>
      <point x="155" y="0" type="curve"/>
      <point x="216" y="0"/>
      <point x="155" y="0"/>
    </contour>
  </outline>
</glyph>
<glyph name="p" format="1">
  <advance width="684"/>
  <unicode hex="0070"/>
  <outline>
    <contour>
      <point x="155" y="-252" type="curve"/>
      <point x="-1" y="-252"/>
      <point x="162" y="-252"/>
      <point x="6" y="-252" type="curve"/>
      <point x="6" y="-300"/>
      <point x="6" y="-252"/>
      <point x="6" y="-300" type="curve"/>
      <point x="59" y="-300"/>
      <point x="103" y="-300"/>
      <point x="155" y="-300" type="curve"/>
      <point x="155" y="-252"/>
      <point x="155" y="-300"/>
    </contour>
    <contour>
      <point x="155" y="-300" type="curve"/>
      <point x="204" y="-300"/>
      <point x="245" y="-300"/>
      <point x="293" y="-300" type="curve"/>
      <point x="293" y="-252"/>
      <point x="293" y="-300"/>
      <point x="293" y="-252" type="curve"/>
      <point x="147" y="-252"/>
      <point x="301" y="-252"/>
      <point x="155" y="-252" type="curve"/>
      <point x="155" y="-300"/>
      <point x="155" y="-252"/>
    </contour>
    <contour>
      <point x="156" y="533" type="curve"/>
      <point x="104" y="533"/>
      <point x="60" y="533"/>
      <point x="8" y="533" type="curve"/>
      <point x="8" y="485"/>
      <point x="8" y="533"/>
      <point x="8" y="485" type="curve"/>
      <point x="164" y="485"/>
      <point x="0" y="485"/>
      <point x="156" y="485" type="curve"/>
      <point x="156" y="533"/>
      <point x="156" y="485"/>
    </contour>
    <contour>
      <point x="168" y="379" type="curve"/>
      <point x="209" y="438"/>
      <point x="284" y="491"/>
      <point x="376" y="491" type="curve"/>
      <point x="500" y="491"/>
      <point x="565" y="399"/>
      <point x="565" y="272" type="curve"/>
      <point x="568" y="139"/>
      <point x="501" y="42"/>
      <point x="375" y="43" type="curve"/>
      <point x="290" y="43"/>
      <point x="229" y="80"/>
      <point x="170" y="139" type="curve"/>
      <point x="148" y="119"/>
      <point x="164" y="130"/>
      <point x="141" y="110" type="curve"/>
      <point x="207" y="38"/>
      <point x="280" y="-5"/>
      <point x="382" y="-5" type="curve"/>
      <point x="542" y="-5"/>
      <point x="625" y="112"/>
      <point x="625" y="275" type="curve"/>
      <point x="625" y="429"/>
      <point x="539" y="538"/>
      <point x="385" y="538" type="curve"/>
      <point x="278" y="538"/>
      <point x="194" y="484"/>
      <point x="145" y="416" type="curve"/>
      <point x="164" y="387"/>
      <point x="149" y="407"/>
    </contour>
    <contour>
      <point x="185" y="-300" type="curve"/>
      <point x="185" y="-22"/>
      <point x="185" y="255"/>
      <point x="185" y="533" type="curve"/>
      <point x="125" y="533"/>
      <point x="185" y="533"/>
      <point x="125" y="533" type="curve"/>
      <point x="125" y="255"/>
      <point x="125" y="-22"/>
      <point x="125" y="-300" type="curve"/>
      <point x="185" y="-300"/>
      <point x="125" y="-300"/>
    </contour>
  </outline>
</glyph>
<glyph name="q" format="1">
  <advance width="684"/>
  <unicode hex="0071"/>
  <outline>
    <contour>
      <point x="532" y="485" type="curve"/>
      <point x="657" y="485"/>
      <point x="542" y="485"/>
      <point x="666" y="485" type="curve"/>
      <point x="666" y="522"/>
      <point x="666" y="496"/>
      <point x="666" y="533" type="curve"/>
      <point x="618" y="533"/>
      <point x="580" y="533"/>
      <point x="532" y="533" type="curve"/>
      <point x="532" y="496"/>
      <point x="532" y="522"/>
    </contour>
    <contour>
      <point x="532" y="-252" type="curve"/>
      <point x="398" y="-252"/>
      <point x="521" y="-252"/>
      <point x="387" y="-252" type="curve"/>
      <point x="387" y="-289"/>
      <point x="387" y="-263"/>
      <point x="387" y="-300" type="curve"/>
      <point x="439" y="-300"/>
      <point x="480" y="-300"/>
      <point x="532" y="-300" type="curve"/>
      <point x="532" y="-263"/>
      <point x="532" y="-289"/>
    </contour>
    <contour>
      <point x="532" y="-300" type="curve"/>
      <point x="580" y="-300"/>
      <point x="618" y="-300"/>
      <point x="666" y="-300" type="curve"/>
      <point x="666" y="-263"/>
      <point x="666" y="-289"/>
      <point x="666" y="-252" type="curve"/>
      <point x="542" y="-252"/>
      <point x="657" y="-252"/>
      <point x="532" y="-252" type="curve"/>
      <point x="532" y="-289"/>
      <point x="532" y="-263"/>
    </contour>
    <contour>
      <point x="542" y="424" type="curve"/>
      <point x="481" y="496"/>
      <point x="395" y="538"/>
      <point x="301" y="538" type="curve"/>
      <point x="142" y="538"/>
      <point x="58" y="425"/>
      <point x="58" y="264" type="curve"/>
      <point x="58" y="103"/>
      <point x="147" y="-5"/>
      <point x="306" y="-5" type="curve"/>
      <point x="404" y="-5"/>
      <point x="487" y="50"/>
      <point x="545" y="127" type="curve"/>
      <point x="524" y="149"/>
      <point x="538" y="137"/>
      <point x="517" y="159" type="curve"/>
      <point x="468" y="88"/>
      <point x="395" y="43"/>
      <point x="312" y="43" type="curve"/>
      <point x="187" y="43"/>
      <point x="119" y="135"/>
      <point x="119" y="266" type="curve"/>
      <point x="119" y="397"/>
      <point x="185" y="490"/>
      <point x="309" y="490" type="curve"/>
      <point x="389" y="490"/>
      <point x="464" y="453"/>
      <point x="520" y="390" type="curve"/>
      <point x="537" y="413"/>
      <point x="524" y="400"/>
    </contour>
    <contour>
      <point x="562" y="-300" type="curve"/>
      <point x="562" y="-18"/>
      <point x="562" y="251"/>
      <point x="562" y="533" type="curve"/>
      <point x="515" y="533"/>
      <point x="546" y="533"/>
      <point x="499" y="533" type="curve"/>
      <point x="499" y="251"/>
      <point x="499" y="-18"/>
      <point x="499" y="-300" type="curve"/>
      <point x="546" y="-300"/>
      <point x="515" y="-300"/>
    </contour>
  </outline>
</glyph>
<glyph name="r" format="1">
  <advance width="473"/>
  <unicode hex="0072"/>
  <outline>
    <contour>
      <point x="186" y="0" type="curve"/>
      <point x="233" y="0"/>
      <point x="274" y="0"/>
      <point x="321" y="0" type="curve"/>
      <point x="321" y="37"/>
      <point x="321" y="11"/>
      <point x="321" y="48" type="curve"/>
      <point x="197" y="48"/>
      <point x="310" y="48"/>
      <point x="186" y="48" type="curve"/>
      <point x="186" y="11"/>
      <point x="186" y="37"/>
    </contour>
    <contour>
      <point x="186" y="48" type="curve"/>
      <point x="53" y="48"/>
      <point x="174" y="48"/>
      <point x="41" y="48" type="curve"/>
      <point x="41" y="11"/>
      <point x="41" y="37"/>
      <point x="41" y="0" type="curve"/>
      <point x="91" y="0"/>
      <point x="135" y="0"/>
      <point x="186" y="0" type="curve"/>
      <point x="186" y="37"/>
      <point x="186" y="11"/>
    </contour>
    <contour>
      <point x="185" y="533" type="curve"/>
      <point x="134" y="533"/>
      <point x="90" y="533"/>
      <point x="40" y="533" type="curve"/>
      <point x="40" y="496"/>
      <point x="40" y="522"/>
      <point x="40" y="485" type="curve"/>
      <point x="173" y="485"/>
      <point x="52" y="485"/>
      <point x="185" y="485" type="curve"/>
      <point x="185" y="522"/>
      <point x="185" y="496"/>
    </contour>
    <contour>
      <point x="216" y="0" type="curve"/>
      <point x="216" y="182"/>
      <point x="216" y="351"/>
      <point x="216" y="533" type="curve"/>
      <point x="170" y="533"/>
      <point x="201" y="533"/>
      <point x="155" y="533" type="curve"/>
      <point x="155" y="351"/>
      <point x="155" y="182"/>
      <point x="155" y="0" type="curve"/>
      <point x="201" y="0"/>
      <point x="170" y="0"/>
    </contour>
    <contour>
      <point x="201" y="335" type="curve"/>
      <point x="248" y="444"/>
      <point x="340" y="486"/>
      <point x="446" y="486" type="curve"/>
      <point x="446" y="527"/>
      <point x="446" y="497"/>
      <point x="446" y="538" type="curve"/>
      <point x="328" y="538"/>
      <point x="226" y="480"/>
      <point x="180" y="371" type="curve"/>
      <point x="199" y="347"/>
      <point x="184" y="358"/>
    </contour>
    <contour>
      <point x="202" y="654" type="move" name="top"/>
    </contour>
    <contour>
      <point x="209" y="-20" type="move" name="bottom"/>
    </contour>
  </outline>
</glyph>
<glyph name="t" format="1">
  <advance width="444"/>
  <unicode hex="0074"/>
  <outline>
    <contour>
      <point x="19" y="485" type="curve"/>
      <point x="419" y="485" type="line"/>
      <point x="419" y="533"/>
      <point x="419" y="485"/>
      <point x="419" y="533" type="curve"/>
      <point x="19" y="533" type="line"/>
      <point x="19" y="485"/>
      <point x="19" y="533"/>
    </contour>
    <contour>
      <point x="394" y="70" type="curve"/>
      <point x="362" y="54"/>
      <point x="338" y="45"/>
      <point x="302" y="45" type="curve"/>
      <point x="238" y="45"/>
      <point x="210" y="83"/>
      <point x="210" y="154" type="curve"/>
      <point x="210" y="679" type="line"/>
      <point x="181" y="662"/>
      <point x="177" y="659"/>
      <point x="149" y="641" type="curve"/>
      <point x="149" y="151" type="line"/>
      <point x="149" y="50"/>
      <point x="199" y="-5"/>
      <point x="296" y="-5" type="curve"/>
      <point x="343" y="-5"/>
      <point x="376" y="8"/>
      <point x="415" y="27" type="curve"/>
      <point x="394" y="70"/>
      <point x="415" y="27"/>
    </contour>
    <contour>
      <point x="309" y="-24" type="move" name="bottom"/>
    </contour>
  </outline>
</glyph>
<glyph name="w" format="1">
  <advance width="1048"/>
  <unicode hex="0077"/>
  <outline>
    <contour>
      <point x="902" y="485" type="curve"/>
      <point x="1045" y="485"/>
      <point x="899" y="485"/>
      <point x="1042" y="485" type="curve"/>
      <point x="1042" y="533"/>
      <point x="1042" y="485"/>
      <point x="1042" y="533" type="curve"/>
      <point x="995" y="533"/>
      <point x="949" y="533"/>
      <point x="902" y="533" type="curve"/>
      <point x="902" y="485"/>
      <point x="902" y="533"/>
    </contour>
    <contour>
      <point x="902" y="533" type="curve"/>
      <point x="854" y="533"/>
      <point x="815" y="533"/>
      <point x="767" y="533" type="curve"/>
      <point x="767" y="485"/>
      <point x="767" y="533"/>
      <point x="767" y="485" type="curve"/>
      <point x="911" y="485"/>
      <point x="758" y="485"/>
      <point x="902" y="485" type="curve"/>
      <point x="902" y="533"/>
      <point x="902" y="485"/>
    </contour>
    <contour>
      <point x="147" y="533" type="curve"/>
      <point x="99" y="533"/>
      <point x="54" y="533"/>
      <point x="6" y="533" type="curve"/>
      <point x="6" y="485"/>
      <point x="6" y="533"/>
      <point x="6" y="485" type="curve"/>
      <point x="150" y="485"/>
      <point x="3" y="485"/>
      <point x="147" y="485" type="curve"/>
      <point x="147" y="533"/>
      <point x="147" y="485"/>
    </contour>
    <contour>
      <point x="147" y="485" type="curve"/>
      <point x="290" y="485"/>
      <point x="141" y="485"/>
      <point x="284" y="485" type="curve"/>
      <point x="284" y="533"/>
      <point x="284" y="485"/>
      <point x="284" y="533" type="curve"/>
      <point x="236" y="533"/>
      <point x="194" y="533"/>
      <point x="147" y="533" type="curve"/>
      <point x="147" y="485"/>
      <point x="147" y="533"/>
    </contour>
    <contour>
      <point x="346" y="0" type="curve"/>
      <point x="417" y="178"/>
      <point x="487" y="355"/>
      <point x="558" y="533" type="curve"/>
      <point x="498" y="533"/>
      <point x="558" y="533"/>
      <point x="498" y="533" type="curve"/>
      <point x="429" y="355"/>
      <point x="359" y="178"/>
      <point x="289" y="0" type="curve"/>
      <point x="346" y="0"/>
      <point x="289" y="0"/>
    </contour>
    <contour>
      <point x="892" y="533" type="curve"/>
      <point x="826" y="355"/>
      <point x="761" y="178"/>
      <point x="697" y="0" type="curve"/>
      <point x="753" y="0"/>
      <point x="697" y="0"/>
      <point x="753" y="0" type="curve"/>
      <point x="819" y="178"/>
      <point x="885" y="355"/>
      <point x="951" y="533" type="curve"/>
      <point x="892" y="533"/>
      <point x="951" y="533"/>
    </contour>
    <contour>
      <point x="505" y="533" type="curve"/>
      <point x="568" y="355"/>
      <point x="631" y="178"/>
      <point x="695" y="0" type="curve"/>
      <point x="752" y="0"/>
      <point x="695" y="0"/>
      <point x="752" y="0" type="curve"/>
      <point x="689" y="178"/>
      <point x="626" y="355"/>
      <point x="563" y="533" type="curve"/>
      <point x="505" y="533"/>
      <point x="563" y="533"/>
    </contour>
    <contour>
      <point x="98" y="533" type="curve"/>
      <point x="161" y="355"/>
      <point x="225" y="178"/>
      <point x="288" y="0" type="curve"/>
      <point x="345" y="0"/>
      <point x="288" y="0"/>
      <point x="345" y="0" type="curve"/>
      <point x="282" y="178"/>
      <point x="220" y="355"/>
      <point x="157" y="533" type="curve"/>
      <point x="98" y="533"/>
      <point x="157" y="533"/>
    </contour>
  </outline>
</glyph>
<glyph name="x" format="1">
  <advance width="709"/>
  <unicode hex="0078"/>
  <outline>
    <contour>
      <point x="139" y="48" type="curve"/>
      <point x="-1" y="48"/>
      <point x="150" y="48"/>
      <point x="10" y="48" type="curve"/>
      <point x="10" y="0"/>
      <point x="10" y="48"/>
      <point x="10" y="0" type="curve"/>
      <point x="56" y="0"/>
      <point x="92" y="0"/>
      <point x="139" y="0" type="curve"/>
      <point x="139" y="48"/>
      <point x="139" y="0"/>
    </contour>
    <contour>
      <point x="572" y="48" type="curve"/>
      <point x="416" y="48"/>
      <point x="579" y="48"/>
      <point x="423" y="48" type="curve"/>
      <point x="423" y="0"/>
      <point x="423" y="48"/>
      <point x="423" y="0" type="curve"/>
      <point x="474" y="0"/>
      <point x="520" y="0"/>
      <point x="572" y="0" type="curve"/>
      <point x="572" y="48"/>
      <point x="572" y="0"/>
    </contour>
    <contour>
      <point x="569" y="0" type="curve"/>
      <point x="615" y="0"/>
      <point x="656" y="0"/>
      <point x="702" y="0" type="curve"/>
      <point x="702" y="48"/>
      <point x="702" y="0"/>
      <point x="702" y="48" type="curve"/>
      <point x="563" y="48"/>
      <point x="708" y="48"/>
      <point x="569" y="48" type="curve"/>
      <point x="569" y="0"/>
      <point x="569" y="48"/>
    </contour>
    <contour>
      <point x="136" y="0" type="curve"/>
      <point x="188" y="0"/>
      <point x="130" y="0"/>
      <point x="287" y="0" type="curve"/>
      <point x="287" y="48"/>
      <point x="287" y="0"/>
      <point x="287" y="48" type="curve"/>
      <point x="130" y="48"/>
      <point x="293" y="48"/>
      <point x="136" y="48" type="curve"/>
      <point x="136" y="0"/>
      <point x="136" y="48"/>
    </contour>
    <contour>
      <point x="552" y="485" type="curve"/>
      <point x="694" y="485"/>
      <point x="546" y="485"/>
      <point x="688" y="485" type="curve"/>
      <point x="688" y="533"/>
      <point x="688" y="485"/>
      <point x="688" y="533" type="curve"/>
      <point x="641" y="533"/>
      <point x="599" y="533"/>
      <point x="552" y="533" type="curve"/>
      <point x="552" y="485"/>
      <point x="552" y="533"/>
    </contour>
    <contour>
      <point x="167" y="533" type="curve"/>
      <point x="120" y="533"/>
      <point x="79" y="533"/>
      <point x="32" y="533" type="curve"/>
      <point x="32" y="485"/>
      <point x="32" y="533"/>
      <point x="32" y="485" type="curve"/>
      <point x="174" y="485"/>
      <point x="25" y="485"/>
      <point x="167" y="485" type="curve"/>
      <point x="167" y="533"/>
      <point x="167" y="485"/>
    </contour>
    <contour>
      <point x="159" y="485" type="curve"/>
      <point x="311" y="485"/>
      <point x="148" y="485"/>
      <point x="300" y="485" type="curve"/>
      <point x="300" y="533"/>
      <point x="300" y="485"/>
      <point x="300" y="533" type="curve"/>
      <point x="249" y="533"/>
      <point x="209" y="533"/>
      <point x="159" y="533" type="curve"/>
      <point x="159" y="485"/>
      <point x="159" y="533"/>
    </contour>
    <contour>
      <point x="556" y="533" type="curve"/>
      <point x="506" y="533"/>
      <point x="466" y="533"/>
      <point x="417" y="533" type="curve"/>
      <point x="417" y="485"/>
      <point x="417" y="533"/>
      <point x="417" y="485" type="curve"/>
      <point x="566" y="485"/>
      <point x="407" y="485"/>
      <point x="556" y="485" type="curve"/>
      <point x="556" y="533"/>
      <point x="556" y="485"/>
    </contour>
    <contour>
      <point x="612" y="14" type="curve"/>
      <point x="508" y="141"/>
      <point x="277" y="405"/>
      <point x="172" y="533" type="curve"/>
      <point x="115" y="533"/>
      <point x="177" y="518"/>
      <point x="119" y="518" type="curve"/>
      <point x="223" y="391"/>
      <point x="451" y="128"/>
      <point x="554" y="1" type="curve"/>
      <point x="617" y="1"/>
      <point x="550" y="14"/>
    </contour>
    <contour>
      <point x="549" y="533" type="curve"/>
      <point x="444" y="405"/>
      <point x="203" y="142"/>
      <point x="98" y="15" type="curve"/>
      <point x="161" y="15"/>
      <point x="93" y="0"/>
      <point x="156" y="0" type="curve"/>
      <point x="260" y="128"/>
      <point x="495" y="390"/>
      <point x="599" y="518" type="curve"/>
      <point x="542" y="518"/>
      <point x="607" y="533"/>
    </contour>
  </outline>
</glyph>
<glyph name="braceleft" format="1">
  <advance width="330"/>
  <unicode hex="007B"/>
  <outline>
    <contour>
      <point x="281" y="-71" type="curve"/>
      <point x="217" y="-71"/>
      <point x="187" y="-27"/>
      <point x="187" y="38" type="curve"/>
      <point x="187" y="94"/>
      <point x="187" y="151"/>
      <point x="187" y="208" type="curve"/>
      <point x="187" y="302"/>
      <point x="133" y="364"/>
      <point x="40" y="364" type="curve"/>
      <point x="40" y="314"/>
      <point x="40" y="364"/>
      <point x="40" y="314" type="curve"/>
      <point x="100" y="314"/>
      <point x="132" y="275"/>
      <point x="132" y="212" type="curve"/>
      <point x="132" y="155"/>
      <point x="132" y="97"/>
      <point x="132" y="40" type="curve"/>
      <point x="132" y="-57"/>
      <point x="186" y="-119"/>
      <point x="281" y="-119" type="curve"/>
      <point x="281" y="-71"/>
      <point x="281" y="-119"/>
    </contour>
    <contour>
      <point x="281" y="797" type="curve"/>
      <point x="185" y="797"/>
      <point x="132" y="736"/>
      <point x="132" y="639" type="curve"/>
      <point x="132" y="581"/>
      <point x="132" y="522"/>
      <point x="132" y="464" type="curve"/>
      <point x="132" y="402"/>
      <point x="100" y="364"/>
      <point x="40" y="364" type="curve"/>
      <point x="40" y="314"/>
      <point x="40" y="364"/>
      <point x="40" y="314" type="curve"/>
      <point x="133" y="314"/>
      <point x="187" y="375"/>
      <point x="187" y="471" type="curve"/>
      <point x="187" y="527"/>
      <point x="187" y="583"/>
      <point x="187" y="639" type="curve"/>
      <point x="187" y="705"/>
      <point x="216" y="749"/>
      <point x="281" y="749" type="curve"/>
      <point x="281" y="797"/>
      <point x="281" y="749"/>
    </contour>
  </outline>
</glyph>
<glyph name="braceright" format="1">
  <advance width="330"/>
  <unicode hex="007D"/>
  <outline>
    <contour>
      <point x="49" y="-119" type="curve"/>
      <point x="145" y="-119"/>
      <point x="198" y="-57"/>
      <point x="198" y="40" type="curve"/>
      <point x="198" y="97"/>
      <point x="198" y="155"/>
      <point x="198" y="212" type="curve"/>
      <point x="198" y="274"/>
      <point x="230" y="314"/>
      <point x="291" y="314" type="curve"/>
      <point x="291" y="364"/>
      <point x="291" y="314"/>
      <point x="291" y="364" type="curve"/>
      <point x="197" y="364"/>
      <point x="143" y="302"/>
      <point x="143" y="208" type="curve"/>
      <point x="143" y="151"/>
      <point x="143" y="94"/>
      <point x="143" y="38" type="curve"/>
      <point x="143" y="-27"/>
      <point x="113" y="-72"/>
      <point x="49" y="-72" type="curve"/>
      <point x="49" y="-119"/>
      <point x="49" y="-72"/>
    </contour>
    <contour>
      <point x="49" y="749" type="curve"/>
      <point x="114" y="749"/>
      <point x="143" y="705"/>
      <point x="143" y="639" type="curve"/>
      <point x="143" y="583"/>
      <point x="143" y="527"/>
      <point x="143" y="471" type="curve"/>
      <point x="143" y="375"/>
      <point x="197" y="314"/>
      <point x="291" y="314" type="curve"/>
      <point x="291" y="364"/>
      <point x="291" y="314"/>
      <point x="291" y="364" type="curve"/>
      <point x="230" y="364"/>
      <point x="198" y="402"/>
      <point x="198" y="464" type="curve"/>
      <point x="198" y="522"/>
      <point x="198" y="581"/>
      <point x="198" y="639" type="curve"/>
      <point x="198" y="736"/>
      <point x="144" y="797"/>
      <point x="49" y="797" type="curve"/>
      <point x="49" y="749"/>
      <point x="49" y="797"/>
    </contour>
  </outline>
</glyph>
<glyph name="asciitilde" format="1">
  <advance width="711"/>
  <unicode hex="007E"/>
  <outline>
    <contour>
      <point x="581" y="354" type="curve"/>
      <point x="563" y="307"/>
      <point x="541" y="260"/>
      <point x="486" y="260" type="curve"/>
      <point x="439" y="260"/>
      <point x="410" y="274"/>
      <point x="373" y="303" type="curve"/>
      <point x="328" y="338"/>
      <point x="293" y="359"/>
      <point x="236" y="359" type="curve"/>
      <point x="148" y="359"/>
      <point x="107" y="313"/>
      <point x="83" y="232" type="curve"/>
      <point x="109" y="222"/>
      <point x="102" y="223"/>
      <point x="129" y="214" type="curve"/>
      <point x="145" y="269"/>
      <point x="172" y="310"/>
      <point x="233" y="310" type="curve"/>
      <point x="274" y="310"/>
      <point x="300" y="297"/>
      <point x="332" y="272" type="curve"/>
      <point x="382" y="234"/>
      <point x="419" y="212"/>
      <point x="482" y="212" type="curve"/>
      <point x="566" y="212"/>
      <point x="602" y="263"/>
      <point x="629" y="337" type="curve"/>
      <point x="602" y="346"/>
      <point x="609" y="345"/>
    </contour>
  </outline>
</glyph>
<glyph name="exclamdown" format="1">
  <advance width="241"/>
  <unicode hex="00A1"/>
  <outline>
    <contour>
      <point x="93" y="306" type="line"/>
      <point x="86" y="-187" type="line"/>
      <point x="154" y="-187" type="line"/>
      <point x="148" y="306" type="line"/>
    </contour>
    <contour>
      <point x="83" y="508" type="curve"/>
      <point x="83" y="486"/>
      <point x="99" y="475"/>
      <point x="121" y="474" type="curve"/>
      <point x="143" y="474"/>
      <point x="157" y="487"/>
      <point x="157" y="508" type="curve"/>
      <point x="92" y="508"/>
      <point x="148" y="508"/>
      <point x="83" y="508" type="curve"/>
      <point x="83" y="530"/>
      <point x="99" y="541"/>
      <point x="121" y="541" type="curve"/>
      <point x="143" y="541"/>
      <point x="157" y="530"/>
      <point x="157" y="508" type="curve"/>
      <point x="92" y="508"/>
      <point x="148" y="508"/>
    </contour>
  </outline>
</glyph>
<glyph name="sterling" format="1">
  <advance width="541"/>
  <unicode hex="00A3"/>
  <outline>
    <contour>
      <point x="470" y="48" type="curve"/>
      <point x="329" y="48"/>
      <point x="189" y="48"/>
      <point x="49" y="48" type="curve"/>
      <point x="49" y="0"/>
      <point x="49" y="48"/>
      <point x="49" y="0" type="curve"/>
      <point x="189" y="0"/>
      <point x="330" y="0"/>
      <point x="470" y="0" type="curve"/>
      <point x="470" y="48"/>
      <point x="470" y="0"/>
    </contour>
    <contour>
      <point x="420" y="400" type="curve"/>
      <point x="308" y="400"/>
      <point x="195" y="400"/>
      <point x="84" y="400" type="curve"/>
      <point x="84" y="353"/>
      <point x="84" y="400"/>
      <point x="84" y="353" type="curve"/>
      <point x="195" y="353"/>
      <point x="308" y="353"/>
      <point x="420" y="353" type="curve"/>
      <point x="420" y="400"/>
      <point x="420" y="353"/>
    </contour>
    <contour>
      <point x="489" y="671" type="curve"/>
      <point x="440" y="707"/>
      <point x="400" y="723"/>
      <point x="341" y="723" type="curve"/>
      <point x="177" y="723"/>
      <point x="126" y="562"/>
      <point x="168" y="371" type="curve"/>
      <point x="205" y="201"/>
      <point x="182" y="48"/>
      <point x="49" y="48" type="curve"/>
      <point x="49" y="0"/>
      <point x="49" y="48"/>
      <point x="49" y="0" type="curve"/>
      <point x="228" y="0"/>
      <point x="270" y="177"/>
      <point x="226" y="381" type="curve"/>
      <point x="192" y="538"/>
      <point x="222" y="677"/>
      <point x="338" y="677" type="curve"/>
      <point x="386" y="677"/>
      <point x="419" y="663"/>
      <point x="458" y="635" type="curve"/>
      <point x="489" y="671"/>
      <point x="458" y="635"/>
    </contour>
  </outline>
</glyph>
<glyph name="currency" format="1">
  <advance width="665"/>
  <unicode hex="00A4"/>
  <outline>
    <contour>
      <point x="208" y="312" type="curve"/>
      <point x="208" y="390"/>
      <point x="254" y="441"/>
      <point x="333" y="441" type="curve"/>
      <point x="413" y="441"/>
      <point x="456" y="391"/>
      <point x="456" y="312" type="curve"/>
      <point x="456" y="232"/>
      <point x="415" y="177"/>
      <point x="337" y="177" type="curve"/>
      <point x="254" y="177"/>
      <point x="208" y="229"/>
      <point x="208" y="312" type="curve"/>
      <point x="148" y="312"/>
      <point x="209" y="312"/>
      <point x="149" y="312" type="curve"/>
      <point x="149" y="198"/>
      <point x="221" y="130"/>
      <point x="336" y="130" type="curve"/>
      <point x="448" y="130"/>
      <point x="516" y="202"/>
      <point x="516" y="314" type="curve"/>
      <point x="516" y="422"/>
      <point x="447" y="489"/>
      <point x="338" y="489" type="curve"/>
      <point x="223" y="489"/>
      <point x="149" y="424"/>
      <point x="149" y="312" type="curve"/>
      <point x="209" y="312"/>
      <point x="148" y="312"/>
    </contour>
    <contour>
      <point x="455" y="388" type="line"/>
      <point x="600" y="525" type="line"/>
      <point x="552" y="573" type="line"/>
      <point x="415" y="428" type="line"/>
    </contour>
    <contour>
      <point x="416" y="195" type="line"/>
      <point x="553" y="51" type="line"/>
      <point x="601" y="99" type="line"/>
      <point x="456" y="236" type="line"/>
    </contour>
    <contour>
      <point x="207" y="237" type="line"/>
      <point x="63" y="100" type="line"/>
      <point x="111" y="52" type="line"/>
      <point x="248" y="196" type="line"/>
    </contour>
    <contour>
      <point x="251" y="429" type="line"/>
      <point x="113" y="573" type="line"/>
      <point x="66" y="525" type="line"/>
      <point x="210" y="388" type="line"/>
    </contour>
  </outline>
</glyph>
<glyph name="yen" format="1">
  <advance width="830"/>
  <unicode hex="00A5"/>
  <outline>
    <contour>
      <point x="646" y="390" type="curve"/>
      <point x="572" y="390"/>
      <point x="499" y="390"/>
      <point x="425" y="390" type="curve"/>
      <point x="425" y="338"/>
      <point x="425" y="390"/>
      <point x="425" y="338" type="curve"/>
      <point x="499" y="338"/>
      <point x="572" y="338"/>
      <point x="646" y="338" type="curve"/>
      <point x="646" y="390"/>
      <point x="646" y="338"/>
    </contour>
    <contour>
      <point x="395" y="390" type="curve"/>
      <point x="323" y="390"/>
      <point x="251" y="390"/>
      <point x="179" y="390" type="curve"/>
      <point x="179" y="338"/>
      <point x="179" y="390"/>
      <point x="179" y="338" type="curve"/>
      <point x="251" y="338"/>
      <point x="323" y="338"/>
      <point x="395" y="338" type="curve"/>
      <point x="395" y="390"/>
      <point x="395" y="338"/>
    </contour>
    <contour>
      <point x="646" y="260" type="curve"/>
      <point x="490" y="260"/>
      <point x="334" y="260"/>
      <point x="179" y="260" type="curve"/>
      <point x="179" y="208"/>
      <point x="179" y="260"/>
      <point x="179" y="208" type="curve"/>
      <point x="334" y="208"/>
      <point x="490" y="208"/>
      <point x="646" y="208" type="curve"/>
      <point x="646" y="260"/>
      <point x="646" y="208"/>
    </contour>
    <contour>
      <point x="408" y="48" type="curve"/>
      <point x="249" y="48"/>
      <point x="411" y="48"/>
      <point x="252" y="48" type="curve"/>
      <point x="252" y="0"/>
      <point x="252" y="48"/>
      <point x="252" y="0" type="curve"/>
      <point x="305" y="0"/>
      <point x="355" y="0"/>
      <point x="408" y="0" type="curve"/>
      <point x="408" y="48"/>
      <point x="408" y="0"/>
    </contour>
    <contour>
      <point x="408" y="0" type="curve"/>
      <point x="461" y="0"/>
      <point x="512" y="0"/>
      <point x="564" y="0" type="curve"/>
      <point x="564" y="48"/>
      <point x="564" y="0"/>
      <point x="564" y="48" type="curve"/>
      <point x="405" y="48"/>
      <point x="567" y="48"/>
      <point x="408" y="48" type="curve"/>
      <point x="408" y="0"/>
      <point x="408" y="48"/>
    </contour>
    <contour>
      <point x="642" y="722" type="curve"/>
      <point x="590" y="722"/>
      <point x="540" y="722"/>
      <point x="488" y="722" type="curve"/>
      <point x="488" y="674"/>
      <point x="488" y="722"/>
      <point x="488" y="674" type="curve"/>
      <point x="646" y="674"/>
      <point x="485" y="674"/>
      <point x="642" y="674" type="curve"/>
      <point x="642" y="722"/>
      <point x="642" y="674"/>
    </contour>
    <contour>
      <point x="185" y="722" type="curve"/>
      <point x="134" y="722"/>
      <point x="86" y="722"/>
      <point x="36" y="722" type="curve"/>
      <point x="36" y="674"/>
      <point x="36" y="722"/>
      <point x="36" y="674" type="curve"/>
      <point x="188" y="674"/>
      <point x="33" y="674"/>
      <point x="185" y="674" type="curve"/>
      <point x="185" y="722"/>
      <point x="185" y="674"/>
    </contour>
    <contour>
      <point x="187" y="674" type="curve"/>
      <point x="345" y="674"/>
      <point x="184" y="674"/>
      <point x="342" y="674" type="curve"/>
      <point x="342" y="722"/>
      <point x="342" y="674"/>
      <point x="342" y="722" type="curve"/>
      <point x="290" y="722"/>
      <point x="240" y="722"/>
      <point x="187" y="722" type="curve"/>
      <point x="187" y="674"/>
      <point x="187" y="722"/>
    </contour>
    <contour>
      <point x="645" y="674" type="curve"/>
      <point x="797" y="674"/>
      <point x="642" y="674"/>
      <point x="794" y="674" type="curve"/>
      <point x="794" y="722"/>
      <point x="794" y="674"/>
      <point x="794" y="722" type="curve"/>
      <point x="744" y="722"/>
      <point x="696" y="722"/>
      <point x="645" y="722" type="curve"/>
      <point x="645" y="674"/>
      <point x="645" y="722"/>
    </contour>
    <contour>
      <point x="137" y="716" type="curve"/>
      <point x="217" y="589"/>
      <point x="297" y="463"/>
      <point x="377" y="336" type="curve"/>
      <point x="438" y="336"/>
      <point x="374" y="336"/>
      <point x="435" y="336" type="curve"/>
      <point x="355" y="465"/>
      <point x="274" y="593"/>
      <point x="194" y="722" type="curve"/>
      <point x="137" y="722"/>
      <point x="194" y="716"/>
    </contour>
    <contour>
      <point x="636" y="722" type="curve"/>
      <point x="550" y="593"/>
      <point x="466" y="465"/>
      <point x="380" y="336" type="curve"/>
      <point x="441" y="336"/>
      <point x="378" y="336"/>
      <point x="439" y="336" type="curve"/>
      <point x="524" y="463"/>
      <point x="608" y="590"/>
      <point x="693" y="716" type="curve"/>
      <point x="636" y="716"/>
      <point x="693" y="722"/>
    </contour>
    <contour>
      <point x="440" y="0" type="curve"/>
      <point x="440" y="114"/>
      <point x="440" y="227"/>
      <point x="440" y="341" type="curve"/>
      <point x="376" y="341"/>
      <point x="440" y="341"/>
      <point x="376" y="341" type="curve"/>
      <point x="376" y="227"/>
      <point x="376" y="114"/>
      <point x="376" y="0" type="curve"/>
      <point x="440" y="0"/>
      <point x="376" y="0"/>
    </contour>
  </outline>
</glyph>
<glyph name="brokenbar" format="1">
  <advance width="246"/>
  <unicode hex="00A6"/>
  <outline>
    <contour>
      <point x="153" y="-300" type="curve"/>
      <point x="153" y="-176"/>
      <point x="153" y="-52"/>
      <point x="153" y="72" type="curve"/>
      <point x="94" y="72"/>
      <point x="153" y="72"/>
      <point x="94" y="72" type="curve"/>
      <point x="94" y="-52"/>
      <point x="94" y="-176"/>
      <point x="94" y="-300" type="curve"/>
      <point x="153" y="-300"/>
      <point x="94" y="-300"/>
    </contour>
    <contour>
      <point x="153" y="428" type="curve"/>
      <point x="153" y="552"/>
      <point x="153" y="676"/>
      <point x="153" y="800" type="curve"/>
      <point x="94" y="800"/>
      <point x="153" y="800"/>
      <point x="94" y="800" type="curve"/>
      <point x="94" y="676"/>
      <point x="94" y="552"/>
      <point x="94" y="428" type="curve"/>
      <point x="153" y="428"/>
      <point x="94" y="428"/>
    </contour>
  </outline>
</glyph>
<glyph name="section" format="1">
  <advance width="528"/>
  <unicode hex="00A7"/>
  <outline>
    <contour>
      <point x="426" y="707" type="curve"/>
      <point x="370" y="736"/>
      <point x="328" y="751"/>
      <point x="266" y="751" type="curve"/>
      <point x="168" y="751"/>
      <point x="101" y="705"/>
      <point x="101" y="617" type="curve"/>
      <point x="101" y="535"/>
      <point x="158" y="495"/>
      <point x="238" y="468" type="curve"/>
      <point x="320" y="441"/>
      <point x="407" y="434"/>
      <point x="407" y="360" type="curve"/>
      <point x="407" y="293"/>
      <point x="358" y="257"/>
      <point x="285" y="244" type="curve"/>
      <point x="320" y="206"/>
      <point x="285" y="244"/>
      <point x="320" y="206" type="curve"/>
      <point x="409" y="227"/>
      <point x="466" y="273"/>
      <point x="466" y="361" type="curve"/>
      <point x="465" y="463"/>
      <point x="371" y="482"/>
      <point x="268" y="513" type="curve"/>
      <point x="208" y="532"/>
      <point x="159" y="558"/>
      <point x="159" y="617" type="curve"/>
      <point x="159" y="673"/>
      <point x="200" y="703"/>
      <point x="263" y="703" type="curve"/>
      <point x="316" y="703"/>
      <point x="351" y="691"/>
      <point x="400" y="667" type="curve"/>
      <point x="426" y="707"/>
      <point x="400" y="667"/>
    </contour>
    <contour>
      <point x="205" y="517" type="curve"/>
      <point x="122" y="493"/>
      <point x="65" y="451"/>
      <point x="65" y="367" type="curve"/>
      <point x="65" y="270"/>
      <point x="147" y="242"/>
      <point x="245" y="212" type="curve"/>
      <point x="313" y="190"/>
      <point x="377" y="172"/>
      <point x="377" y="109" type="curve"/>
      <point x="377" y="50"/>
      <point x="331" y="19"/>
      <point x="267" y="19" type="curve"/>
      <point x="206" y="19"/>
      <point x="167" y="35"/>
      <point x="114" y="67" type="curve"/>
      <point x="83" y="31"/>
      <point x="114" y="67"/>
      <point x="83" y="31" type="curve"/>
      <point x="143" y="-10"/>
      <point x="193" y="-28"/>
      <point x="265" y="-28" type="curve"/>
      <point x="364" y="-28"/>
      <point x="436" y="15"/>
      <point x="436" y="110" type="curve"/>
      <point x="435" y="195"/>
      <point x="370" y="231"/>
      <point x="283" y="257" type="curve"/>
      <point x="204" y="283"/>
      <point x="125" y="296"/>
      <point x="125" y="369" type="curve"/>
      <point x="125" y="432"/>
      <point x="170" y="462"/>
      <point x="235" y="482" type="curve"/>
      <point x="205" y="517"/>
      <point x="235" y="482"/>
    </contour>
    <contour>
      <point x="131" y="31" type="curve"/>
      <point x="131" y="151"/>
      <point x="131" y="32"/>
      <point x="131" y="152" type="curve"/>
      <point x="83" y="152"/>
      <point x="131" y="152"/>
      <point x="83" y="152" type="curve"/>
      <point x="83" y="32"/>
      <point x="83" y="151"/>
      <point x="83" y="31" type="curve"/>
      <point x="131" y="31"/>
      <point x="83" y="31"/>
    </contour>
    <contour>
      <point x="426" y="586" type="curve"/>
      <point x="426" y="706"/>
      <point x="426" y="587"/>
      <point x="426" y="707" type="curve"/>
      <point x="377" y="707"/>
      <point x="426" y="707"/>
      <point x="377" y="707" type="curve"/>
      <point x="377" y="587"/>
      <point x="377" y="706"/>
      <point x="377" y="586" type="curve"/>
      <point x="426" y="586"/>
      <point x="377" y="586"/>
    </contour>
  </outline>
</glyph>
<glyph name="dieresis" format="1">
  <advance width="388"/>
  <unicode hex="00A8"/>
  <outline>
    <contour>
      <point x="121" y="654" type="curve"/>
      <point x="121" y="676"/>
      <point x="105" y="688"/>
      <point x="82" y="688" type="curve"/>
      <point x="61" y="688"/>
      <point x="46" y="675"/>
      <point x="46" y="654" type="curve"/>
      <point x="111" y="654"/>
      <point x="55" y="654"/>
      <point x="121" y="654" type="curve"/>
      <point x="121" y="632"/>
      <point x="105" y="621"/>
      <point x="82" y="621" type="curve"/>
      <point x="60" y="621"/>
      <point x="46" y="632"/>
      <point x="46" y="654" type="curve"/>
      <point x="111" y="654"/>
      <point x="55" y="654"/>
    </contour>
    <contour>
      <point x="273" y="654" type="curve"/>
      <point x="273" y="676"/>
      <point x="257" y="688"/>
      <point x="235" y="688" type="curve"/>
      <point x="213" y="688"/>
      <point x="199" y="675"/>
      <point x="199" y="654" type="curve"/>
      <point x="264" y="654"/>
      <point x="208" y="654"/>
      <point x="273" y="654" type="curve"/>
      <point x="273" y="632"/>
      <point x="258" y="621"/>
      <point x="235" y="621" type="curve"/>
      <point x="213" y="621"/>
      <point x="199" y="632"/>
      <point x="199" y="654" type="curve"/>
      <point x="264" y="654"/>
      <point x="208" y="654"/>
    </contour>
    <contour>
      <point x="160" y="623" type="move" name="_top"/>
    </contour>
  </outline>
</glyph>
<glyph name="copyright" format="1">
  <advance width="810"/>
  <unicode hex="00A9"/>
  <outline>
    <contour>
      <point x="115" y="321" type="curve"/>
      <point x="115" y="494"/>
      <point x="233" y="605"/>
      <point x="409" y="605" type="curve"/>
      <point x="580" y="605"/>
      <point x="695" y="492"/>
      <point x="695" y="319" type="curve"/>
      <point x="695" y="151"/>
      <point x="583" y="40"/>
      <point x="416" y="40" type="curve"/>
      <point x="240" y="40"/>
      <point x="115" y="146"/>
      <point x="115" y="321" type="curve"/>
      <point x="63" y="321"/>
      <point x="116" y="321"/>
      <point x="64" y="321" type="curve"/>
      <point x="64" y="122"/>
      <point x="209" y="-1"/>
      <point x="414" y="-1" type="curve"/>
      <point x="611" y="-1"/>
      <point x="746" y="125"/>
      <point x="746" y="321" type="curve"/>
      <point x="746" y="519"/>
      <point x="608" y="645"/>
      <point x="409" y="645" type="curve"/>
      <point x="206" y="645"/>
      <point x="64" y="520"/>
      <point x="64" y="321" type="curve"/>
      <point x="116" y="321"/>
      <point x="63" y="321"/>
    </contour>
    <contour>
      <point x="497" y="441" type="curve"/>
      <point x="497" y="421"/>
      <point x="497" y="400"/>
      <point x="497" y="379" type="curve"/>
      <point x="544" y="379"/>
      <point x="497" y="379"/>
      <point x="544" y="379" type="curve"/>
      <point x="544" y="408"/>
      <point x="544" y="437"/>
      <point x="544" y="465" type="curve"/>
      <point x="497" y="442"/>
      <point x="544" y="464"/>
    </contour>
    <contour>
      <point x="544" y="465" type="curve"/>
      <point x="503" y="491"/>
      <point x="466" y="501"/>
      <point x="415" y="501" type="curve"/>
      <point x="301" y="501"/>
      <point x="231" y="433"/>
      <point x="231" y="320" type="curve"/>
      <point x="231" y="212"/>
      <point x="293" y="144"/>
      <point x="401" y="144" type="curve"/>
      <point x="462" y="144"/>
      <point x="505" y="155"/>
      <point x="554" y="194" type="curve"/>
      <point x="524" y="223"/>
      <point x="554" y="194"/>
      <point x="524" y="223" type="curve"/>
      <point x="484" y="195"/>
      <point x="451" y="185"/>
      <point x="403" y="185" type="curve"/>
      <point x="323" y="185"/>
      <point x="281" y="240"/>
      <point x="281" y="322" type="curve"/>
      <point x="281" y="407"/>
      <point x="328" y="460"/>
      <point x="413" y="460" type="curve"/>
      <point x="448" y="460"/>
      <point x="471" y="454"/>
      <point x="497" y="442" type="curve"/>
      <point x="544" y="464"/>
      <point x="497" y="443"/>
    </contour>
  </outline>
</glyph>
<glyph name="ordfeminine" format="1">
  <advance width="477"/>
  <unicode hex="00AA"/>
  <outline>
    <contour>
      <point x="87" y="719" type="curve"/>
      <point x="87" y="681"/>
      <point x="87" y="690"/>
      <point x="87" y="651" type="curve"/>
      <point x="115" y="651"/>
      <point x="97" y="651"/>
      <point x="125" y="651" type="curve"/>
      <point x="125" y="690"/>
      <point x="125" y="681"/>
      <point x="125" y="719" type="curve"/>
      <point x="97" y="719"/>
      <point x="115" y="719"/>
    </contour>
    <contour>
      <point x="353" y="427" type="curve"/>
      <point x="353" y="517"/>
      <point x="353" y="587"/>
      <point x="353" y="677" type="curve"/>
      <point x="353" y="746"/>
      <point x="295" y="769"/>
      <point x="220" y="769" type="curve"/>
      <point x="165" y="769"/>
      <point x="120" y="749"/>
      <point x="87" y="719" type="curve"/>
      <point x="101" y="697"/>
      <point x="93" y="711"/>
      <point x="107" y="688" type="curve"/>
      <point x="132" y="710"/>
      <point x="168" y="732"/>
      <point x="214" y="732" type="curve"/>
      <point x="266" y="732"/>
      <point x="307" y="715"/>
      <point x="307" y="667" type="curve"/>
      <point x="307" y="581"/>
      <point x="307" y="514"/>
      <point x="307" y="427" type="curve"/>
      <point x="341" y="427"/>
      <point x="318" y="427"/>
    </contour>
    <contour>
      <point x="331" y="427" type="curve"/>
      <point x="358" y="427"/>
      <point x="378" y="427"/>
      <point x="404" y="427" type="curve"/>
      <point x="404" y="454"/>
      <point x="404" y="437"/>
      <point x="404" y="464" type="curve"/>
      <point x="361" y="464"/>
      <point x="375" y="464"/>
      <point x="331" y="464" type="curve"/>
      <point x="331" y="437"/>
      <point x="331" y="454"/>
    </contour>
    <contour>
      <point x="328" y="638" type="curve"/>
      <point x="277" y="632"/>
      <point x="243" y="630"/>
      <point x="192" y="624" type="curve"/>
      <point x="123" y="615"/>
      <point x="72" y="587"/>
      <point x="72" y="521" type="curve"/>
      <point x="72" y="455"/>
      <point x="120" y="423"/>
      <point x="190" y="423" type="curve"/>
      <point x="260" y="423"/>
      <point x="301" y="465"/>
      <point x="340" y="518" type="curve"/>
      <point x="324" y="532"/>
      <point x="334" y="524"/>
      <point x="318" y="538" type="curve"/>
      <point x="288" y="495"/>
      <point x="254" y="459"/>
      <point x="199" y="459" type="curve"/>
      <point x="151" y="459"/>
      <point x="117" y="479"/>
      <point x="117" y="523" type="curve"/>
      <point x="117" y="565"/>
      <point x="149" y="584"/>
      <point x="191" y="590" type="curve"/>
      <point x="243" y="597"/>
      <point x="278" y="600"/>
      <point x="330" y="606" type="curve"/>
      <point x="329" y="629"/>
      <point x="329" y="615"/>
    </contour>
  </outline>
</glyph>
<glyph name="guillemotleft" format="1">
  <advance width="637"/>
  <unicode hex="00AB"/>
  <outline>
    <contour>
      <point x="306" y="423" type="curve"/>
      <point x="289" y="413"/>
      <point x="86" y="317"/>
      <point x="69" y="307" type="curve"/>
      <point x="69" y="255"/>
      <point x="69" y="304"/>
      <point x="69" y="252" type="curve"/>
      <point x="86" y="262"/>
      <point x="289" y="360"/>
      <point x="306" y="370" type="curve"/>
      <point x="306" y="422"/>
      <point x="306" y="371"/>
    </contour>
    <contour>
      <point x="306" y="190" type="curve"/>
      <point x="290" y="200"/>
      <point x="86" y="297"/>
      <point x="69" y="307" type="curve"/>
      <point x="69" y="255"/>
      <point x="69" y="304"/>
      <point x="69" y="252" type="curve"/>
      <point x="86" y="242"/>
      <point x="290" y="147"/>
      <point x="306" y="137" type="curve"/>
      <point x="306" y="189"/>
      <point x="306" y="138"/>
    </contour>
    <contour>
      <point x="546" y="423" type="curve"/>
      <point x="529" y="413"/>
      <point x="326" y="317"/>
      <point x="309" y="307" type="curve"/>
      <point x="309" y="255"/>
      <point x="309" y="304"/>
      <point x="309" y="252" type="curve"/>
      <point x="326" y="262"/>
      <point x="529" y="360"/>
      <point x="546" y="370" type="curve"/>
      <point x="546" y="422"/>
      <point x="546" y="371"/>
    </contour>
    <contour>
      <point x="546" y="190" type="curve"/>
      <point x="530" y="200"/>
      <point x="326" y="297"/>
      <point x="309" y="307" type="curve"/>
      <point x="309" y="255"/>
      <point x="309" y="304"/>
      <point x="309" y="252" type="curve"/>
      <point x="326" y="242"/>
      <point x="530" y="147"/>
      <point x="546" y="137" type="curve"/>
      <point x="546" y="189"/>
      <point x="546" y="138"/>
    </contour>
  </outline>
</glyph>
<glyph name="logicalnot" format="1">
  <advance width="718"/>
  <unicode hex="00AC"/>
  <outline>
    <contour>
      <point x="102" y="284" type="curve"/>
      <point x="633" y="284" type="line"/>
      <point x="633" y="337"/>
      <point x="633" y="284"/>
      <point x="633" y="337" type="curve"/>
      <point x="102" y="337" type="line"/>
      <point x="102" y="284"/>
      <point x="102" y="337"/>
    </contour>
    <contour>
      <point x="633" y="149" type="curve"/>
      <point x="633" y="337" type="line"/>
      <point x="573" y="337"/>
      <point x="635" y="337"/>
      <point x="575" y="337" type="curve"/>
      <point x="575" y="149" type="line"/>
      <point x="635" y="149"/>
      <point x="573" y="149"/>
    </contour>
  </outline>
</glyph>
<glyph name="registered" format="1">
  <advance width="813"/>
  <unicode hex="00AE"/>
  <outline>
    <contour>
      <point x="111" y="320" type="curve"/>
      <point x="111" y="498"/>
      <point x="230" y="607"/>
      <point x="410" y="607" type="curve"/>
      <point x="586" y="607"/>
      <point x="702" y="495"/>
      <point x="702" y="319" type="curve"/>
      <point x="702" y="147"/>
      <point x="589" y="37"/>
      <point x="417" y="37" type="curve"/>
      <point x="237" y="37"/>
      <point x="111" y="142"/>
      <point x="111" y="320" type="curve"/>
      <point x="83" y="320"/>
      <point x="92" y="320"/>
      <point x="64" y="320" type="curve"/>
      <point x="64" y="119"/>
      <point x="207" y="-2"/>
      <point x="415" y="-2" type="curve"/>
      <point x="616" y="-2"/>
      <point x="749" y="123"/>
      <point x="749" y="321" type="curve"/>
      <point x="749" y="521"/>
      <point x="613" y="645"/>
      <point x="410" y="645" type="curve"/>
      <point x="204" y="645"/>
      <point x="64" y="523"/>
      <point x="64" y="320" type="curve"/>
      <point x="92" y="320"/>
      <point x="83" y="320"/>
    </contour>
    <contour>
      <point x="505" y="147" type="curve"/>
      <point x="533" y="147"/>
      <point x="555" y="147"/>
      <point x="584" y="147" type="curve"/>
      <point x="584" y="187"/>
      <point x="584" y="147"/>
      <point x="584" y="187" type="curve"/>
      <point x="568" y="187"/>
      <point x="555" y="187"/>
      <point x="539" y="187" type="curve"/>
      <point x="507" y="162"/>
      <point x="532" y="190"/>
    </contour>
    <contour>
      <point x="357" y="496" type="curve"/>
      <point x="320" y="496"/>
      <point x="287" y="496"/>
      <point x="250" y="496" type="curve"/>
      <point x="250" y="455"/>
      <point x="250" y="496"/>
      <point x="250" y="455" type="curve"/>
      <point x="269" y="455"/>
      <point x="286" y="455"/>
      <point x="305" y="455" type="curve"/>
      <point x="357" y="496"/>
      <point x="305" y="455"/>
    </contour>
    <contour>
      <point x="357" y="187" type="curve"/>
      <point x="320" y="187"/>
      <point x="287" y="187"/>
      <point x="250" y="187" type="curve"/>
      <point x="250" y="147"/>
      <point x="250" y="187"/>
      <point x="250" y="147" type="curve"/>
      <point x="269" y="147"/>
      <point x="286" y="147"/>
      <point x="305" y="147" type="curve"/>
      <point x="357" y="187"/>
      <point x="305" y="147"/>
    </contour>
    <contour>
      <point x="305" y="147" type="curve"/>
      <point x="337" y="147"/>
      <point x="368" y="147"/>
      <point x="400" y="147" type="curve"/>
      <point x="400" y="187"/>
      <point x="400" y="147"/>
      <point x="400" y="187" type="curve"/>
      <point x="385" y="187"/>
      <point x="372" y="187"/>
      <point x="356" y="187" type="curve"/>
      <point x="305" y="147"/>
      <point x="356" y="187"/>
    </contour>
    <contour>
      <point x="406" y="312" type="curve"/>
      <point x="435" y="265"/>
      <point x="476" y="193"/>
      <point x="505" y="147" type="curve"/>
      <point x="540" y="179"/>
      <point x="512" y="151"/>
      <point x="539" y="187" type="curve"/>
      <point x="463" y="311" type="line"/>
      <point x="401" y="311"/>
      <point x="468" y="312"/>
    </contour>
    <contour>
      <point x="355" y="187" type="curve"/>
      <point x="355" y="290"/>
      <point x="355" y="393"/>
      <point x="355" y="496" type="curve"/>
      <point x="303" y="455"/>
      <point x="357" y="496"/>
      <point x="305" y="455" type="curve"/>
      <point x="305" y="352"/>
      <point x="305" y="249"/>
      <point x="305" y="147" type="curve"/>
      <point x="357" y="187"/>
      <point x="303" y="147"/>
    </contour>
    <contour>
      <point x="333" y="287" type="curve"/>
      <point x="354" y="287"/>
      <point x="375" y="287"/>
      <point x="396" y="287" type="curve"/>
      <point x="476" y="287"/>
      <point x="532" y="315"/>
      <point x="532" y="392" type="curve"/>
      <point x="532" y="461"/>
      <point x="481" y="496"/>
      <point x="409" y="496" type="curve"/>
      <point x="392" y="496"/>
      <point x="374" y="496"/>
      <point x="357" y="496" type="curve"/>
      <point x="305" y="455"/>
      <point x="357" y="496"/>
      <point x="305" y="455" type="curve"/>
      <point x="337" y="455"/>
      <point x="368" y="455"/>
      <point x="400" y="455" type="curve"/>
      <point x="448" y="455"/>
      <point x="482" y="435"/>
      <point x="482" y="389" type="curve"/>
      <point x="482" y="344"/>
      <point x="450" y="328"/>
      <point x="404" y="328" type="curve"/>
      <point x="380" y="328"/>
      <point x="356" y="328"/>
      <point x="333" y="328" type="curve"/>
      <point x="333" y="287"/>
      <point x="333" y="328"/>
    </contour>
  </outline>
</glyph>
<glyph name="macron" format="1">
  <advance width="352"/>
  <unicode hex="00AF"/>
  <outline>
    <contour>
      <point x="261" y="677" type="curve"/>
      <point x="183" y="677"/>
      <point x="104" y="677"/>
      <point x="26" y="677" type="curve"/>
      <point x="26" y="630"/>
      <point x="26" y="677"/>
      <point x="26" y="630" type="curve"/>
      <point x="104" y="630"/>
      <point x="183" y="630"/>
      <point x="261" y="630" type="curve"/>
      <point x="261" y="677"/>
      <point x="261" y="630"/>
    </contour>
    <contour>
      <point x="147" y="630" type="move" name="_top"/>
    </contour>
  </outline>
</glyph>
<glyph name="degree" format="1">
  <advance width="503"/>
  <unicode hex="00B0"/>
  <outline>
    <contour>
      <point x="435" y="465" type="curve"/>
      <point x="435" y="587"/>
      <point x="370" y="668"/>
      <point x="251" y="668" type="curve"/>
      <point x="133" y="668"/>
      <point x="69" y="587"/>
      <point x="69" y="466" type="curve"/>
      <point x="112" y="466"/>
      <point x="78" y="466"/>
      <point x="121" y="466" type="curve"/>
      <point x="121" y="557"/>
      <point x="161" y="622"/>
      <point x="249" y="622" type="curve"/>
      <point x="337" y="622"/>
      <point x="381" y="557"/>
      <point x="381" y="465" type="curve"/>
      <point x="381" y="370"/>
      <point x="341" y="301"/>
      <point x="252" y="301" type="curve"/>
      <point x="161" y="301"/>
      <point x="121" y="371"/>
      <point x="121" y="466" type="curve"/>
      <point x="78" y="466"/>
      <point x="112" y="466"/>
      <point x="69" y="466" type="curve"/>
      <point x="69" y="341"/>
      <point x="130" y="256"/>
      <point x="250" y="256" type="curve"/>
      <point x="371" y="256"/>
      <point x="435" y="340"/>
    </contour>
  </outline>
</glyph>
<glyph name="plusminus" format="1">
  <advance width="708"/>
  <unicode hex="00B1"/>
  <outline>
    <contour>
      <point x="71" y="23" type="line"/>
      <point x="637" y="23" type="line"/>
      <point x="637" y="75" type="line"/>
      <point x="71" y="75" type="line"/>
    </contour>
    <contour>
      <point x="71" y="284" type="curve"/>
      <point x="637" y="284" type="line"/>
      <point x="637" y="337"/>
      <point x="637" y="284"/>
      <point x="637" y="337" type="curve"/>
      <point x="71" y="337" type="line"/>
      <point x="71" y="284"/>
      <point x="71" y="337"/>
    </contour>
    <contour>
      <point x="382" y="23" type="curve"/>
      <point x="382" y="587" type="line"/>
      <point x="321" y="587"/>
      <point x="384" y="587"/>
      <point x="324" y="587" type="curve"/>
      <point x="324" y="23" type="line"/>
      <point x="384" y="23"/>
      <point x="321" y="23"/>
    </contour>
  </outline>
</glyph>
<glyph name="twosuperior" format="1">
  <advance width="507"/>
  <unicode hex="00B2"/>
  <outline>
    <contour>
      <point x="428" y="297" type="curve"/>
      <point x="428" y="336"/>
      <point x="428" y="365"/>
      <point x="428" y="405" type="curve"/>
      <point x="382" y="405"/>
      <point x="431" y="405"/>
      <point x="385" y="405" type="curve"/>
      <point x="385" y="380"/>
      <point x="385" y="366"/>
      <point x="385" y="342" type="curve"/>
      <point x="433" y="300"/>
      <point x="380" y="340"/>
    </contour>
    <contour>
      <point x="77" y="297" type="curve"/>
      <point x="204" y="297"/>
      <point x="318" y="297"/>
      <point x="428" y="297" type="curve"/>
      <point x="380" y="340"/>
      <point x="433" y="300"/>
      <point x="385" y="342" type="curve"/>
      <point x="283" y="342"/>
      <point x="179" y="342"/>
      <point x="77" y="342" type="curve"/>
      <point x="77" y="298"/>
      <point x="77" y="342"/>
    </contour>
    <contour>
      <point x="142" y="608" type="curve"/>
      <point x="171" y="650"/>
      <point x="202" y="676"/>
      <point x="255" y="676" type="curve"/>
      <point x="313" y="676"/>
      <point x="352" y="647"/>
      <point x="352" y="593" type="curve"/>
      <point x="352" y="543"/>
      <point x="317" y="520"/>
      <point x="278" y="487" type="curve"/>
      <point x="211" y="439"/>
      <point x="144" y="390"/>
      <point x="77" y="342" type="curve"/>
      <point x="85" y="298"/>
      <point x="78" y="342"/>
      <point x="85" y="298" type="curve"/>
      <point x="165" y="352"/>
      <point x="241" y="401"/>
      <point x="311" y="452" type="curve"/>
      <point x="363" y="496"/>
      <point x="407" y="528"/>
      <point x="407" y="595" type="curve"/>
      <point x="407" y="677"/>
      <point x="346" y="720"/>
      <point x="259" y="720" type="curve"/>
      <point x="187" y="720"/>
      <point x="136" y="693"/>
      <point x="102" y="630" type="curve"/>
      <point x="142" y="608"/>
      <point x="102" y="630"/>
    </contour>
    <contour>
      <point x="266" y="719" type="move" name="_top"/>
    </contour>
    <contour>
      <point x="247" y="297" type="move" name="_bottom"/>
    </contour>
  </outline>
</glyph>
<glyph name="threesuperior" format="1">
  <advance width="453"/>
  <unicode hex="00B3"/>
  <outline>
    <contour>
      <point x="112" y="634" type="curve"/>
      <point x="140" y="659"/>
      <point x="172" y="676"/>
      <point x="209" y="676" type="curve"/>
      <point x="266" y="676"/>
      <point x="307" y="656"/>
      <point x="307" y="604" type="curve"/>
      <point x="307" y="543"/>
      <point x="236" y="533"/>
      <point x="164" y="529" type="curve"/>
      <point x="164" y="491"/>
      <point x="164" y="529"/>
      <point x="164" y="491" type="curve"/>
      <point x="271" y="493"/>
      <point x="364" y="513"/>
      <point x="364" y="607" type="curve"/>
      <point x="364" y="687"/>
      <point x="301" y="719"/>
      <point x="215" y="719" type="curve"/>
      <point x="163" y="719"/>
      <point x="116" y="698"/>
      <point x="82" y="664" type="curve"/>
      <point x="112" y="634"/>
      <point x="82" y="664"/>
    </contour>
    <contour>
      <point x="77" y="327" type="curve"/>
      <point x="116" y="304"/>
      <point x="156" y="292"/>
      <point x="200" y="292" type="curve"/>
      <point x="303" y="289"/>
      <point x="382" y="320"/>
      <point x="380" y="412" type="curve"/>
      <point x="380" y="512"/>
      <point x="277" y="518"/>
      <point x="164" y="521" type="curve"/>
      <point x="164" y="488"/>
      <point x="164" y="521"/>
      <point x="164" y="488" type="curve"/>
      <point x="249" y="484"/>
      <point x="324" y="476"/>
      <point x="324" y="411" type="curve"/>
      <point x="323" y="352"/>
      <point x="273" y="333"/>
      <point x="206" y="334" type="curve"/>
      <point x="170" y="334"/>
      <point x="137" y="343"/>
      <point x="102" y="360" type="curve"/>
      <point x="77" y="327"/>
      <point x="102" y="360"/>
    </contour>
    <contour>
      <point x="229" y="719" type="move" name="_top"/>
    </contour>
    <contour>
      <point x="218" y="291" type="move" name="_bottom"/>
    </contour>
  </outline>
</glyph>
<glyph name="paragraph" format="1">
  <advance width="753"/>
  <unicode hex="00B6"/>
  <outline>
    <contour>
      <point x="453" y="674" type="curve"/>
      <point x="620" y="674"/>
      <point x="453" y="674"/>
      <point x="620" y="674" type="curve"/>
      <point x="620" y="722"/>
      <point x="620" y="674"/>
      <point x="620" y="722" type="curve"/>
      <point x="564" y="722"/>
      <point x="508" y="722"/>
      <point x="453" y="722" type="curve"/>
      <point x="453" y="674"/>
      <point x="453" y="722"/>
    </contour>
    <contour>
      <point x="453" y="0" type="curve"/>
      <point x="508" y="0"/>
      <point x="564" y="0"/>
      <point x="620" y="0" type="curve"/>
      <point x="620" y="48"/>
      <point x="620" y="0"/>
      <point x="620" y="48" type="curve"/>
      <point x="453" y="48"/>
      <point x="620" y="48"/>
      <point x="453" y="48" type="curve"/>
      <point x="453" y="0"/>
      <point x="453" y="48"/>
    </contour>
    <contour>
      <point x="453" y="48" type="curve"/>
      <point x="295" y="48"/>
      <point x="453" y="48"/>
      <point x="295" y="48" type="curve"/>
      <point x="295" y="0"/>
      <point x="295" y="48"/>
      <point x="295" y="0" type="curve"/>
      <point x="453" y="0"/>
      <point x="400" y="0"/>
      <point x="453" y="0" type="curve"/>
      <point x="453" y="48"/>
      <point x="453" y="0"/>
    </contour>
    <contour>
      <point x="441" y="359" type="curve"/>
      <point x="388" y="333"/>
      <point x="347" y="318"/>
      <point x="287" y="318" type="curve"/>
      <point x="178" y="318"/>
      <point x="105" y="380"/>
      <point x="105" y="487" type="curve"/>
      <point x="105" y="609"/>
      <point x="194" y="674"/>
      <point x="321" y="674" type="curve"/>
      <point x="364" y="674"/>
      <point x="407" y="674"/>
      <point x="449" y="674" type="curve"/>
      <point x="449" y="722"/>
      <point x="449" y="674"/>
      <point x="449" y="722" type="curve"/>
      <point x="404" y="722"/>
      <point x="359" y="722"/>
      <point x="313" y="722" type="curve"/>
      <point x="157" y="722"/>
      <point x="45" y="639"/>
      <point x="45" y="490" type="curve"/>
      <point x="45" y="347"/>
      <point x="146" y="273"/>
      <point x="293" y="271" type="curve"/>
      <point x="354" y="271"/>
      <point x="406" y="290"/>
      <point x="461" y="316" type="curve"/>
      <point x="441" y="358"/>
      <point x="460" y="317"/>
    </contour>
    <contour>
      <point x="484" y="0" type="curve"/>
      <point x="484" y="241"/>
      <point x="484" y="481"/>
      <point x="484" y="722" type="curve"/>
      <point x="423" y="722"/>
      <point x="484" y="722"/>
      <point x="423" y="722" type="curve"/>
      <point x="423" y="481"/>
      <point x="423" y="241"/>
      <point x="423" y="0" type="curve"/>
      <point x="484" y="0"/>
      <point x="423" y="0"/>
    </contour>
    <contour>
      <point x="668" y="0" type="curve"/>
      <point x="668" y="241"/>
      <point x="668" y="481"/>
      <point x="668" y="722" type="curve"/>
      <point x="608" y="722"/>
      <point x="668" y="722"/>
      <point x="608" y="722" type="curve"/>
      <point x="608" y="481"/>
      <point x="608" y="241"/>
      <point x="608" y="0" type="curve"/>
      <point x="668" y="0"/>
      <point x="608" y="0"/>
    </contour>
  </outline>
</glyph>
<glyph name="periodcentered" format="1">
  <advance width="233"/>
  <unicode hex="00B7"/>
  <outline>
    <contour>
      <point x="154" y="440" type="curve"/>
      <point x="154" y="462"/>
      <point x="138" y="474"/>
      <point x="116" y="474" type="curve"/>
      <point x="94" y="474"/>
      <point x="79" y="461"/>
      <point x="79" y="440" type="curve"/>
      <point x="144" y="440"/>
      <point x="88" y="440"/>
      <point x="154" y="440" type="curve"/>
      <point x="154" y="418"/>
      <point x="138" y="407"/>
      <point x="115" y="407" type="curve"/>
      <point x="93" y="407"/>
      <point x="79" y="418"/>
      <point x="79" y="440" type="curve"/>
      <point x="144" y="440"/>
      <point x="88" y="440"/>
    </contour>
  </outline>
</glyph>
<glyph name="cedilla" format="1">
  <advance width="363"/>
  <unicode hex="00B8"/>
  <outline>
    <contour>
      <point x="141" y="62" type="curve"/>
      <point x="126" y="36"/>
      <point x="97" y="-11"/>
      <point x="82" y="-36" type="curve"/>
      <point x="124" y="-75"/>
      <point x="82" y="-36"/>
      <point x="124" y="-75" type="curve"/>
      <point x="139" y="-47"/>
      <point x="171" y="2"/>
      <point x="187" y="29" type="curve"/>
      <point x="141" y="62"/>
      <point x="187" y="29"/>
    </contour>
    <contour>
      <point x="124" y="-75" type="curve"/>
      <point x="136" y="-67"/>
      <point x="147" y="-64"/>
      <point x="162" y="-64" type="curve"/>
      <point x="189" y="-64"/>
      <point x="205" y="-80"/>
      <point x="205" y="-108" type="curve"/>
      <point x="205" y="-139"/>
      <point x="181" y="-152"/>
      <point x="148" y="-152" type="curve"/>
      <point x="122" y="-152"/>
      <point x="101" y="-148"/>
      <point x="76" y="-134" type="curve"/>
      <point x="56" y="-171"/>
      <point x="76" y="-134"/>
      <point x="56" y="-171" type="curve"/>
      <point x="86" y="-187"/>
      <point x="111" y="-194"/>
      <point x="145" y="-194" type="curve"/>
      <point x="210" y="-194"/>
      <point x="257" y="-167"/>
      <point x="257" y="-107" type="curve"/>
      <point x="257" y="-51"/>
      <point x="219" y="-18"/>
      <point x="163" y="-18" type="curve"/>
      <point x="132" y="-18"/>
      <point x="111" y="-24"/>
      <point x="83" y="-37" type="curve"/>
      <point x="124" y="-75"/>
      <point x="83" y="-37"/>
    </contour>
    <contour>
      <point x="181" y="29" type="move" name="_bottom"/>
    </contour>
  </outline>
</glyph>
<glyph name="onesuperior" format="1">
  <advance width="396"/>
  <unicode hex="00B9"/>
  <outline>
    <contour>
      <point x="202" y="297" type="curve"/>
      <point x="247" y="297"/>
      <point x="284" y="297"/>
      <point x="329" y="297" type="curve"/>
      <point x="329" y="342"/>
      <point x="329" y="296"/>
      <point x="329" y="341" type="curve"/>
      <point x="303" y="341"/>
      <point x="284" y="341"/>
      <point x="258" y="341" type="curve"/>
      <point x="202" y="296"/>
      <point x="258" y="342"/>
    </contour>
    <contour>
      <point x="258" y="341" type="curve"/>
      <point x="212" y="341"/>
      <point x="173" y="341"/>
      <point x="127" y="341" type="curve"/>
      <point x="127" y="296"/>
      <point x="127" y="342"/>
      <point x="127" y="297" type="curve"/>
      <point x="155" y="297"/>
      <point x="175" y="297"/>
      <point x="202" y="297" type="curve"/>
      <point x="258" y="342"/>
      <point x="202" y="296"/>
    </contour>
    <contour>
      <point x="98" y="571" type="line"/>
      <point x="258" y="705" type="line"/>
      <point x="202" y="712" type="line"/>
      <point x="70" y="605" type="line"/>
    </contour>
    <contour>
      <point x="258" y="341" type="curve"/>
      <point x="258" y="712" type="line"/>
      <point x="202" y="712" type="line"/>
      <point x="202" y="297" type="line"/>
      <point x="258" y="342"/>
      <point x="202" y="296"/>
    </contour>
    <contour>
      <point x="228" y="710" type="move" name="_top"/>
    </contour>
    <contour>
      <point x="231" y="299" type="move" name="_bottom"/>
    </contour>
  </outline>
</glyph>
<glyph name="ordmasculine" format="1">
  <advance width="469"/>
  <unicode hex="00BA"/>
  <outline>
    <contour>
      <point x="115" y="602" type="curve"/>
      <point x="115" y="682"/>
      <point x="156" y="734"/>
      <point x="234" y="734" type="curve"/>
      <point x="312" y="734"/>
      <point x="353" y="681"/>
      <point x="353" y="600" type="curve"/>
      <point x="353" y="515"/>
      <point x="314" y="458"/>
      <point x="239" y="458" type="curve"/>
      <point x="156" y="458"/>
      <point x="115" y="516"/>
      <point x="115" y="602" type="curve"/>
      <point x="87" y="602"/>
      <point x="98" y="602"/>
      <point x="70" y="602" type="curve"/>
      <point x="70" y="491"/>
      <point x="129" y="420"/>
      <point x="237" y="420" type="curve"/>
      <point x="341" y="420"/>
      <point x="399" y="490"/>
      <point x="399" y="600" type="curve"/>
      <point x="399" y="705"/>
      <point x="341" y="771"/>
      <point x="236" y="771" type="curve"/>
      <point x="130" y="771"/>
      <point x="70" y="705"/>
      <point x="70" y="602" type="curve"/>
      <point x="98" y="602"/>
      <point x="87" y="602"/>
    </contour>
  </outline>
</glyph>
<glyph name="guillemotright" format="1">
  <advance width="637"/>
  <unicode hex="00BB"/>
  <outline>
    <contour>
      <point x="331" y="423" type="curve"/>
      <point x="348" y="413"/>
      <point x="551" y="317"/>
      <point x="568" y="307" type="curve"/>
      <point x="568" y="255"/>
      <point x="568" y="304"/>
      <point x="568" y="252" type="curve"/>
      <point x="551" y="262"/>
      <point x="348" y="360"/>
      <point x="331" y="370" type="curve"/>
      <point x="331" y="422"/>
      <point x="331" y="371"/>
    </contour>
    <contour>
      <point x="331" y="190" type="curve"/>
      <point x="347" y="200"/>
      <point x="551" y="297"/>
      <point x="568" y="307" type="curve"/>
      <point x="568" y="255"/>
      <point x="568" y="304"/>
      <point x="568" y="252" type="curve"/>
      <point x="551" y="242"/>
      <point x="347" y="147"/>
      <point x="331" y="137" type="curve"/>
      <point x="331" y="189"/>
      <point x="331" y="138"/>
    </contour>
    <contour>
      <point x="91" y="423" type="curve"/>
      <point x="108" y="413"/>
      <point x="311" y="317"/>
      <point x="328" y="307" type="curve"/>
      <point x="328" y="255"/>
      <point x="328" y="304"/>
      <point x="328" y="252" type="curve"/>
      <point x="311" y="262"/>
      <point x="108" y="360"/>
      <point x="91" y="370" type="curve"/>
      <point x="91" y="422"/>
      <point x="91" y="371"/>
    </contour>
    <contour>
      <point x="91" y="190" type="curve"/>
      <point x="107" y="200"/>
      <point x="311" y="297"/>
      <point x="328" y="307" type="curve"/>
      <point x="328" y="255"/>
      <point x="328" y="304"/>
      <point x="328" y="252" type="curve"/>
      <point x="311" y="242"/>
      <point x="107" y="147"/>
      <point x="91" y="137" type="curve"/>
      <point x="91" y="189"/>
      <point x="91" y="138"/>
    </contour>
  </outline>
</glyph>
<glyph name="onequarter" format="1">
  <advance width="1012"/>
  <unicode hex="00BC"/>
  <outline>
    <contour>
      <point x="329" y="-76" type="line"/>
      <point x="774" y="742" type="line"/>
      <point x="715" y="742" type="line"/>
      <point x="270" y="-76" type="line"/>
    </contour>
    <contour>
      <point x="175" y="331" type="curve"/>
      <point x="220" y="331"/>
      <point x="257" y="331"/>
      <point x="302" y="331" type="curve"/>
      <point x="302" y="376"/>
      <point x="302" y="329"/>
      <point x="302" y="374" type="curve"/>
      <point x="276" y="374"/>
      <point x="257" y="374"/>
      <point x="231" y="374" type="curve"/>
      <point x="175" y="329"/>
      <point x="231" y="376"/>
    </contour>
    <contour>
      <point x="231" y="374" type="curve"/>
      <point x="185" y="374"/>
      <point x="146" y="374"/>
      <point x="100" y="374" type="curve"/>
      <point x="100" y="329"/>
      <point x="100" y="376"/>
      <point x="100" y="331" type="curve"/>
      <point x="127" y="331"/>
      <point x="147" y="331"/>
      <point x="175" y="331" type="curve"/>
      <point x="231" y="376"/>
      <point x="175" y="329"/>
    </contour>
    <contour>
      <point x="71" y="605" type="line"/>
      <point x="230" y="739" type="line"/>
      <point x="175" y="745" type="line"/>
      <point x="43" y="638" type="line"/>
    </contour>
    <contour>
      <point x="231" y="374" type="curve"/>
      <point x="231" y="745" type="line"/>
      <point x="175" y="745" type="line"/>
      <point x="175" y="331" type="line"/>
      <point x="231" y="376"/>
      <point x="175" y="329"/>
    </contour>
    <contour>
      <point x="983" y="82" type="line"/>
      <point x="595" y="82" type="line"/>
      <point x="595" y="39" type="line"/>
      <point x="983" y="39" type="line"/>
    </contour>
    <contour>
      <point x="615" y="43" type="line"/>
      <point x="872" y="346" type="line"/>
      <point x="826" y="357" type="line"/>
      <point x="595" y="82" type="line"/>
    </contour>
    <contour>
      <point x="882" y="-81" type="line"/>
      <point x="882" y="357" type="line"/>
      <point x="826" y="357" type="line"/>
      <point x="826" y="-81" type="line"/>
    </contour>
    <contour>
      <point x="854" y="-40" type="line"/>
      <point x="749" y="-40" type="line"/>
      <point x="749" y="-81" type="line"/>
      <point x="854" y="-81" type="line"/>
    </contour>
    <contour>
      <point x="854" y="-81" type="line"/>
      <point x="956" y="-81" type="line"/>
      <point x="956" y="-40" type="line"/>
      <point x="854" y="-40" type="line"/>
    </contour>
  </outline>
</glyph>
<glyph name="onehalf" format="1">
  <advance width="1069"/>
  <unicode hex="00BD"/>
  <outline>
    <contour>
      <point x="336" y="-76" type="line"/>
      <point x="781" y="742" type="line"/>
      <point x="722" y="742" type="line"/>
      <point x="278" y="-76" type="line"/>
    </contour>
    <contour>
      <point x="172" y="331" type="curve"/>
      <point x="217" y="331"/>
      <point x="255" y="331"/>
      <point x="300" y="331" type="curve"/>
      <point x="300" y="376"/>
      <point x="300" y="329"/>
      <point x="300" y="374" type="curve"/>
      <point x="273" y="374"/>
      <point x="255" y="374"/>
      <point x="229" y="374" type="curve"/>
      <point x="172" y="329"/>
      <point x="229" y="376"/>
    </contour>
    <contour>
      <point x="229" y="374" type="curve"/>
      <point x="183" y="374"/>
      <point x="144" y="374"/>
      <point x="98" y="374" type="curve"/>
      <point x="98" y="329"/>
      <point x="98" y="376"/>
      <point x="98" y="331" type="curve"/>
      <point x="125" y="331"/>
      <point x="145" y="331"/>
      <point x="173" y="331" type="curve"/>
      <point x="229" y="376"/>
      <point x="173" y="329"/>
    </contour>
    <contour>
      <point x="69" y="605" type="line"/>
      <point x="228" y="739" type="line"/>
      <point x="173" y="745" type="line"/>
      <point x="40" y="638" type="line"/>
    </contour>
    <contour>
      <point x="229" y="374" type="curve"/>
      <point x="229" y="745" type="line"/>
      <point x="173" y="745" type="line"/>
      <point x="173" y="331" type="line"/>
      <point x="229" y="376"/>
      <point x="173" y="329"/>
    </contour>
    <contour>
      <point x="1028" y="-78" type="curve"/>
      <point x="1028" y="-39"/>
      <point x="1028" y="-10"/>
      <point x="1028" y="29" type="curve"/>
      <point x="981" y="29"/>
      <point x="1030" y="29"/>
      <point x="984" y="29" type="curve"/>
      <point x="984" y="5"/>
      <point x="984" y="-9"/>
      <point x="984" y="-33" type="curve"/>
      <point x="1032" y="-76"/>
      <point x="979" y="-36"/>
    </contour>
    <contour>
      <point x="676" y="-78" type="curve"/>
      <point x="803" y="-78"/>
      <point x="918" y="-78"/>
      <point x="1028" y="-78" type="curve"/>
      <point x="979" y="-36"/>
      <point x="1032" y="-76"/>
      <point x="984" y="-33" type="curve"/>
      <point x="882" y="-33"/>
      <point x="778" y="-33"/>
      <point x="676" y="-33" type="curve"/>
      <point x="676" y="-78"/>
      <point x="676" y="-33"/>
    </contour>
    <contour>
      <point x="742" y="233" type="curve"/>
      <point x="770" y="275"/>
      <point x="802" y="300"/>
      <point x="854" y="300" type="curve"/>
      <point x="912" y="300"/>
      <point x="951" y="272"/>
      <point x="951" y="218" type="curve"/>
      <point x="951" y="167"/>
      <point x="916" y="144"/>
      <point x="878" y="112" type="curve"/>
      <point x="810" y="64"/>
      <point x="743" y="15"/>
      <point x="676" y="-33" type="curve"/>
      <point x="684" y="-77"/>
      <point x="677" y="-33"/>
      <point x="685" y="-77" type="curve"/>
      <point x="764" y="-23"/>
      <point x="840" y="26"/>
      <point x="910" y="77" type="curve"/>
      <point x="962" y="121"/>
      <point x="1006" y="153"/>
      <point x="1006" y="220" type="curve"/>
      <point x="1006" y="302"/>
      <point x="945" y="345"/>
      <point x="858" y="345" type="curve"/>
      <point x="786" y="345"/>
      <point x="735" y="318"/>
      <point x="701" y="255" type="curve"/>
      <point x="742" y="233"/>
      <point x="701" y="255"/>
    </contour>
  </outline>
</glyph>
<glyph name="questiondown" format="1">
  <advance width="521"/>
  <unicode hex="00BF"/>
  <outline>
    <contour>
      <point x="322" y="364" type="curve"/>
      <point x="322" y="401"/>
      <point x="322" y="453"/>
      <point x="322" y="490" type="curve"/>
      <point x="263" y="490"/>
      <point x="322" y="490"/>
      <point x="263" y="490" type="curve"/>
      <point x="263" y="453"/>
      <point x="263" y="401"/>
      <point x="263" y="364" type="curve"/>
      <point x="322" y="364"/>
      <point x="263" y="364"/>
    </contour>
    <contour>
      <point x="431" y="102" type="line"/>
      <point x="397" y="67"/>
      <point x="348" y="39"/>
      <point x="286" y="39" type="curve"/>
      <point x="186" y="39"/>
      <point x="119" y="95"/>
      <point x="119" y="193" type="curve"/>
      <point x="119" y="302"/>
      <point x="199" y="364"/>
      <point x="315" y="364" type="curve"/>
      <point x="315" y="386"/>
      <point x="315" y="390"/>
      <point x="315" y="412" type="curve"/>
      <point x="165" y="412"/>
      <point x="61" y="332"/>
      <point x="61" y="193" type="curve"/>
      <point x="61" y="64"/>
      <point x="152" y="-11"/>
      <point x="283" y="-11" type="curve"/>
      <point x="361" y="-11"/>
      <point x="420" y="19"/>
      <point x="464" y="65" type="curve"/>
    </contour>
    <contour>
      <point x="256" y="692" type="curve"/>
      <point x="256" y="671"/>
      <point x="271" y="660"/>
      <point x="292" y="660" type="curve"/>
      <point x="313" y="660"/>
      <point x="327" y="673"/>
      <point x="327" y="692" type="curve"/>
      <point x="256" y="692"/>
      <point x="327" y="692"/>
      <point x="256" y="692" type="curve"/>
      <point x="256" y="714"/>
      <point x="271" y="724"/>
      <point x="292" y="724" type="curve"/>
      <point x="314" y="724"/>
      <point x="327" y="713"/>
      <point x="327" y="692" type="curve"/>
      <point x="256" y="692"/>
      <point x="327" y="692"/>
    </contour>
  </outline>
</glyph>
